Jost-Semi.ufo
<glyph name="exclam" format="1">
  <advance width="330"/>
  <unicode hex="0021"/>
  <outline>
    <contour>
      <point x="84" y="700" type="line"/>
      <point x="246" y="700" type="line"/>
      <point x="217" y="222" type="line"/>
      <point x="113" y="222" type="line"/>
    </contour>
    <contour>
      <point x="83" y="56" type="curve" smooth="yes"/>
      <point x="83" y="100"/>
      <point x="118" y="132"/>
      <point x="166" y="132" type="curve" smooth="yes"/>
      <point x="214" y="132"/>
      <point x="248" y="100"/>
      <point x="248" y="56" type="curve" smooth="yes"/>
      <point x="248" y="12"/>
      <point x="214" y="-22"/>
      <point x="166" y="-22" type="curve" smooth="yes"/>
      <point x="118" y="-22"/>
      <point x="83" y="12"/>
    </contour>
  </outline>
</glyph>
<glyph name="ampersand" format="1">
  <advance width="729"/>
  <unicode hex="0026"/>
  <outline>
    <contour>
      <point x="223" y="376" type="line" smooth="yes"/>
      <point x="182" y="425"/>
      <point x="124" y="476"/>
      <point x="124" y="548" type="curve" smooth="yes"/>
      <point x="124" y="638"/>
      <point x="202" y="716"/>
      <point x="326" y="716" type="curve" smooth="yes"/>
      <point x="448" y="716"/>
      <point x="518" y="634"/>
      <point x="518" y="550" type="curve" smooth="yes"/>
      <point x="518" y="466"/>
      <point x="459" y="420"/>
      <point x="353" y="352" type="curve" smooth="yes"/>
      <point x="281" y="307"/>
      <point x="176" y="283"/>
      <point x="176" y="197" type="curve" smooth="yes"/>
      <point x="176" y="141"/>
      <point x="222" y="99"/>
      <point x="294" y="99" type="curve" smooth="yes"/>
      <point x="412" y="99"/>
      <point x="522" y="208"/>
      <point x="606" y="334" type="curve"/>
      <point x="696" y="268" type="line"/>
      <point x="604" y="136"/>
      <point x="470" y="-12"/>
      <point x="278" y="-12" type="curve" smooth="yes"/>
      <point x="150" y="-12"/>
      <point x="40" y="62"/>
      <point x="40" y="186" type="curve" smooth="yes"/>
      <point x="40" y="342"/>
      <point x="210" y="385"/>
      <point x="280" y="419" type="curve" smooth="yes"/>
      <point x="355" y="457"/>
      <point x="397" y="501"/>
      <point x="397" y="540" type="curve" smooth="yes"/>
      <point x="397" y="578"/>
      <point x="368" y="609"/>
      <point x="324" y="609" type="curve" smooth="yes"/>
      <point x="276" y="609"/>
      <point x="252" y="578"/>
      <point x="252" y="540" type="curve" smooth="yes"/>
      <point x="252" y="498"/>
      <point x="295" y="465"/>
      <point x="342" y="408" type="curve" smooth="yes"/>
      <point x="712" y="0" type="line"/>
      <point x="561" y="0" type="line"/>
    </contour>
  </outline>
</glyph>
<glyph name="parenleft" format="2">
  <advance width="331"/>
  <unicode hex="0028"/>
  <outline>
    <contour>
      <point x="194" y="780" type="curve"/>
      <point x="312" y="780" type="line"/>
      <point x="242" y="630"/>
      <point x="206" y="460"/>
      <point x="206" y="290" type="curve" smooth="yes"/>
      <point x="206" y="120"/>
      <point x="242" y="-50"/>
      <point x="312" y="-200" type="curve"/>
      <point x="194" y="-200" type="line"/>
      <point x="114" y="-50"/>
      <point x="75" y="120"/>
      <point x="75" y="290" type="curve" smooth="yes"/>
      <point x="75" y="460"/>
      <point x="114" y="630"/>
    </contour>
  </outline>
</glyph>
<glyph name="asterisk" format="2">
  <advance width="592"/>
  <unicode hex="002A"/>
  <outline>
    <contour>
      <point x="490" y="602" type="line"/>
      <point x="526" y="490" type="line"/>
      <point x="307" y="445" type="line"/>
      <point x="285" y="509" type="line"/>
    </contour>
    <contour>
      <point x="475" y="331" type="line"/>
      <point x="379" y="262" type="line"/>
      <point x="269" y="457" type="line"/>
      <point x="323" y="497" type="line"/>
    </contour>
    <contour>
      <point x="213" y="262" type="line"/>
      <point x="117" y="331" type="line"/>
      <point x="269" y="497" type="line"/>
      <point x="323" y="457" type="line"/>
    </contour>
    <contour>
      <point x="66" y="490" type="line"/>
      <point x="102" y="602" type="line"/>
      <point x="307" y="509" type="line"/>
      <point x="285" y="445" type="line"/>
    </contour>
    <contour>
      <point x="237" y="700" type="line"/>
      <point x="355" y="700" type="line"/>
      <point x="330" y="477" type="line"/>
      <point x="262" y="477" type="line"/>
    </contour>
  </outline>
</glyph>
<glyph name="comma" format="2">
  <advance width="318"/>
  <unicode hex="002C"/>
  <outline>
    <contour>
      <point x="129" y="110" type="line"/>
      <point x="258" y="78" type="line"/>
      <point x="137" y="-172" type="line"/>
      <point x="41" y="-149" type="line"/>
    </contour>
  </outline>
</glyph>
<glyph name="two" format="1">
  <advance width="630"/>
  <unicode hex="0032"/>
  <outline>
    <contour>
      <point x="20" y="0" type="line"/>
      <point x="338" y="332" type="line" smooth="yes"/>
      <point x="391" y="389"/>
      <point x="422" y="432"/>
      <point x="422" y="488" type="curve" smooth="yes"/>
      <point x="422" y="537"/>
      <point x="390" y="587"/>
      <point x="320" y="587" type="curve" smooth="yes"/>
      <point x="248" y="587"/>
      <point x="198" y="530"/>
      <point x="198" y="446" type="curve"/>
      <point x="56" y="446" type="line"/>
      <point x="56" y="595"/>
      <point x="152" y="713"/>
      <point x="323" y="713" type="curve" smooth="yes"/>
      <point x="491" y="713"/>
      <point x="572" y="596"/>
      <point x="572" y="491" type="curve" smooth="yes"/>
      <point x="572" y="417"/>
      <point x="530" y="355"/>
      <point x="472" y="302" type="curve" smooth="yes"/>
      <point x="292" y="132" type="line"/>
      <point x="584" y="132" type="line"/>
      <point x="584" y="0" type="line"/>
    </contour>
  </outline>
</glyph>
<glyph name="four" format="1">
  <advance width="663"/>
  <unicode hex="0034"/>
  <outline>
    <contour>
      <point x="16" y="129" type="line"/>
      <point x="416" y="700" type="line"/>
      <point x="515" y="700" type="line"/>
      <point x="515" y="0" type="line"/>
      <point x="366" y="0" type="line"/>
      <point x="366" y="165" type="line"/>
      <point x="380" y="176" type="line"/>
      <point x="380" y="471" type="line"/>
      <point x="213.837" y="237" type="line"/>
      <point x="441" y="237" type="line"/>
      <point x="458" y="252" type="line"/>
      <point x="625" y="252" type="line"/>
      <point x="625" y="129" type="line"/>
    </contour>
  </outline>
</glyph>
<glyph name="nine" format="2">
  <advance width="640"/>
  <unicode hex="0039"/>
  <outline>
    <contour>
      <point x="450" y="459" type="curve" smooth="yes"/>
      <point x="450" y="538"/>
      <point x="394" y="591"/>
      <point x="320" y="591" type="curve" smooth="yes"/>
      <point x="246" y="591"/>
      <point x="191" y="538"/>
      <point x="191" y="459" type="curve" smooth="yes"/>
      <point x="191" y="380"/>
      <point x="246" y="326"/>
      <point x="320" y="326" type="curve" smooth="yes"/>
      <point x="394" y="326"/>
      <point x="450" y="380"/>
    </contour>
    <contour>
      <point x="309" y="2" type="line"/>
      <point x="127" y="2" type="line"/>
      <point x="352" y="266" type="line"/>
      <point x="377" y="275" type="line"/>
      <point x="343" y="240"/>
      <point x="311" y="232"/>
      <point x="263" y="232" type="curve" smooth="yes"/>
      <point x="155" y="232"/>
      <point x="50" y="321"/>
      <point x="50" y="459" type="curve" smooth="yes"/>
      <point x="50" y="622"/>
      <point x="170" y="714"/>
      <point x="320" y="714" type="curve" smooth="yes"/>
      <point x="470" y="714"/>
      <point x="591" y="622"/>
      <point x="591" y="459" type="curve" smooth="yes"/>
      <point x="591" y="389"/>
      <point x="561" y="330"/>
      <point x="521" y="280" type="curve" smooth="yes"/>
    </contour>
  </outline>
</glyph>
<glyph name="semicolon" format="1">
  <advance width="374"/>
  <unicode hex="003B"/>
  <outline>
    <contour>
      <point x="120" y="431" type="curve" smooth="yes"/>
      <point x="120" y="475"/>
      <point x="155" y="512"/>
      <point x="203" y="512" type="curve" smooth="yes"/>
      <point x="251" y="512"/>
      <point x="286" y="475"/>
      <point x="286" y="431" type="curve" smooth="yes"/>
      <point x="286" y="387"/>
      <point x="251" y="350"/>
      <point x="203" y="350" type="curve" smooth="yes"/>
      <point x="155" y="350"/>
      <point x="120" y="387"/>
    </contour>
    <contour>
      <point x="144" y="110" type="line"/>
      <point x="274" y="78" type="line"/>
      <point x="153" y="-172" type="line"/>
      <point x="56" y="-149" type="line"/>
    </contour>
  </outline>
</glyph>
<glyph name="H" format="1">
  <advance width="764"/>
  <unicode hex="0048"/>
  <outline>
    <contour>
      <point x="122" y="307" type="line"/>
      <point x="122" y="438" type="line"/>
      <point x="637" y="438" type="line"/>
      <point x="637" y="307" type="line"/>
    </contour>
    <contour>
      <point x="546" y="700" type="line"/>
      <point x="690" y="700" type="line"/>
      <point x="690" y="0" type="line"/>
      <point x="546" y="0" type="line"/>
    </contour>
    <contour>
      <point x="76" y="700" type="line"/>
      <point x="220" y="700" type="line"/>
      <point x="220" y="0" type="line"/>
      <point x="76" y="0" type="line"/>
    </contour>
  </outline>
</glyph>
<glyph name="M" format="1">
  <advance width="866"/>
  <unicode hex="004D"/>
  <outline>
    <contour>
      <point x="230.77" y="386.435" type="line"/>
      <point x="186" y="0" type="line"/>
      <point x="36" y="0" type="line"/>
      <point x="140" y="735" type="line"/>
      <point x="434" y="284" type="line"/>
      <point x="726" y="735" type="line"/>
      <point x="832" y="0" type="line"/>
      <point x="680" y="0" type="line"/>
      <point x="635.326" y="385.605" type="line"/>
      <point x="434" y="65" type="line"/>
    </contour>
  </outline>
</glyph>
<glyph name="N" format="1">
  <advance width="787"/>
  <unicode hex="004E"/>
  <outline>
    <contour>
      <point x="573" y="700" type="line"/>
      <point x="712" y="700" type="line"/>
      <point x="712" y="-35" type="line"/>
      <point x="216" y="422.544" type="line"/>
      <point x="216" y="0" type="line"/>
      <point x="76" y="0" type="line"/>
      <point x="76" y="735" type="line"/>
      <point x="573" y="276.533" type="line"/>
    </contour>
  </outline>
</glyph>
<glyph name="W" format="1">
  <advance width="1042"/>
  <unicode hex="0057"/>
  <outline>
    <contour>
      <point x="723.492" y="253.773" type="line"/>
      <point x="868" y="700" type="line"/>
      <point x="1036" y="700" type="line"/>
      <point x="742" y="-40" type="line"/>
      <point x="521" y="419" type="line"/>
      <point x="300" y="-40" type="line"/>
      <point x="6" y="700" type="line"/>
      <point x="175" y="700" type="line"/>
      <point x="319.073" y="255.116" type="line"/>
      <point x="521" y="735" type="line"/>
    </contour>
  </outline>
</glyph>
<glyph name="underscore" format="2">
  <advance width="521"/>
  <unicode hex="005F"/>
  <outline>
    <contour>
      <point x="0" y="-147" type="line"/>
      <point x="0" y="-64" type="line"/>
      <point x="522" y="-64" type="line"/>
      <point x="522" y="-147" type="line"/>
    </contour>
  </outline>
</glyph>
<glyph name="j" format="2">
  <advance width="265"/>
  <unicode hex="006A"/>
  <outline>
    <contour>
      <point x="52" y="638" type="curve" smooth="yes"/>
      <point x="52" y="681"/>
      <point x="87" y="711"/>
      <point x="130" y="711" type="curve" smooth="yes"/>
      <point x="173" y="711"/>
      <point x="208" y="681"/>
      <point x="208" y="638" type="curve" smooth="yes"/>
      <point x="208" y="595"/>
      <point x="173" y="564"/>
      <point x="130" y="564" type="curve" smooth="yes"/>
      <point x="87" y="564"/>
      <point x="52" y="595"/>
    </contour>
    <contour>
      <point x="-28" y="-88" type="line"/>
      <point x="-14" y="-108"/>
      <point x="2" y="-114"/>
      <point x="19" y="-114" type="curve" smooth="yes"/>
      <point x="49" y="-114"/>
      <point x="67" y="-92"/>
      <point x="67" y="-39" type="curve" smooth="yes"/>
      <point x="67" y="460" type="line"/>
      <point x="192" y="460" type="line"/>
      <point x="192" y="-69" type="line" smooth="yes"/>
      <point x="192" y="-174"/>
      <point x="137" y="-233"/>
      <point x="31" y="-233" type="curve" smooth="yes"/>
      <point x="-29" y="-233"/>
      <point x="-65" y="-206"/>
      <point x="-84" y="-186" type="curve"/>
    </contour>
  </outline>
</glyph>
<glyph name="m" format="2">
  <advance width="808"/>
  <unicode hex="006D"/>
  <outline>
    <contour>
      <point x="337" y="280" type="line" smooth="yes"/>
      <point x="337" y="341"/>
      <point x="319" y="374"/>
      <point x="269" y="374" type="curve" smooth="yes"/>
      <point x="218" y="374"/>
      <point x="190" y="337"/>
      <point x="190" y="280" type="curve"/>
      <point x="164" y="276" type="line"/>
      <point x="164" y="385"/>
      <point x="217" y="470"/>
      <point x="321" y="470" type="curve" smooth="yes"/>
      <point x="425" y="470"/>
      <point x="467" y="414"/>
      <point x="467" y="299" type="curve" smooth="yes"/>
      <point x="467" y="0" type="line"/>
      <point x="337" y="0" type="line"/>
    </contour>
    <contour>
      <point x="190" y="460" type="line"/>
      <point x="190" y="0" type="line"/>
      <point x="64" y="0" type="line"/>
      <point x="64" y="460" type="line"/>
    </contour>
    <contour>
      <point x="744" y="294" type="curve" smooth="yes"/>
      <point x="744" y="0" type="line"/>
      <point x="614" y="0" type="line"/>
      <point x="614" y="280" type="line" smooth="yes"/>
      <point x="614" y="341"/>
      <point x="597" y="374"/>
      <point x="547" y="374" type="curve" smooth="yes"/>
      <point x="496" y="374"/>
      <point x="467" y="337"/>
      <point x="467" y="280" type="curve"/>
      <point x="419" y="276" type="line"/>
      <point x="419" y="385"/>
      <point x="494" y="470"/>
      <point x="598" y="470" type="curve" smooth="yes"/>
      <point x="702" y="470"/>
      <point x="744" y="409"/>
    </contour>
  </outline>
</glyph>
<glyph name="n" format="1">
  <advance width="560"/>
  <unicode hex="006E"/>
  <outline>
    <contour>
      <point x="195" y="460" type="line"/>
      <point x="195" y="0" type="line"/>
      <point x="64" y="0" type="line"/>
      <point x="64" y="460" type="line"/>
    </contour>
    <contour>
      <point x="362" y="280" type="line" smooth="yes"/>
      <point x="362" y="340"/>
      <point x="340" y="374"/>
      <point x="286" y="374" type="curve" smooth="yes"/>
      <point x="232" y="374"/>
      <point x="195" y="338"/>
      <point x="195" y="280" type="curve"/>
      <point x="169" y="276" type="line"/>
      <point x="169" y="385"/>
      <point x="226" y="470"/>
      <point x="334" y="470" type="curve" smooth="yes"/>
      <point x="442" y="470"/>
      <point x="496" y="408"/>
      <point x="496" y="294" type="curve" smooth="yes"/>
      <point x="496" y="0" type="line"/>
      <point x="362" y="0" type="line"/>
    </contour>
  </outline>
</glyph>
<glyph name="p" format="1">
  <advance width="602"/>
  <unicode hex="0070"/>
  <outline>
    <contour>
      <point x="192" y="-220" type="line"/>
      <point x="62" y="-220" type="line"/>
      <point x="62" y="460" type="line"/>
      <point x="192" y="460" type="line"/>
    </contour>
    <contour>
      <point x="570" y="230" type="curve" smooth="yes"/>
      <point x="570" y="72"/>
      <point x="464" y="-14"/>
      <point x="348" y="-14" type="curve" smooth="yes"/>
      <point x="228" y="-14"/>
      <point x="156" y="81"/>
      <point x="156" y="230" type="curve" smooth="yes"/>
      <point x="156" y="379"/>
      <point x="228" y="474"/>
      <point x="348" y="474" type="curve" smooth="yes"/>
      <point x="464" y="474"/>
      <point x="570" y="388"/>
    </contour>
    <contour>
      <point x="434" y="230" type="curve" smooth="yes"/>
      <point x="434" y="312"/>
      <point x="378" y="358"/>
      <point x="310" y="358" type="curve" smooth="yes"/>
      <point x="254" y="358"/>
      <point x="192" y="314"/>
      <point x="192" y="230" type="curve" smooth="yes"/>
      <point x="192" y="146"/>
      <point x="254" y="102"/>
      <point x="310" y="102" type="curve" smooth="yes"/>
      <point x="378" y="102"/>
      <point x="434" y="148"/>
    </contour>
  </outline>
</glyph>
<glyph name="v" format="2">
  <advance width="500"/>
  <unicode hex="0076"/>
  <outline>
    <contour>
      <point x="-2" y="460" type="line"/>
      <point x="138" y="460" type="line"/>
      <point x="250" y="183" type="line"/>
      <point x="363" y="460" type="line"/>
      <point x="503" y="460" type="line"/>
      <point x="250" y="-48" type="line"/>
    </contour>
  </outline>
</glyph>
<glyph name="w" format="1">
  <advance width="736"/>
  <unicode hex="0077"/>
  <outline>
    <contour>
      <point x="-4" y="460" type="line"/>
      <point x="135" y="460" type="line"/>
      <point x="235.455" y="206.393" type="line"/>
      <point x="365" y="495" type="line"/>
      <point x="500.968" y="204.935" type="line"/>
      <point x="602" y="460" type="line"/>
      <point x="740" y="460" type="line"/>
      <point x="515" y="-30" type="line"/>
      <point x="365.595" y="262.17" type="line"/>
      <point x="222" y="-30" type="line"/>
    </contour>
  </outline>
</glyph>
<glyph name="y" format="2">
  <advance width="496"/>
  <unicode hex="0079"/>
  <outline>
    <contour>
      <point x="503" y="460" type="line"/>
      <point x="203" y="-220" type="line"/>
      <point x="69" y="-220" type="line"/>
      <point x="186" y="46" type="line"/>
      <point x="-6" y="460" type="line"/>
      <point x="138" y="460" type="line"/>
      <point x="286" y="94" type="line"/>
      <point x="222" y="96" type="line"/>
      <point x="367" y="460" type="line"/>
    </contour>
  </outline>
</glyph>
<glyph name="exclamdown" format="1">
  <advance width="330"/>
  <unicode hex="00A1"/>
  <outline>
    <contour>
      <point x="246" y="-234" type="line"/>
      <point x="85" y="-234" type="line"/>
      <point x="113" y="244" type="line"/>
      <point x="217" y="244" type="line"/>
    </contour>
    <contour>
      <point x="248" y="411" type="curve" smooth="yes"/>
      <point x="248" y="366"/>
      <point x="213" y="334"/>
      <point x="165" y="334" type="curve" smooth="yes"/>
      <point x="117" y="334"/>
      <point x="83" y="366"/>
      <point x="83" y="411" type="curve" smooth="yes"/>
      <point x="83" y="456"/>
      <point x="117" y="488"/>
      <point x="165" y="488" type="curve" smooth="yes"/>
      <point x="213" y="488"/>
      <point x="248" y="456"/>
    </contour>
  </outline>
</glyph>
<glyph name="cent" format="1">
  <advance width="580"/>
  <unicode hex="00A2"/>
  <outline>
    <contour>
      <point x="249" y="38" type="line"/>
      <point x="346" y="38" type="line"/>
      <point x="353" y="-112" type="line"/>
      <point x="243" y="-112" type="line"/>
    </contour>
    <contour>
      <point x="192" y="230" type="curve" smooth="yes"/>
      <point x="192" y="147"/>
      <point x="254" y="97"/>
      <point x="326" y="97" type="curve" smooth="yes"/>
      <point x="391" y="97"/>
      <point x="443" y="130"/>
      <point x="468" y="171" type="curve"/>
      <point x="468" y="36" type="line"/>
      <point x="436" y="7"/>
      <point x="380" y="-10"/>
      <point x="317" y="-10" type="curve" smooth="yes"/>
      <point x="169" y="-10"/>
      <point x="59" y="87"/>
      <point x="59" y="230" type="curve" smooth="yes"/>
      <point x="59" y="373"/>
      <point x="169" y="470"/>
      <point x="317" y="470" type="curve" smooth="yes"/>
      <point x="380" y="470"/>
      <point x="436" y="452"/>
      <point x="468" y="424" type="curve"/>
      <point x="468" y="289" type="line"/>
      <point x="443" y="330"/>
      <point x="391" y="363"/>
      <point x="326" y="363" type="curve" smooth="yes"/>
      <point x="254" y="363"/>
      <point x="192" y="308"/>
    </contour>
    <contour>
      <point x="243" y="578" type="line"/>
      <point x="353" y="578" type="line"/>
      <point x="346" y="428" type="line"/>
      <point x="249" y="428" type="line"/>
    </contour>
  </outline>
</glyph>
<glyph name="sterling" format="1">
  <advance width="602"/>
  <unicode hex="00A3"/>
  <outline>
    <contour>
      <point x="67" y="370" type="line"/>
      <point x="440" y="370" type="line"/>
      <point x="440" y="277" type="line"/>
      <point x="67" y="277" type="line"/>
    </contour>
    <contour>
      <point x="439" y="470" type="line"/>
      <point x="435" y="530"/>
      <point x="407" y="591"/>
      <point x="330" y="591" type="curve" smooth="yes"/>
      <point x="279" y="591"/>
      <point x="232" y="565"/>
      <point x="232" y="502" type="curve" smooth="yes"/>
      <point x="232" y="408"/>
      <point x="324" y="380"/>
      <point x="324" y="268" type="curve" smooth="yes"/>
      <point x="324" y="162"/>
      <point x="217" y="70"/>
      <point x="143" y="50" type="curve"/>
      <point x="180" y="122" type="line"/>
      <point x="532" y="122" type="line"/>
      <point x="532" y="0" type="line"/>
      <point x="55" y="0" type="line"/>
      <point x="153" y="102"/>
      <point x="197" y="178"/>
      <point x="197" y="275" type="curve" smooth="yes"/>
      <point x="197" y="369"/>
      <point x="94" y="397"/>
      <point x="94" y="520" type="curve" smooth="yes"/>
      <point x="94" y="639"/>
      <point x="197" y="710"/>
      <point x="325" y="710" type="curve" smooth="yes"/>
      <point x="471" y="710"/>
      <point x="551" y="599"/>
      <point x="556" y="515" type="curve"/>
    </contour>
  </outline>
</glyph>
<glyph name="currency" format="1">
  <advance width="577"/>
  <unicode hex="00A4"/>
  <outline>
    <contour>
      <point x="27" y="503" type="line"/>
      <point x="86" y="562" type="line"/>
      <point x="184" y="463" type="line"/>
      <point x="126" y="406" type="line"/>
    </contour>
    <contour>
      <point x="86" y="38" type="line"/>
      <point x="27" y="97" type="line"/>
      <point x="126" y="194" type="line"/>
      <point x="184" y="137" type="line"/>
    </contour>
    <contour>
      <point x="453" y="406" type="line"/>
      <point x="394" y="463" type="line"/>
      <point x="492" y="562" type="line"/>
      <point x="550" y="503" type="line"/>
    </contour>
    <contour>
      <point x="394" y="137" type="line"/>
      <point x="453" y="194" type="line"/>
      <point x="550" y="97" type="line"/>
      <point x="492" y="38" type="line"/>
    </contour>
    <contour>
      <point x="51" y="300" type="curve" smooth="yes"/>
      <point x="51" y="439"/>
      <point x="154" y="540"/>
      <point x="289" y="540" type="curve" smooth="yes"/>
      <point x="424" y="540"/>
      <point x="527" y="439"/>
      <point x="527" y="300" type="curve" smooth="yes"/>
      <point x="527" y="161"/>
      <point x="424" y="60"/>
      <point x="289" y="60" type="curve" smooth="yes"/>
      <point x="154" y="60"/>
      <point x="51" y="161"/>
    </contour>
    <contour>
      <point x="172" y="300" type="curve" smooth="yes"/>
      <point x="172" y="228"/>
      <point x="221" y="179"/>
      <point x="289" y="179" type="curve" smooth="yes"/>
      <point x="357" y="179"/>
      <point x="407" y="228"/>
      <point x="407" y="300" type="curve" smooth="yes"/>
      <point x="407" y="372"/>
      <point x="357" y="421"/>
      <point x="289" y="421" type="curve" smooth="yes"/>
      <point x="221" y="421"/>
      <point x="172" y="372"/>
    </contour>
  </outline>
</glyph>
<glyph name="brokenbar" format="1">
  <advance width="329"/>
  <unicode hex="00A6"/>
  <outline>
    <contour>
      <point x="100" y="695" type="line"/>
      <point x="229" y="695" type="line"/>
      <point x="229" y="437" type="line"/>
      <point x="100" y="437" type="line"/>
    </contour>
    <contour>
      <point x="229" y="263" type="line"/>
      <point x="229" y="5" type="line"/>
      <point x="100" y="5" type="line"/>
      <point x="100" y="263" type="line"/>
    </contour>
  </outline>
</glyph>
<glyph name="section" format="1">
  <advance width="527"/>
  <unicode hex="00A7"/>
  <outline>
    <contour>
      <point x="374" y="558" type="line"/>
      <point x="349" y="591"/>
      <point x="302" y="609"/>
      <point x="269" y="609" type="curve" smooth="yes"/>
      <point x="233" y="609"/>
      <point x="212" y="597"/>
      <point x="212" y="575" type="curve" smooth="yes"/>
      <point x="212" y="546"/>
      <point x="264" y="532"/>
      <point x="317" y="515" type="curve" smooth="yes"/>
      <point x="390" y="492"/>
      <point x="450" y="447"/>
      <point x="450" y="376" type="curve" smooth="yes"/>
      <point x="450" y="274"/>
      <point x="357" y="232"/>
      <point x="251" y="232" type="curve"/>
      <point x="251" y="272" type="line"/>
      <point x="292" y="276"/>
      <point x="329" y="310"/>
      <point x="329" y="350" type="curve" smooth="yes"/>
      <point x="329" y="403"/>
      <point x="266" y="420"/>
      <point x="213" y="441" type="curve" smooth="yes"/>
      <point x="154" y="464"/>
      <point x="87" y="501"/>
      <point x="87" y="582" type="curve" smooth="yes"/>
      <point x="87" y="673"/>
      <point x="177" y="720"/>
      <point x="262" y="720" type="curve" smooth="yes"/>
      <point x="340" y="720"/>
      <point x="418" y="684"/>
      <point x="443" y="640" type="curve"/>
    </contour>
    <contour>
      <point x="118" y="170" type="line"/>
      <point x="156" y="118"/>
      <point x="215" y="91"/>
      <point x="259" y="91" type="curve" smooth="yes"/>
      <point x="300" y="91"/>
      <point x="322" y="106"/>
      <point x="322" y="133" type="curve" smooth="yes"/>
      <point x="322" y="170"/>
      <point x="276" y="183"/>
      <point x="222" y="200" type="curve" smooth="yes"/>
      <point x="150" y="222"/>
      <point x="77" y="264"/>
      <point x="77" y="341" type="curve" smooth="yes"/>
      <point x="77" y="430"/>
      <point x="167" y="480"/>
      <point x="281" y="480" type="curve"/>
      <point x="281" y="445" type="line"/>
      <point x="234" y="429"/>
      <point x="201" y="410"/>
      <point x="201" y="369" type="curve" smooth="yes"/>
      <point x="201" y="307"/>
      <point x="275" y="296"/>
      <point x="326" y="275" type="curve" smooth="yes"/>
      <point x="391" y="248"/>
      <point x="453" y="206"/>
      <point x="453" y="130" type="curve" smooth="yes"/>
      <point x="453" y="27"/>
      <point x="362" y="-19"/>
      <point x="263" y="-19" type="curve" smooth="yes"/>
      <point x="160" y="-19"/>
      <point x="84" y="28"/>
      <point x="48" y="90" type="curve"/>
    </contour>
  </outline>
</glyph>
<glyph name="dieresis" format="1">
  <advance width="499"/>
  <unicode hex="00A8"/>
  <outline>
    <contour>
      <point x="287" y="640" type="curve" smooth="yes"/>
      <point x="287" y="683"/>
      <point x="322" y="714"/>
      <point x="365" y="714" type="curve" smooth="yes"/>
      <point x="408" y="714"/>
      <point x="443" y="683"/>
      <point x="443" y="640" type="curve" smooth="yes"/>
      <point x="443" y="597"/>
      <point x="408" y="566"/>
      <point x="365" y="566" type="curve" smooth="yes"/>
      <point x="322" y="566"/>
      <point x="287" y="597"/>
    </contour>
    <contour>
      <point x="56" y="640" type="curve" smooth="yes"/>
      <point x="56" y="683"/>
      <point x="91" y="714"/>
      <point x="134" y="714" type="curve" smooth="yes"/>
      <point x="177" y="714"/>
      <point x="212" y="683"/>
      <point x="212" y="640" type="curve" smooth="yes"/>
      <point x="212" y="597"/>
      <point x="177" y="566"/>
      <point x="134" y="566" type="curve" smooth="yes"/>
      <point x="91" y="566"/>
      <point x="56" y="597"/>
    </contour>
  </outline>
</glyph>
<glyph name="ordfeminine" format="1">
  <advance width="260"/>
  <unicode hex="00AA"/>
  <outline>
    <contour>
      <point x="84" y="531" type="curve" smooth="yes"/>
      <point x="84" y="513"/>
      <point x="96" y="501"/>
      <point x="122" y="501" type="curve" smooth="yes"/>
      <point x="150" y="501"/>
      <point x="178" y="513"/>
      <point x="178" y="552" type="curve"/>
      <point x="186" y="525" type="line"/>
      <point x="186" y="481"/>
      <point x="149" y="455"/>
      <point x="101" y="455" type="curve" smooth="yes"/>
      <point x="55" y="455"/>
      <point x="18" y="482"/>
      <point x="18" y="529" type="curve" smooth="yes"/>
      <point x="18" y="575"/>
      <point x="63" y="606"/>
      <point x="117" y="606" type="curve" smooth="yes"/>
      <point x="154" y="606"/>
      <point x="185" y="590"/>
      <point x="194" y="580" type="curve"/>
      <point x="194" y="548" type="line"/>
      <point x="176" y="562"/>
      <point x="157" y="568"/>
      <point x="130" y="568" type="curve" smooth="yes"/>
      <point x="102" y="568"/>
      <point x="84" y="552"/>
    </contour>
    <contour>
      <point x="63" y="631" type="curve"/>
      <point x="39" y="678" type="line"/>
      <point x="63" y="690"/>
      <point x="98" y="705"/>
      <point x="140" y="705" type="curve" smooth="yes"/>
      <point x="199" y="705"/>
      <point x="241" y="679"/>
      <point x="241" y="632" type="curve" smooth="yes"/>
      <point x="241" y="460" type="line"/>
      <point x="178" y="460" type="line"/>
      <point x="178" y="618" type="line" smooth="yes"/>
      <point x="178" y="639"/>
      <point x="160" y="652"/>
      <point x="135" y="652" type="curve" smooth="yes"/>
      <point x="102" y="652"/>
      <point x="74" y="638"/>
    </contour>
  </outline>
</glyph>
<glyph name="logicalnot" format="1">
  <advance width="641"/>
  <unicode hex="00AC"/>
  <outline>
    <contour>
      <point x="65" y="280" type="line"/>
      <point x="65" y="395" type="line"/>
      <point x="577" y="395" type="line"/>
      <point x="577" y="175" type="line"/>
      <point x="480" y="175" type="line"/>
      <point x="480" y="280" type="line"/>
    </contour>
  </outline>
</glyph>
<glyph name="macron" format="1">
  <advance width="525"/>
  <unicode hex="00AF"/>
  <outline>
    <contour>
      <point x="80" y="580" type="line"/>
      <point x="80" y="695" type="line"/>
      <point x="445" y="695" type="line"/>
      <point x="445" y="580" type="line"/>
    </contour>
  </outline>
</glyph>
<glyph name="uni00B2" format="1">
  <advance width="390"/>
  <unicode hex="00B2"/>
  <outline>
    <contour>
      <point x="25" y="282" type="line"/>
      <point x="216" y="481" type="line" smooth="yes"/>
      <point x="248" y="515"/>
      <point x="267" y="541"/>
      <point x="267" y="575" type="curve" smooth="yes"/>
      <point x="267" y="605"/>
      <point x="247" y="635"/>
      <point x="205" y="635" type="curve" smooth="yes"/>
      <point x="162" y="635"/>
      <point x="132" y="601"/>
      <point x="132" y="550" type="curve"/>
      <point x="46" y="550" type="line"/>
      <point x="46" y="639"/>
      <point x="104" y="710"/>
      <point x="207" y="710" type="curve" smooth="yes"/>
      <point x="307" y="710"/>
      <point x="356" y="640"/>
      <point x="356" y="577" type="curve" smooth="yes"/>
      <point x="356" y="533"/>
      <point x="331" y="495"/>
      <point x="296" y="463" type="curve" smooth="yes"/>
      <point x="189" y="362" type="line"/>
      <point x="363" y="362" type="line"/>
      <point x="363" y="282" type="line"/>
    </contour>
  </outline>
</glyph>
<glyph name="acute" format="1">
  <advance width="375"/>
  <unicode hex="00B4"/>
  <outline>
    <contour>
      <point x="313" y="656" type="line"/>
      <point x="133" y="506" type="line"/>
      <point x="60" y="544" type="line"/>
      <point x="210" y="704" type="line"/>
    </contour>
  </outline>
</glyph>
<glyph name="mu" format="1">
  <advance width="560"/>
  <unicode hex="00B5"/>
  <outline>
    <contour>
      <point x="366" y="0" type="line"/>
      <point x="366" y="460" type="line"/>
      <point x="496" y="460" type="line"/>
      <point x="496" y="0" type="line"/>
    </contour>
    <contour>
      <point x="199" y="180" type="line" smooth="yes"/>
      <point x="199" y="119"/>
      <point x="221" y="87"/>
      <point x="275" y="87" type="curve" smooth="yes"/>
      <point x="330" y="87"/>
      <point x="366" y="123"/>
      <point x="366" y="180" type="curve"/>
      <point x="397" y="184" type="line"/>
      <point x="397" y="75"/>
      <point x="334" y="-10"/>
      <point x="226" y="-10" type="curve" smooth="yes"/>
      <point x="118" y="-10"/>
      <point x="64" y="51"/>
      <point x="64" y="166" type="curve" smooth="yes"/>
      <point x="64" y="460" type="line"/>
      <point x="199" y="460" type="line"/>
    </contour>
    <contour>
      <point x="64" y="460" type="line"/>
      <point x="190" y="460" type="line"/>
      <point x="190" y="-320" type="line"/>
      <point x="64" y="-320" type="line"/>
    </contour>
  </outline>
</glyph>
<glyph name="periodcentered" format="1">
  <advance width="315"/>
  <unicode hex="00B7"/>
  <outline>
    <contour>
      <point x="75" y="260" type="curve" smooth="yes"/>
      <point x="75" y="305"/>
      <point x="110" y="341"/>
      <point x="158" y="341" type="curve" smooth="yes"/>
      <point x="206" y="341"/>
      <point x="241" y="305"/>
      <point x="241" y="260" type="curve" smooth="yes"/>
      <point x="241" y="215"/>
      <point x="206" y="178"/>
      <point x="158" y="178" type="curve" smooth="yes"/>
      <point x="110" y="178"/>
      <point x="75" y="215"/>
    </contour>
  </outline>
</glyph>
<glyph name="cedilla" format="1">
  <advance width="380"/>
  <unicode hex="00B8"/>
  <outline>
    <contour>
      <point x="187" y="68" type="line"/>
      <point x="283" y="65" type="line"/>
      <point x="203" y="-54" type="line"/>
      <point x="212" y="-52"/>
      <point x="221" y="-51"/>
      <point x="231" y="-51" type="curve" smooth="yes"/>
      <point x="269" y="-51"/>
      <point x="318" y="-81"/>
      <point x="318" y="-142" type="curve" smooth="yes"/>
      <point x="318" y="-211"/>
      <point x="255" y="-246"/>
      <point x="194" y="-246" type="curve" smooth="yes"/>
      <point x="144" y="-246"/>
      <point x="107" y="-237"/>
      <point x="66" y="-208" type="curve"/>
      <point x="108" y="-147" type="line"/>
      <point x="131" y="-165"/>
      <point x="157" y="-172"/>
      <point x="179" y="-172" type="curve" smooth="yes"/>
      <point x="213" y="-172"/>
      <point x="233" y="-160"/>
      <point x="233" y="-136" type="curve" smooth="yes"/>
      <point x="233" y="-110"/>
      <point x="207" y="-102"/>
      <point x="175" y="-102" type="curve" smooth="yes"/>
      <point x="165" y="-102"/>
      <point x="131" y="-105"/>
      <point x="100" y="-119" type="curve"/>
    </contour>
  </outline>
</glyph>
<glyph name="ordmasculine" format="1">
  <advance width="278"/>
  <unicode hex="00BA"/>
  <outline>
    <contour>
      <point x="19" y="580" type="curve" smooth="yes"/>
      <point x="19" y="652"/>
      <point x="73" y="700"/>
      <point x="146" y="700" type="curve" smooth="yes"/>
      <point x="219" y="700"/>
      <point x="275" y="652"/>
      <point x="275" y="580" type="curve" smooth="yes"/>
      <point x="275" y="508"/>
      <point x="219" y="460"/>
      <point x="146" y="460" type="curve" smooth="yes"/>
      <point x="73" y="460"/>
      <point x="19" y="508"/>
    </contour>
    <contour>
      <point x="86" y="580" type="curve" smooth="yes"/>
      <point x="86" y="541"/>
      <point x="112" y="516"/>
      <point x="146" y="516" type="curve" smooth="yes"/>
      <point x="180" y="516"/>
      <point x="208" y="541"/>
      <point x="208" y="580" type="curve" smooth="yes"/>
      <point x="208" y="619"/>
      <point x="180" y="645"/>
      <point x="146" y="645" type="curve" smooth="yes"/>
      <point x="112" y="645"/>
      <point x="86" y="619"/>
    </contour>
  </outline>
</glyph>
<glyph name="guillemotright" format="1">
  <advance width="532"/>
  <unicode hex="00BB"/>
  <outline>
    <contour>
      <point x="198" y="251" type="line"/>
      <point x="48" y="445" type="line"/>
      <point x="129" y="503" type="line"/>
      <point x="310" y="255" type="line"/>
      <point x="129" y="7" type="line"/>
      <point x="48" y="65" type="line"/>
    </contour>
    <contour>
      <point x="389" y="251" type="line"/>
      <point x="239" y="445" type="line"/>
      <point x="320" y="503" type="line"/>
      <point x="501" y="255" type="line"/>
      <point x="320" y="7" type="line"/>
      <point x="239" y="65" type="line"/>
    </contour>
  </outline>
</glyph>
<glyph name="onequarter" format="1">
  <advance width="802"/>
  <unicode hex="00BC"/>
  <outline>
    <contour>
      <point x="627" y="700" type="line"/>
      <point x="714" y="700" type="line"/>
      <point x="194" y="0" type="line"/>
      <point x="107" y="0" type="line"/>
    </contour>
    <contour>
      <point x="26" y="584" type="line"/>
      <point x="26" y="662" type="line"/>
      <point x="211" y="701" type="line"/>
      <point x="211" y="274" type="line"/>
      <point x="127" y="274" type="line"/>
      <point x="127" y="610" type="line"/>
    </contour>
    <contour>
      <point x="404" y="77" type="line"/>
      <point x="475" y="142" type="line"/>
      <point x="660" y="142" type="line" smooth="yes"/>
      <point x="670" y="151" type="line" smooth="yes"/>
      <point x="770" y="151" type="line"/>
      <point x="770" y="77" type="line"/>
    </contour>
    <contour>
      <point x="492" y="99" type="line"/>
      <point x="404" y="77" type="line"/>
      <point x="645" y="420" type="line"/>
      <point x="704" y="420" type="line"/>
      <point x="704" y="0" type="line"/>
      <point x="615" y="0" type="line"/>
      <point x="615" y="99" type="line" smooth="yes"/>
      <point x="623" y="105" type="line" smooth="yes"/>
      <point x="623" y="283" type="line"/>
    </contour>
  </outline>
</glyph>
<glyph name="onehalf" format="2">
  <advance width="870"/>
  <unicode hex="00BD"/>
  <outline>
    <contour>
      <point x="627" y="700" type="line"/>
      <point x="713" y="700" type="line"/>
      <point x="193" y="0" type="line"/>
      <point x="107" y="0" type="line"/>
    </contour>
    <contour>
      <point x="26" y="584" type="line"/>
      <point x="26" y="662" type="line"/>
      <point x="210" y="701" type="line"/>
      <point x="210" y="274" type="line"/>
      <point x="126" y="274" type="line"/>
      <point x="126" y="611" type="line"/>
    </contour>
    <contour>
      <point x="502" y="2" type="line"/>
      <point x="692" y="201" type="line" smooth="yes"/>
      <point x="724" y="235"/>
      <point x="743" y="261"/>
      <point x="743" y="295" type="curve" smooth="yes"/>
      <point x="743" y="325"/>
      <point x="723" y="355"/>
      <point x="681" y="355" type="curve" smooth="yes"/>
      <point x="637" y="355"/>
      <point x="608" y="321"/>
      <point x="608" y="270" type="curve"/>
      <point x="523" y="270" type="line"/>
      <point x="523" y="359"/>
      <point x="580" y="430"/>
      <point x="683" y="430" type="curve" smooth="yes"/>
      <point x="783" y="430"/>
      <point x="832" y="359"/>
      <point x="832" y="297" type="curve" smooth="yes"/>
      <point x="832" y="253"/>
      <point x="808" y="215"/>
      <point x="773" y="183" type="curve" smooth="yes"/>
      <point x="664" y="81" type="line"/>
      <point x="839" y="81" type="line"/>
      <point x="839" y="2" type="line"/>
    </contour>
  </outline>
</glyph>
<glyph name="threequarters" format="1">
  <advance width="861"/>
  <unicode hex="00BE"/>
  <outline>
    <contour>
      <point x="692" y="700" type="line"/>
      <point x="779" y="700" type="line"/>
      <point x="259" y="0" type="line"/>
      <point x="172" y="0" type="line"/>
    </contour>
    <contour>
      <point x="157" y="484" type="curve"/>
      <point x="157" y="526" type="line"/>
      <point x="206" y="526"/>
      <point x="237" y="555"/>
      <point x="237" y="588" type="curve" smooth="yes"/>
      <point x="237" y="617"/>
      <point x="220" y="637"/>
      <point x="185" y="637" type="curve" smooth="yes"/>
      <point x="151" y="637"/>
      <point x="126" y="615"/>
      <point x="126" y="583" type="curve"/>
      <point x="45" y="583" type="line"/>
      <point x="45" y="655"/>
      <point x="101" y="707"/>
      <point x="185" y="707" type="curve" smooth="yes"/>
      <point x="273" y="707"/>
      <point x="323" y="655"/>
      <point x="323" y="592" type="curve" smooth="yes"/>
      <point x="323" y="524"/>
      <point x="251" y="484"/>
    </contour>
    <contour>
      <point x="181" y="271" type="curve" smooth="yes"/>
      <point x="85" y="271"/>
      <point x="27" y="335"/>
      <point x="27" y="407" type="curve"/>
      <point x="113" y="407" type="line"/>
      <point x="113" y="366"/>
      <point x="144" y="343"/>
      <point x="183" y="343" type="curve" smooth="yes"/>
      <point x="222" y="343"/>
      <point x="249" y="363"/>
      <point x="249" y="402" type="curve" smooth="yes"/>
      <point x="249" y="442"/>
      <point x="216" y="467"/>
      <point x="157" y="467" type="curve"/>
      <point x="157" y="513" type="line"/>
      <point x="259" y="513"/>
      <point x="335" y="478"/>
      <point x="335" y="394" type="curve" smooth="yes"/>
      <point x="335" y="322"/>
      <point x="276" y="271"/>
    </contour>
    <contour>
      <point x="465" y="77" type="line"/>
      <point x="536" y="142" type="line"/>
      <point x="720" y="142" type="line" smooth="yes"/>
      <point x="730" y="151" type="line" smooth="yes"/>
      <point x="831" y="151" type="line"/>
      <point x="831" y="77" type="line"/>
    </contour>
    <contour>
      <point x="553" y="99" type="line"/>
      <point x="465" y="77" type="line"/>
      <point x="705" y="420" type="line"/>
      <point x="765" y="420" type="line"/>
      <point x="765" y="0" type="line"/>
      <point x="675" y="0" type="line"/>
      <point x="675" y="99" type="line" smooth="yes"/>
      <point x="683" y="105" type="line" smooth="yes"/>
      <point x="683" y="283" type="line"/>
    </contour>
  </outline>
</glyph>
<glyph name="questiondown" format="1">
  <advance width="606"/>
  <unicode hex="00BF"/>
  <outline>
    <contour>
      <point x="187" y="200" type="curve" smooth="yes"/>
      <point x="187" y="134"/>
      <point x="233" y="96"/>
      <point x="310" y="96" type="curve" smooth="yes"/>
      <point x="373" y="96"/>
      <point x="429" y="127"/>
      <point x="464" y="181" type="curve"/>
      <point x="555" y="110" type="line"/>
      <point x="491" y="31"/>
      <point x="419" y="-17"/>
      <point x="300" y="-17" type="curve" smooth="yes"/>
      <point x="171" y="-17"/>
      <point x="56" y="68"/>
      <point x="56" y="200" type="curve" smooth="yes"/>
      <point x="56" y="320"/>
      <point x="161" y="399"/>
      <point x="269" y="413" type="curve"/>
      <point x="275" y="508" type="line"/>
      <point x="379" y="508" type="line"/>
      <point x="399" y="331" type="line"/>
      <point x="368" y="331" type="line" smooth="yes"/>
      <point x="248" y="331"/>
      <point x="187" y="258"/>
    </contour>
    <contour>
      <point x="408" y="647" type="curve" smooth="yes"/>
      <point x="408" y="607"/>
      <point x="373" y="572"/>
      <point x="325" y="572" type="curve" smooth="yes"/>
      <point x="277" y="572"/>
      <point x="243" y="607"/>
      <point x="243" y="647" type="curve" smooth="yes"/>
      <point x="243" y="687"/>
      <point x="277" y="722"/>
      <point x="325" y="722" type="curve" smooth="yes"/>
      <point x="373" y="722"/>
      <point x="408" y="687"/>
    </contour>
  </outline>
</glyph>
<glyph name="Agrave" format="1">
  <advance width="712"/>
  <unicode hex="00C0"/>
  <outline>
    <contour>
      <point x="173" y="157" type="line"/>
      <point x="190" y="272" type="line"/>
      <point x="527" y="272" type="line"/>
      <point x="543" y="157" type="line"/>
    </contour>
    <contour>
      <point x="356" y="472" type="line"/>
      <point x="252" y="231" type="line"/>
      <point x="255" y="199" type="line"/>
      <point x="164" y="0" type="line"/>
      <point x="1" y="0" type="line"/>
      <point x="356" y="742" type="line"/>
      <point x="712" y="0" type="line"/>
      <point x="549" y="0" type="line"/>
      <point x="459" y="192" type="line"/>
      <point x="461" y="229" type="line"/>
    </contour>
    <contour>
      <point x="204" y="952" type="line"/>
      <point x="308" y="1000" type="line"/>
      <point x="458" y="840" type="line"/>
      <point x="384" y="802" type="line"/>
    </contour>
  </outline>
</glyph>
<glyph name="Acircumflex" format="1">
  <advance width="712"/>
  <unicode hex="00C2"/>
  <outline>
    <contour>
      <point x="173" y="157" type="line"/>
      <point x="190" y="272" type="line"/>
      <point x="527" y="272" type="line"/>
      <point x="543" y="157" type="line"/>
    </contour>
    <contour>
      <point x="356" y="472" type="line"/>
      <point x="252" y="231" type="line"/>
      <point x="255" y="199" type="line"/>
      <point x="164" y="0" type="line"/>
      <point x="1" y="0" type="line"/>
      <point x="356" y="742" type="line"/>
      <point x="712" y="0" type="line"/>
      <point x="549" y="0" type="line"/>
      <point x="459" y="192" type="line"/>
      <point x="461" y="229" type="line"/>
    </contour>
    <contour>
      <point x="356" y="868" type="line"/>
      <point x="260" y="779" type="line"/>
      <point x="170" y="841" type="line"/>
      <point x="356" y="981" type="line"/>
      <point x="543" y="841" type="line"/>
      <point x="453" y="779" type="line"/>
    </contour>
  </outline>
</glyph>
<glyph name="Atilde" format="2">
  <advance width="711"/>
  <unicode hex="00C3"/>
  <outline>
    <contour>
      <point x="173" y="158" type="line"/>
      <point x="190" y="272" type="line"/>
      <point x="526" y="272" type="line"/>
      <point x="543" y="158" type="line"/>
    </contour>
    <contour>
      <point x="356" y="473" type="line"/>
      <point x="252" y="232" type="line"/>
      <point x="255" y="200" type="line"/>
      <point x="163" y="0" type="line"/>
      <point x="1" y="0" type="line"/>
      <point x="356" y="741" type="line"/>
      <point x="711" y="0" type="line"/>
      <point x="549" y="0" type="line"/>
      <point x="459" y="193" type="line"/>
      <point x="461" y="229" type="line"/>
    </contour>
    <contour>
      <point x="169" y="847" type="line"/>
      <point x="179" y="896"/>
      <point x="226" y="938"/>
      <point x="284" y="938" type="curve" smooth="yes"/>
      <point x="350" y="938"/>
      <point x="361" y="887"/>
      <point x="417" y="887" type="curve" smooth="yes"/>
      <point x="440" y="887"/>
      <point x="459" y="907"/>
      <point x="479" y="939" type="curve"/>
      <point x="543" y="874" type="line"/>
      <point x="527" y="837"/>
      <point x="476" y="792"/>
      <point x="417" y="792" type="curve" smooth="yes"/>
      <point x="362" y="792"/>
      <point x="331" y="844"/>
      <point x="283" y="844" type="curve" smooth="yes"/>
      <point x="244" y="844"/>
      <point x="235" y="808"/>
      <point x="235" y="793" type="curve"/>
    </contour>
  </outline>
</glyph>
<glyph name="Adieresis" format="1">
  <advance width="712"/>
  <unicode hex="00C4"/>
  <outline>
    <contour>
      <point x="173" y="157" type="line"/>
      <point x="190" y="272" type="line"/>
      <point x="527" y="272" type="line"/>
      <point x="543" y="157" type="line"/>
    </contour>
    <contour>
      <point x="356" y="472" type="line"/>
      <point x="252" y="231" type="line"/>
      <point x="255" y="199" type="line"/>
      <point x="164" y="0" type="line"/>
      <point x="1" y="0" type="line"/>
      <point x="356" y="742" type="line"/>
      <point x="712" y="0" type="line"/>
      <point x="549" y="0" type="line"/>
      <point x="459" y="192" type="line"/>
      <point x="461" y="229" type="line"/>
    </contour>
    <contour>
      <point x="407" y="836" type="curve" smooth="yes"/>
      <point x="407" y="879"/>
      <point x="442" y="910"/>
      <point x="485" y="910" type="curve" smooth="yes"/>
      <point x="528" y="910"/>
      <point x="563" y="879"/>
      <point x="563" y="836" type="curve" smooth="yes"/>
      <point x="563" y="793"/>
      <point x="528" y="762"/>
      <point x="485" y="762" type="curve" smooth="yes"/>
      <point x="442" y="762"/>
      <point x="407" y="793"/>
    </contour>
    <contour>
      <point x="145" y="840" type="curve" smooth="yes"/>
      <point x="145" y="883"/>
      <point x="180" y="914"/>
      <point x="223" y="914" type="curve" smooth="yes"/>
      <point x="266" y="914"/>
      <point x="302" y="883"/>
      <point x="302" y="840" type="curve" smooth="yes"/>
      <point x="302" y="797"/>
      <point x="266" y="766"/>
      <point x="223" y="766" type="curve" smooth="yes"/>
      <point x="180" y="766"/>
      <point x="145" y="797"/>
    </contour>
  </outline>
</glyph>
<glyph name="Aring" format="1">
  <advance width="712"/>
  <unicode hex="00C5"/>
  <outline>
    <contour>
      <point x="173" y="157" type="line"/>
      <point x="190" y="272" type="line"/>
      <point x="527" y="272" type="line"/>
      <point x="543" y="157" type="line"/>
    </contour>
    <contour>
      <point x="356" y="472" type="line"/>
      <point x="252" y="231" type="line"/>
      <point x="255" y="199" type="line"/>
      <point x="164" y="0" type="line"/>
      <point x="1" y="0" type="line"/>
      <point x="356" y="742" type="line"/>
      <point x="712" y="0" type="line"/>
      <point x="549" y="0" type="line"/>
      <point x="459" y="192" type="line"/>
      <point x="461" y="229" type="line"/>
    </contour>
    <contour>
      <point x="238" y="800" type="curve" smooth="yes"/>
      <point x="238" y="866"/>
      <point x="292" y="911"/>
      <point x="356" y="911" type="curve" smooth="yes"/>
      <point x="420" y="911"/>
      <point x="475" y="866"/>
      <point x="475" y="800" type="curve" smooth="yes"/>
      <point x="475" y="734"/>
      <point x="420" y="689"/>
      <point x="356" y="689" type="curve" smooth="yes"/>
      <point x="292" y="689"/>
      <point x="238" y="734"/>
    </contour>
    <contour>
      <point x="308" y="800" type="curve" smooth="yes"/>
      <point x="308" y="769"/>
      <point x="331" y="751"/>
      <point x="356" y="751" type="curve" smooth="yes"/>
      <point x="381" y="751"/>
      <point x="404" y="769"/>
      <point x="404" y="800" type="curve" smooth="yes"/>
      <point x="404" y="831"/>
      <point x="381" y="849"/>
      <point x="356" y="849" type="curve" smooth="yes"/>
      <point x="331" y="849"/>
      <point x="308" y="831"/>
    </contour>
  </outline>
</glyph>
<glyph name="AE" format="1">
  <advance width="1048"/>
  <unicode hex="00C6"/>
  <outline>
    <contour>
      <point x="254" y="168" type="line"/>
      <point x="259" y="301" type="line"/>
      <point x="559" y="301" type="line"/>
      <point x="559" y="168" type="line"/>
    </contour>
    <contour>
      <point x="437" y="700" type="line"/>
      <point x="572" y="660" type="line"/>
      <point x="190" y="0" type="line"/>
      <point x="12" y="0" type="line"/>
    </contour>
    <contour>
      <point x="603" y="0" type="line"/>
      <point x="603" y="122" type="line"/>
      <point x="978" y="122" type="line"/>
      <point x="978" y="0" type="line"/>
    </contour>
    <contour>
      <point x="611" y="578" type="line"/>
      <point x="437" y="700" type="line"/>
      <point x="978" y="700" type="line"/>
      <point x="978" y="578" type="line"/>
    </contour>
    <contour>
      <point x="603" y="311" type="line"/>
      <point x="603" y="431" type="line"/>
      <point x="958" y="431" type="line"/>
      <point x="958" y="311" type="line"/>
    </contour>
    <contour>
      <point x="532" y="700" type="line"/>
      <point x="685" y="700" type="line"/>
      <point x="685" y="0" type="line"/>
      <point x="532" y="0" type="line"/>
    </contour>
  </outline>
</glyph>
<glyph name="Ccedilla" format="1">
  <advance width="696"/>
  <unicode hex="00C7"/>
  <outline>
    <contour>
      <point x="192" y="350" type="curve" smooth="yes"/>
      <point x="192" y="211"/>
      <point x="297" y="124"/>
      <point x="417" y="124" type="curve" smooth="yes"/>
      <point x="516" y="124"/>
      <point x="583" y="167"/>
      <point x="630" y="220" type="curve"/>
      <point x="630" y="58" type="line"/>
      <point x="573" y="12"/>
      <point x="512" y="-14"/>
      <point x="410" y="-14" type="curve" smooth="yes"/>
      <point x="194" y="-14"/>
      <point x="36" y="134"/>
      <point x="36" y="350" type="curve" smooth="yes"/>
      <point x="36" y="566"/>
      <point x="194" y="714"/>
      <point x="410" y="714" type="curve" smooth="yes"/>
      <point x="512" y="714"/>
      <point x="573" y="688"/>
      <point x="630" y="642" type="curve"/>
      <point x="630" y="480" type="line"/>
      <point x="583" y="533"/>
      <point x="516" y="576"/>
      <point x="417" y="576" type="curve" smooth="yes"/>
      <point x="297" y="576"/>
      <point x="192" y="489"/>
    </contour>
    <contour>
      <point x="365" y="51" type="line"/>
      <point x="460" y="49" type="line"/>
      <point x="381" y="-70" type="line"/>
      <point x="390" y="-68"/>
      <point x="399" y="-68"/>
      <point x="409" y="-68" type="curve" smooth="yes"/>
      <point x="447" y="-68"/>
      <point x="495" y="-97"/>
      <point x="495" y="-158" type="curve" smooth="yes"/>
      <point x="495" y="-227"/>
      <point x="432" y="-263"/>
      <point x="371" y="-263" type="curve" smooth="yes"/>
      <point x="321" y="-263"/>
      <point x="284" y="-253"/>
      <point x="243" y="-224" type="curve"/>
      <point x="285" y="-164" type="line"/>
      <point x="308" y="-182"/>
      <point x="335" y="-189"/>
      <point x="357" y="-189" type="curve" smooth="yes"/>
      <point x="391" y="-189"/>
      <point x="410" y="-176"/>
      <point x="410" y="-152" type="curve" smooth="yes"/>
      <point x="410" y="-126"/>
      <point x="384" y="-119"/>
      <point x="352" y="-119" type="curve" smooth="yes"/>
      <point x="342" y="-119"/>
      <point x="308" y="-121"/>
      <point x="277" y="-135" type="curve"/>
    </contour>
  </outline>
</glyph>
<glyph name="Egrave" format="1">
  <advance width="587"/>
  <unicode hex="00C8"/>
  <outline>
    <contour>
      <point x="169" y="0" type="line"/>
      <point x="169" y="122" type="line"/>
      <point x="522" y="122" type="line"/>
      <point x="522" y="0" type="line"/>
    </contour>
    <contour>
      <point x="169" y="578" type="line"/>
      <point x="169" y="700" type="line"/>
      <point x="522" y="700" type="line"/>
      <point x="522" y="578" type="line"/>
    </contour>
    <contour>
      <point x="169" y="311" type="line"/>
      <point x="169" y="431" type="line"/>
      <point x="502" y="431" type="line"/>
      <point x="502" y="311" type="line"/>
    </contour>
    <contour>
      <point x="76" y="700" type="line"/>
      <point x="216" y="700" type="line"/>
      <point x="216" y="0" type="line"/>
      <point x="76" y="0" type="line"/>
    </contour>
    <contour>
      <point x="146" y="929" type="line"/>
      <point x="250" y="978" type="line"/>
      <point x="400" y="818" type="line"/>
      <point x="326" y="779" type="line"/>
    </contour>
  </outline>
</glyph>
<glyph name="Eacute" format="1">
  <advance width="587"/>
  <unicode hex="00C9"/>
  <outline>
    <contour>
      <point x="169" y="0" type="line"/>
      <point x="169" y="122" type="line"/>
      <point x="522" y="122" type="line"/>
      <point x="522" y="0" type="line"/>
    </contour>
    <contour>
      <point x="169" y="578" type="line"/>
      <point x="169" y="700" type="line"/>
      <point x="522" y="700" type="line"/>
      <point x="522" y="578" type="line"/>
    </contour>
    <contour>
      <point x="169" y="311" type="line"/>
      <point x="169" y="431" type="line"/>
      <point x="502" y="431" type="line"/>
      <point x="502" y="311" type="line"/>
    </contour>
    <contour>
      <point x="76" y="700" type="line"/>
      <point x="216" y="700" type="line"/>
      <point x="216" y="0" type="line"/>
      <point x="76" y="0" type="line"/>
    </contour>
    <contour>
      <point x="449" y="929" type="line"/>
      <point x="269" y="779" type="line"/>
      <point x="195" y="818" type="line"/>
      <point x="345" y="978" type="line"/>
    </contour>
  </outline>
</glyph>
<glyph name="Ecircumflex" format="2">
  <advance width="586"/>
  <unicode hex="00CA"/>
  <outline>
    <contour>
      <point x="168" y="0" type="line"/>
      <point x="168" y="121" type="line"/>
      <point x="521" y="121" type="line"/>
      <point x="521" y="0" type="line"/>
    </contour>
    <contour>
      <point x="168" y="579" type="line"/>
      <point x="168" y="700" type="line"/>
      <point x="521" y="700" type="line"/>
      <point x="521" y="579" type="line"/>
    </contour>
    <contour>
      <point x="168" y="312" type="line"/>
      <point x="168" y="431" type="line"/>
      <point x="501" y="431" type="line"/>
      <point x="501" y="312" type="line"/>
    </contour>
    <contour>
      <point x="76" y="700" type="line"/>
      <point x="215" y="700" type="line"/>
      <point x="215" y="0" type="line"/>
      <point x="76" y="0" type="line"/>
    </contour>
    <contour>
      <point x="304" y="878" type="line"/>
      <point x="194" y="783" type="line"/>
      <point x="144" y="823" type="line"/>
      <point x="304" y="963" type="line"/>
      <point x="464" y="823" type="line"/>
      <point x="414" y="783" type="line"/>
    </contour>
  </outline>
</glyph>
<glyph name="Edieresis" format="2">
  <advance width="586"/>
  <unicode hex="00CB"/>
  <outline>
    <contour>
      <point x="168" y="0" type="line"/>
      <point x="168" y="121" type="line"/>
      <point x="521" y="121" type="line"/>
      <point x="521" y="0" type="line"/>
    </contour>
    <contour>
      <point x="168" y="579" type="line"/>
      <point x="168" y="700" type="line"/>
      <point x="521" y="700" type="line"/>
      <point x="521" y="579" type="line"/>
    </contour>
    <contour>
      <point x="168" y="312" type="line"/>
      <point x="168" y="431" type="line"/>
      <point x="501" y="431" type="line"/>
      <point x="501" y="312" type="line"/>
    </contour>
    <contour>
      <point x="76" y="700" type="line"/>
      <point x="215" y="700" type="line"/>
      <point x="215" y="0" type="line"/>
      <point x="76" y="0" type="line"/>
    </contour>
    <contour>
      <point x="341" y="859" type="curve" smooth="yes"/>
      <point x="341" y="902"/>
      <point x="376" y="933"/>
      <point x="419" y="933" type="curve" smooth="yes"/>
      <point x="462" y="933"/>
      <point x="497" y="902"/>
      <point x="497" y="859" type="curve" smooth="yes"/>
      <point x="497" y="816"/>
      <point x="462" y="786"/>
      <point x="419" y="786" type="curve" smooth="yes"/>
      <point x="376" y="786"/>
      <point x="341" y="816"/>
    </contour>
    <contour>
      <point x="111" y="859" type="curve" smooth="yes"/>
      <point x="111" y="902"/>
      <point x="146" y="933"/>
      <point x="189" y="933" type="curve" smooth="yes"/>
      <point x="232" y="933"/>
      <point x="267" y="902"/>
      <point x="267" y="859" type="curve" smooth="yes"/>
      <point x="267" y="816"/>
      <point x="232" y="786"/>
      <point x="189" y="786" type="curve" smooth="yes"/>
      <point x="146" y="786"/>
      <point x="111" y="816"/>
    </contour>
  </outline>
</glyph>
<glyph name="Igrave" format="1">
  <advance width="297"/>
  <unicode hex="00CC"/>
  <outline>
    <contour>
      <point x="76" y="700" type="line"/>
      <point x="222" y="700" type="line"/>
      <point x="222" y="0" type="line"/>
      <point x="76" y="0" type="line"/>
    </contour>
    <contour>
      <point x="-8" y="929" type="line"/>
      <point x="96" y="978" type="line"/>
      <point x="246" y="818" type="line"/>
      <point x="172" y="779" type="line"/>
    </contour>
  </outline>
</glyph>
<glyph name="Iacute" format="1">
  <advance width="297"/>
  <unicode hex="00CD"/>
  <outline>
    <contour>
      <point x="76" y="700" type="line"/>
      <point x="222" y="700" type="line"/>
      <point x="222" y="0" type="line"/>
      <point x="76" y="0" type="line"/>
    </contour>
    <contour>
      <point x="294" y="929" type="line"/>
      <point x="114" y="779" type="line"/>
      <point x="41" y="818" type="line"/>
      <point x="191" y="978" type="line"/>
    </contour>
  </outline>
</glyph>
<glyph name="Idieresis" format="1">
  <advance width="297"/>
  <unicode hex="00CF"/>
  <outline>
    <contour>
      <point x="76" y="700" type="line"/>
      <point x="222" y="700" type="line"/>
      <point x="222" y="0" type="line"/>
      <point x="76" y="0" type="line"/>
    </contour>
    <contour>
      <point x="186" y="848" type="curve" smooth="yes"/>
      <point x="186" y="891"/>
      <point x="221" y="922"/>
      <point x="264" y="922" type="curve" smooth="yes"/>
      <point x="307" y="922"/>
      <point x="343" y="891"/>
      <point x="343" y="848" type="curve" smooth="yes"/>
      <point x="343" y="805"/>
      <point x="307" y="774"/>
      <point x="264" y="774" type="curve" smooth="yes"/>
      <point x="221" y="774"/>
      <point x="186" y="805"/>
    </contour>
    <contour>
      <point x="-44" y="848" type="curve" smooth="yes"/>
      <point x="-44" y="891"/>
      <point x="-10" y="922"/>
      <point x="33" y="922" type="curve" smooth="yes"/>
      <point x="76" y="922"/>
      <point x="112" y="891"/>
      <point x="112" y="848" type="curve" smooth="yes"/>
      <point x="112" y="805"/>
      <point x="76" y="774"/>
      <point x="33" y="774" type="curve" smooth="yes"/>
      <point x="-10" y="774"/>
      <point x="-44" y="805"/>
    </contour>
  </outline>
</glyph>
<glyph name="Ntilde" format="1">
  <advance width="787"/>
  <unicode hex="00D1"/>
  <outline>
    <contour>
      <point x="573" y="700" type="line"/>
      <point x="712" y="700" type="line"/>
      <point x="712" y="-35" type="line"/>
      <point x="216" y="422.544" type="line"/>
      <point x="216" y="0" type="line"/>
      <point x="76" y="0" type="line"/>
      <point x="76" y="735" type="line"/>
      <point x="573" y="276.533" type="line"/>
    </contour>
    <contour>
      <point x="189" y="830" type="line"/>
      <point x="199" y="879"/>
      <point x="246" y="921"/>
      <point x="304" y="921" type="curve" smooth="yes"/>
      <point x="370" y="921"/>
      <point x="381" y="870"/>
      <point x="437" y="870" type="curve" smooth="yes"/>
      <point x="460" y="870"/>
      <point x="480" y="890"/>
      <point x="500" y="922" type="curve"/>
      <point x="563" y="857" type="line"/>
      <point x="547" y="820"/>
      <point x="497" y="775"/>
      <point x="438" y="775" type="curve" smooth="yes"/>
      <point x="383" y="775"/>
      <point x="351" y="826"/>
      <point x="303" y="826" type="curve" smooth="yes"/>
      <point x="264" y="826"/>
      <point x="256" y="790"/>
      <point x="256" y="775" type="curve"/>
    </contour>
  </outline>
</glyph>
<glyph name="Ograve" format="2">
  <advance width="811"/>
  <unicode hex="00D2"/>
  <outline>
    <contour>
      <point x="188" y="350" type="curve" smooth="yes"/>
      <point x="188" y="216"/>
      <point x="277" y="120"/>
      <point x="406" y="120" type="curve" smooth="yes"/>
      <point x="535" y="120"/>
      <point x="624" y="216"/>
      <point x="624" y="350" type="curve" smooth="yes"/>
      <point x="624" y="484"/>
      <point x="537" y="580"/>
      <point x="406" y="580" type="curve" smooth="yes"/>
      <point x="277" y="580"/>
      <point x="188" y="484"/>
    </contour>
    <contour>
      <point x="36" y="350" type="curve" smooth="yes"/>
      <point x="36" y="563"/>
      <point x="196" y="714"/>
      <point x="406" y="714" type="curve" smooth="yes"/>
      <point x="619" y="714"/>
      <point x="776" y="563"/>
      <point x="776" y="350" type="curve" smooth="yes"/>
      <point x="776" y="137"/>
      <point x="621" y="-19"/>
      <point x="406" y="-19" type="curve" smooth="yes"/>
      <point x="191" y="-19"/>
      <point x="36" y="137"/>
    </contour>
    <contour>
      <point x="266" y="929" type="line"/>
      <point x="369" y="977" type="line"/>
      <point x="519" y="817" type="line"/>
      <point x="446" y="779" type="line"/>
    </contour>
  </outline>
</glyph>
<glyph name="Oacute" format="1">
  <advance width="812"/>
  <unicode hex="00D3"/>
  <outline>
    <contour>
      <point x="189" y="350" type="curve" smooth="yes"/>
      <point x="189" y="216"/>
      <point x="277" y="120"/>
      <point x="406" y="120" type="curve" smooth="yes"/>
      <point x="535" y="120"/>
      <point x="623" y="216"/>
      <point x="623" y="350" type="curve" smooth="yes"/>
      <point x="623" y="484"/>
      <point x="537" y="580"/>
      <point x="406" y="580" type="curve" smooth="yes"/>
      <point x="277" y="580"/>
      <point x="189" y="484"/>
    </contour>
    <contour>
      <point x="36" y="350" type="curve" smooth="yes"/>
      <point x="36" y="563"/>
      <point x="195" y="714"/>
      <point x="406" y="714" type="curve" smooth="yes"/>
      <point x="619" y="714"/>
      <point x="776" y="563"/>
      <point x="776" y="350" type="curve" smooth="yes"/>
      <point x="776" y="137"/>
      <point x="621" y="-19"/>
      <point x="406" y="-19" type="curve" smooth="yes"/>
      <point x="191" y="-19"/>
      <point x="36" y="137"/>
    </contour>
    <contour>
      <point x="557" y="929" type="line"/>
      <point x="377" y="779" type="line"/>
      <point x="303" y="818" type="line"/>
      <point x="453" y="978" type="line"/>
    </contour>
  </outline>
</glyph>
<glyph name="Ocircumflex" format="1">
  <advance width="812"/>
  <unicode hex="00D4"/>
  <outline>
    <contour>
      <point x="189" y="350" type="curve" smooth="yes"/>
      <point x="189" y="216"/>
      <point x="277" y="120"/>
      <point x="406" y="120" type="curve" smooth="yes"/>
      <point x="535" y="120"/>
      <point x="623" y="216"/>
      <point x="623" y="350" type="curve" smooth="yes"/>
      <point x="623" y="484"/>
      <point x="537" y="580"/>
      <point x="406" y="580" type="curve" smooth="yes"/>
      <point x="277" y="580"/>
      <point x="189" y="484"/>
    </contour>
    <contour>
      <point x="36" y="350" type="curve" smooth="yes"/>
      <point x="36" y="563"/>
      <point x="195" y="714"/>
      <point x="406" y="714" type="curve" smooth="yes"/>
      <point x="619" y="714"/>
      <point x="776" y="563"/>
      <point x="776" y="350" type="curve" smooth="yes"/>
      <point x="776" y="137"/>
      <point x="621" y="-19"/>
      <point x="406" y="-19" type="curve" smooth="yes"/>
      <point x="191" y="-19"/>
      <point x="36" y="137"/>
    </contour>
    <contour>
      <point x="413" y="878" type="line"/>
      <point x="303" y="783" type="line"/>
      <point x="253" y="823" type="line"/>
      <point x="413" y="963" type="line"/>
      <point x="573" y="823" type="line"/>
      <point x="523" y="783" type="line"/>
    </contour>
  </outline>
</glyph>
<glyph name="Otilde" format="1">
  <advance width="812"/>
  <unicode hex="00D5"/>
  <outline>
    <contour>
      <point x="189" y="350" type="curve" smooth="yes"/>
      <point x="189" y="216"/>
      <point x="277" y="120"/>
      <point x="406" y="120" type="curve" smooth="yes"/>
      <point x="535" y="120"/>
      <point x="623" y="216"/>
      <point x="623" y="350" type="curve" smooth="yes"/>
      <point x="623" y="484"/>
      <point x="537" y="580"/>
      <point x="406" y="580" type="curve" smooth="yes"/>
      <point x="277" y="580"/>
      <point x="189" y="484"/>
    </contour>
    <contour>
      <point x="36" y="350" type="curve" smooth="yes"/>
      <point x="36" y="563"/>
      <point x="195" y="714"/>
      <point x="406" y="714" type="curve" smooth="yes"/>
      <point x="619" y="714"/>
      <point x="776" y="563"/>
      <point x="776" y="350" type="curve" smooth="yes"/>
      <point x="776" y="137"/>
      <point x="621" y="-19"/>
      <point x="406" y="-19" type="curve" smooth="yes"/>
      <point x="191" y="-19"/>
      <point x="36" y="137"/>
    </contour>
    <contour>
      <point x="243" y="832" type="line"/>
      <point x="253" y="881"/>
      <point x="302" y="914"/>
      <point x="347" y="914" type="curve" smooth="yes"/>
      <point x="412" y="914"/>
      <point x="417" y="867"/>
      <point x="471" y="867" type="curve" smooth="yes"/>
      <point x="490" y="867"/>
      <point x="507" y="883"/>
      <point x="527" y="915" type="curve"/>
      <point x="573" y="872" type="line"/>
      <point x="557" y="835"/>
      <point x="517" y="799"/>
      <point x="467" y="799" type="curve" smooth="yes"/>
      <point x="412" y="799"/>
      <point x="391" y="846"/>
      <point x="346" y="846" type="curve" smooth="yes"/>
      <point x="305" y="846"/>
      <point x="296" y="810"/>
      <point x="296" y="795" type="curve"/>
    </contour>
  </outline>
</glyph>
<glyph name="Uacute" format="1">
  <advance width="678"/>
  <unicode hex="00DA"/>
  <outline>
    <contour>
      <point x="71" y="700" type="line"/>
      <point x="215" y="700" type="line"/>
      <point x="215" y="239" type="line" smooth="yes"/>
      <point x="215" y="161"/>
      <point x="257" y="107"/>
      <point x="339" y="107" type="curve" smooth="yes"/>
      <point x="421" y="107"/>
      <point x="464" y="161"/>
      <point x="464" y="239" type="curve" smooth="yes"/>
      <point x="464" y="700" type="line"/>
      <point x="608" y="700" type="line"/>
      <point x="608" y="230" type="line" smooth="yes"/>
      <point x="608" y="65"/>
      <point x="493" y="-23"/>
      <point x="339" y="-23" type="curve" smooth="yes"/>
      <point x="185" y="-23"/>
      <point x="71" y="65"/>
      <point x="71" y="230" type="curve" smooth="yes"/>
    </contour>
    <contour>
      <point x="491" y="924" type="line"/>
      <point x="311" y="774" type="line"/>
      <point x="238" y="813" type="line"/>
      <point x="388" y="973" type="line"/>
    </contour>
  </outline>
</glyph>
<glyph name="Udieresis" format="1">
  <advance width="678"/>
  <unicode hex="00DC"/>
  <outline>
    <contour>
      <point x="71" y="700" type="line"/>
      <point x="215" y="700" type="line"/>
      <point x="215" y="239" type="line" smooth="yes"/>
      <point x="215" y="161"/>
      <point x="257" y="107"/>
      <point x="339" y="107" type="curve" smooth="yes"/>
      <point x="421" y="107"/>
      <point x="464" y="161"/>
      <point x="464" y="239" type="curve" smooth="yes"/>
      <point x="464" y="700" type="line"/>
      <point x="608" y="700" type="line"/>
      <point x="608" y="230" type="line" smooth="yes"/>
      <point x="608" y="65"/>
      <point x="493" y="-23"/>
      <point x="339" y="-23" type="curve" smooth="yes"/>
      <point x="185" y="-23"/>
      <point x="71" y="65"/>
      <point x="71" y="230" type="curve" smooth="yes"/>
    </contour>
    <contour>
      <point x="390" y="848" type="curve" smooth="yes"/>
      <point x="390" y="891"/>
      <point x="425" y="922"/>
      <point x="468" y="922" type="curve" smooth="yes"/>
      <point x="511" y="922"/>
      <point x="546" y="891"/>
      <point x="546" y="848" type="curve" smooth="yes"/>
      <point x="546" y="805"/>
      <point x="511" y="774"/>
      <point x="468" y="774" type="curve" smooth="yes"/>
      <point x="425" y="774"/>
      <point x="390" y="805"/>
    </contour>
    <contour>
      <point x="132" y="848" type="curve" smooth="yes"/>
      <point x="132" y="891"/>
      <point x="168" y="922"/>
      <point x="211" y="922" type="curve" smooth="yes"/>
      <point x="254" y="922"/>
      <point x="289" y="891"/>
      <point x="289" y="848" type="curve" smooth="yes"/>
      <point x="289" y="805"/>
      <point x="254" y="774"/>
      <point x="211" y="774" type="curve" smooth="yes"/>
      <point x="168" y="774"/>
      <point x="132" y="805"/>
    </contour>
  </outline>
</glyph>
<glyph name="Yacute" format="1">
  <advance width="630"/>
  <unicode hex="00DD"/>
  <outline>
    <contour>
      <point x="467" y="924" type="line"/>
      <point x="287" y="774" type="line"/>
      <point x="214" y="813" type="line"/>
      <point x="364" y="973" type="line"/>
    </contour>
    <contour>
      <point x="465" y="700" type="line"/>
      <point x="630" y="700" type="line"/>
      <point x="389" y="290" type="line"/>
      <point x="389" y="0" type="line"/>
      <point x="242" y="0" type="line"/>
      <point x="242" y="289" type="line"/>
      <point x="1" y="700" type="line"/>
      <point x="166" y="700" type="line"/>
      <point x="315" y="419" type="line"/>
    </contour>
  </outline>
</glyph>
<glyph name="Thorn" format="1">
  <advance width="594"/>
  <unicode hex="00DE"/>
  <outline>
    <contour>
      <point x="80" y="700" type="line"/>
      <point x="209" y="700" type="line"/>
      <point x="209" y="0" type="line"/>
      <point x="80" y="0" type="line"/>
    </contour>
    <contour>
      <point x="160" y="456" type="line"/>
      <point x="160" y="573" type="line"/>
      <point x="299" y="573" type="line" smooth="yes"/>
      <point x="465" y="573"/>
      <point x="561" y="490"/>
      <point x="561" y="352" type="curve" smooth="yes"/>
      <point x="561" y="214"/>
      <point x="465" y="131"/>
      <point x="299" y="131" type="curve" smooth="yes"/>
      <point x="160" y="131" type="line"/>
      <point x="160" y="249" type="line"/>
      <point x="299" y="249" type="line" smooth="yes"/>
      <point x="380" y="249"/>
      <point x="430" y="279"/>
      <point x="430" y="352" type="curve" smooth="yes"/>
      <point x="430" y="425"/>
      <point x="380" y="456"/>
      <point x="299" y="456" type="curve" smooth="yes"/>
    </contour>
  </outline>
</glyph>
<glyph name="germandbls" format="1">
  <advance width="585"/>
  <unicode hex="00DF"/>
  <outline>
    <contour>
      <point x="279" y="109" type="line"/>
      <point x="359" y="109"/>
      <point x="424" y="164"/>
      <point x="424" y="248" type="curve" smooth="yes"/>
      <point x="424" y="316"/>
      <point x="373" y="379"/>
      <point x="263" y="379" type="curve"/>
      <point x="263" y="469" type="line"/>
      <point x="427" y="469"/>
      <point x="556" y="373"/>
      <point x="556" y="225" type="curve" smooth="yes"/>
      <point x="556" y="77"/>
      <point x="440" y="-10"/>
      <point x="279" y="-10" type="curve"/>
    </contour>
    <contour>
      <point x="263" y="416" type="curve"/>
      <point x="263" y="498" type="line"/>
      <point x="355" y="498"/>
      <point x="384" y="540"/>
      <point x="384" y="587" type="curve" smooth="yes"/>
      <point x="384" y="640"/>
      <point x="352" y="675"/>
      <point x="284" y="675" type="curve" smooth="yes"/>
      <point x="228" y="675"/>
      <point x="189" y="647"/>
      <point x="189" y="593" type="curve" smooth="yes"/>
      <point x="189" y="0" type="line"/>
      <point x="62" y="0" type="line"/>
      <point x="62" y="606" type="line" smooth="yes"/>
      <point x="62" y="724"/>
      <point x="166" y="794"/>
      <point x="284" y="794" type="curve" smooth="yes"/>
      <point x="432" y="794"/>
      <point x="511" y="715"/>
      <point x="511" y="606" type="curve" smooth="yes"/>
      <point x="511" y="487"/>
      <point x="427" y="416"/>
    </contour>
  </outline>
</glyph>
<glyph name="atilde" format="2">
  <advance width="526"/>
  <unicode hex="00E3"/>
  <outline>
    <contour>
      <point x="156" y="137" type="curve" smooth="yes"/>
      <point x="156" y="99"/>
      <point x="185" y="80"/>
      <point x="232" y="80" type="curve" smooth="yes"/>
      <point x="295" y="80"/>
      <point x="345" y="107"/>
      <point x="345" y="184" type="curve"/>
      <point x="361" y="130" type="line"/>
      <point x="361" y="41"/>
      <point x="285" y="-10"/>
      <point x="190" y="-10" type="curve" smooth="yes"/>
      <point x="91" y="-10"/>
      <point x="26" y="41"/>
      <point x="26" y="127" type="curve" smooth="yes"/>
      <point x="26" y="225"/>
      <point x="109" y="281"/>
      <point x="224" y="281" type="curve" smooth="yes"/>
      <point x="299" y="281"/>
      <point x="360" y="248"/>
      <point x="378" y="228" type="curve"/>
      <point x="378" y="165" type="line"/>
      <point x="340" y="193"/>
      <point x="303" y="206"/>
      <point x="249" y="206" type="curve" smooth="yes"/>
      <point x="188" y="206"/>
      <point x="156" y="179"/>
    </contour>
    <contour>
      <point x="115" y="329" type="curve"/>
      <point x="68" y="418" type="line"/>
      <point x="115" y="443"/>
      <point x="184" y="472"/>
      <point x="267" y="472" type="curve" smooth="yes"/>
      <point x="385" y="472"/>
      <point x="470" y="419"/>
      <point x="470" y="326" type="curve" smooth="yes"/>
      <point x="470" y="0" type="line"/>
      <point x="345" y="0" type="line"/>
      <point x="345" y="305" type="line" smooth="yes"/>
      <point x="345" y="346"/>
      <point x="309" y="371"/>
      <point x="259" y="371" type="curve" smooth="yes"/>
      <point x="193" y="371"/>
      <point x="137" y="343"/>
    </contour>
    <contour>
      <point x="81" y="589" type="line"/>
      <point x="91" y="638"/>
      <point x="138" y="680"/>
      <point x="196" y="680" type="curve" smooth="yes"/>
      <point x="262" y="680"/>
      <point x="272" y="629"/>
      <point x="328" y="629" type="curve" smooth="yes"/>
      <point x="351" y="629"/>
      <point x="371" y="649"/>
      <point x="391" y="681" type="curve"/>
      <point x="454" y="616" type="line"/>
      <point x="438" y="579"/>
      <point x="388" y="534"/>
      <point x="329" y="534" type="curve" smooth="yes"/>
      <point x="274" y="534"/>
      <point x="243" y="586"/>
      <point x="195" y="586" type="curve" smooth="yes"/>
      <point x="156" y="586"/>
      <point x="147" y="550"/>
      <point x="147" y="535" type="curve"/>
    </contour>
  </outline>
</glyph>
<glyph name="adieresis" format="1">
  <advance width="526"/>
  <unicode hex="00E4"/>
  <outline>
    <contour>
      <point x="157" y="137" type="curve" smooth="yes"/>
      <point x="157" y="99"/>
      <point x="185" y="81"/>
      <point x="232" y="81" type="curve" smooth="yes"/>
      <point x="294" y="81"/>
      <point x="345" y="107"/>
      <point x="345" y="184" type="curve"/>
      <point x="361" y="130" type="line"/>
      <point x="361" y="41"/>
      <point x="285" y="-10"/>
      <point x="190" y="-10" type="curve" smooth="yes"/>
      <point x="91" y="-10"/>
      <point x="26" y="41"/>
      <point x="26" y="127" type="curve" smooth="yes"/>
      <point x="26" y="225"/>
      <point x="109" y="281"/>
      <point x="224" y="281" type="curve" smooth="yes"/>
      <point x="299" y="281"/>
      <point x="360" y="249"/>
      <point x="378" y="229" type="curve"/>
      <point x="378" y="164" type="line"/>
      <point x="340" y="192"/>
      <point x="304" y="205"/>
      <point x="250" y="205" type="curve" smooth="yes"/>
      <point x="190" y="205"/>
      <point x="157" y="179"/>
    </contour>
    <contour>
      <point x="115" y="328" type="curve"/>
      <point x="68" y="418" type="line"/>
      <point x="115" y="443"/>
      <point x="185" y="472"/>
      <point x="268" y="472" type="curve" smooth="yes"/>
      <point x="386" y="472"/>
      <point x="471" y="419"/>
      <point x="471" y="326" type="curve" smooth="yes"/>
      <point x="471" y="0" type="line"/>
      <point x="345" y="0" type="line"/>
      <point x="345" y="304" type="line" smooth="yes"/>
      <point x="345" y="345"/>
      <point x="309" y="371"/>
      <point x="259" y="371" type="curve" smooth="yes"/>
      <point x="193" y="371"/>
      <point x="137" y="342"/>
    </contour>
    <contour>
      <point x="305" y="606" type="curve" smooth="yes"/>
      <point x="305" y="649"/>
      <point x="340" y="680"/>
      <point x="383" y="680" type="curve" smooth="yes"/>
      <point x="426" y="680"/>
      <point x="462" y="649"/>
      <point x="462" y="606" type="curve" smooth="yes"/>
      <point x="462" y="563"/>
      <point x="426" y="532"/>
      <point x="383" y="532" type="curve" smooth="yes"/>
      <point x="340" y="532"/>
      <point x="305" y="563"/>
    </contour>
    <contour>
      <point x="74" y="606" type="curve" smooth="yes"/>
      <point x="74" y="649"/>
      <point x="109" y="680"/>
      <point x="152" y="680" type="curve" smooth="yes"/>
      <point x="195" y="680"/>
      <point x="231" y="649"/>
      <point x="231" y="606" type="curve" smooth="yes"/>
      <point x="231" y="563"/>
      <point x="195" y="532"/>
      <point x="152" y="532" type="curve" smooth="yes"/>
      <point x="109" y="532"/>
      <point x="74" y="563"/>
    </contour>
  </outline>
</glyph>
<glyph name="aring" format="1">
  <advance width="526"/>
  <unicode hex="00E5"/>
  <outline>
    <contour>
      <point x="157" y="137" type="curve" smooth="yes"/>
      <point x="157" y="99"/>
      <point x="185" y="81"/>
      <point x="232" y="81" type="curve" smooth="yes"/>
      <point x="294" y="81"/>
      <point x="345" y="107"/>
      <point x="345" y="184" type="curve"/>
      <point x="361" y="130" type="line"/>
      <point x="361" y="41"/>
      <point x="285" y="-10"/>
      <point x="190" y="-10" type="curve" smooth="yes"/>
      <point x="91" y="-10"/>
      <point x="26" y="41"/>
      <point x="26" y="127" type="curve" smooth="yes"/>
      <point x="26" y="225"/>
      <point x="109" y="281"/>
      <point x="224" y="281" type="curve" smooth="yes"/>
      <point x="299" y="281"/>
      <point x="360" y="249"/>
      <point x="378" y="229" type="curve"/>
      <point x="378" y="164" type="line"/>
      <point x="340" y="192"/>
      <point x="304" y="205"/>
      <point x="250" y="205" type="curve" smooth="yes"/>
      <point x="190" y="205"/>
      <point x="157" y="179"/>
    </contour>
    <contour>
      <point x="115" y="328" type="curve"/>
      <point x="68" y="418" type="line"/>
      <point x="115" y="443"/>
      <point x="185" y="472"/>
      <point x="268" y="472" type="curve" smooth="yes"/>
      <point x="386" y="472"/>
      <point x="471" y="419"/>
      <point x="471" y="326" type="curve" smooth="yes"/>
      <point x="471" y="0" type="line"/>
      <point x="345" y="0" type="line"/>
      <point x="345" y="304" type="line" smooth="yes"/>
      <point x="345" y="345"/>
      <point x="309" y="371"/>
      <point x="259" y="371" type="curve" smooth="yes"/>
      <point x="193" y="371"/>
      <point x="137" y="342"/>
    </contour>
    <contour>
      <point x="150" y="643" type="curve" smooth="yes"/>
      <point x="150" y="709"/>
      <point x="203" y="754"/>
      <point x="267" y="754" type="curve" smooth="yes"/>
      <point x="331" y="754"/>
      <point x="386" y="709"/>
      <point x="386" y="643" type="curve" smooth="yes"/>
      <point x="386" y="577"/>
      <point x="331" y="532"/>
      <point x="267" y="532" type="curve" smooth="yes"/>
      <point x="203" y="532"/>
      <point x="150" y="577"/>
    </contour>
    <contour>
      <point x="220" y="643" type="curve" smooth="yes"/>
      <point x="220" y="612"/>
      <point x="242" y="594"/>
      <point x="267" y="594" type="curve" smooth="yes"/>
      <point x="292" y="594"/>
      <point x="315" y="612"/>
      <point x="315" y="643" type="curve" smooth="yes"/>
      <point x="315" y="674"/>
      <point x="292" y="693"/>
      <point x="267" y="693" type="curve" smooth="yes"/>
      <point x="242" y="693"/>
      <point x="220" y="674"/>
    </contour>
  </outline>
</glyph>
<glyph name="ae" format="1">
  <advance width="875"/>
  <unicode hex="00E6"/>
  <outline>
    <contour>
      <point x="157" y="137" type="curve" smooth="yes"/>
      <point x="157" y="99"/>
      <point x="185" y="81"/>
      <point x="232" y="81" type="curve" smooth="yes"/>
      <point x="294" y="81"/>
      <point x="345" y="107"/>
      <point x="345" y="184" type="curve"/>
      <point x="409" y="130" type="line"/>
      <point x="409" y="41"/>
      <point x="332" y="-10"/>
      <point x="215" y="-10" type="curve" smooth="yes"/>
      <point x="96" y="-10"/>
      <point x="26" y="41"/>
      <point x="26" y="127" type="curve" smooth="yes"/>
      <point x="26" y="225"/>
      <point x="109" y="281"/>
      <point x="224" y="281" type="curve" smooth="yes"/>
      <point x="299" y="281"/>
      <point x="360" y="249"/>
      <point x="378" y="229" type="curve"/>
      <point x="378" y="164" type="line"/>
      <point x="340" y="192"/>
      <point x="304" y="205"/>
      <point x="250" y="205" type="curve" smooth="yes"/>
      <point x="190" y="205"/>
      <point x="157" y="179"/>
    </contour>
    <contour>
      <point x="115" y="328" type="curve"/>
      <point x="68" y="418" type="line"/>
      <point x="115" y="443"/>
      <point x="185" y="472"/>
      <point x="268" y="472" type="curve" smooth="yes"/>
      <point x="386" y="472"/>
      <point x="429" y="419"/>
      <point x="429" y="326" type="curve" smooth="yes"/>
      <point x="429" y="130" type="line"/>
      <point x="345" y="130" type="line"/>
      <point x="345" y="299" type="line" smooth="yes"/>
      <point x="345" y="340"/>
      <point x="309" y="371"/>
      <point x="259" y="371" type="curve" smooth="yes"/>
      <point x="193" y="371"/>
      <point x="137" y="342"/>
    </contour>
    <contour>
      <point x="415" y="201" type="line"/>
      <point x="415" y="281" type="line"/>
      <point x="822" y="281" type="line"/>
      <point x="839" y="201" type="line"/>
    </contour>
    <contour>
      <point x="703" y="246" type="line" smooth="yes"/>
      <point x="703" y="328"/>
      <point x="671" y="378"/>
      <point x="599" y="378" type="curve" smooth="yes"/>
      <point x="532" y="378"/>
      <point x="485" y="333"/>
      <point x="485" y="256" type="curve"/>
      <point x="483" y="230" type="line"/>
      <point x="483" y="133"/>
      <point x="534" y="89"/>
      <point x="602" y="89" type="curve" smooth="yes"/>
      <point x="660" y="89"/>
      <point x="700" y="114"/>
      <point x="724" y="155" type="curve"/>
      <point x="839" y="120" type="line"/>
      <point x="793" y="41"/>
      <point x="728" y="-10"/>
      <point x="600" y="-10" type="curve" smooth="yes"/>
      <point x="444" y="-10"/>
      <point x="379" y="91"/>
      <point x="379" y="230" type="curve" smooth="yes"/>
      <point x="379" y="247"/>
      <point x="386" y="263"/>
      <point x="389" y="279" type="curve" smooth="yes"/>
      <point x="408" y="392"/>
      <point x="488" y="470"/>
      <point x="620" y="470" type="curve" smooth="yes"/>
      <point x="748" y="470"/>
      <point x="841" y="381"/>
      <point x="841" y="236" type="curve" smooth="yes"/>
      <point x="841" y="228"/>
      <point x="840" y="215"/>
      <point x="839" y="201" type="curve"/>
      <point x="703" y="221" type="line"/>
    </contour>
  </outline>
</glyph>
<glyph name="ccedilla" format="1">
  <advance width="489"/>
  <unicode hex="00E7"/>
  <outline>
    <contour>
      <point x="164" y="230" type="curve" smooth="yes"/>
      <point x="164" y="149"/>
      <point x="222" y="97"/>
      <point x="297" y="97" type="curve" smooth="yes"/>
      <point x="358" y="97"/>
      <point x="414" y="126"/>
      <point x="439" y="170" type="curve"/>
      <point x="439" y="37" type="line"/>
      <point x="407" y="8"/>
      <point x="355" y="-10"/>
      <point x="288" y="-10" type="curve" smooth="yes"/>
      <point x="140" y="-10"/>
      <point x="30" y="87"/>
      <point x="30" y="230" type="curve" smooth="yes"/>
      <point x="30" y="373"/>
      <point x="140" y="470"/>
      <point x="288" y="470" type="curve" smooth="yes"/>
      <point x="355" y="470"/>
      <point x="407" y="451"/>
      <point x="439" y="424" type="curve"/>
      <point x="439" y="290" type="line"/>
      <point x="414" y="334"/>
      <point x="353" y="363"/>
      <point x="297" y="363" type="curve" smooth="yes"/>
      <point x="222" y="363"/>
      <point x="164" y="306"/>
    </contour>
    <contour>
      <point x="243" y="60" type="line"/>
      <point x="339" y="58" type="line"/>
      <point x="259" y="-61" type="line"/>
      <point x="268" y="-59"/>
      <point x="278" y="-59"/>
      <point x="288" y="-59" type="curve" smooth="yes"/>
      <point x="326" y="-59"/>
      <point x="373" y="-88"/>
      <point x="373" y="-149" type="curve" smooth="yes"/>
      <point x="373" y="-218"/>
      <point x="311" y="-254"/>
      <point x="250" y="-254" type="curve" smooth="yes"/>
      <point x="200" y="-254"/>
      <point x="163" y="-244"/>
      <point x="122" y="-215" type="curve"/>
      <point x="164" y="-155" type="line"/>
      <point x="187" y="-173"/>
      <point x="214" y="-180"/>
      <point x="236" y="-180" type="curve" smooth="yes"/>
      <point x="270" y="-180"/>
      <point x="289" y="-167"/>
      <point x="289" y="-143" type="curve" smooth="yes"/>
      <point x="289" y="-117"/>
      <point x="263" y="-110"/>
      <point x="231" y="-110" type="curve" smooth="yes"/>
      <point x="221" y="-110"/>
      <point x="187" y="-113"/>
      <point x="156" y="-127" type="curve"/>
    </contour>
  </outline>
</glyph>
<glyph name="eacute" format="2">
  <advance width="555"/>
  <unicode hex="00E9"/>
  <outline>
    <contour>
      <point x="108" y="201" type="line"/>
      <point x="108" y="281" type="line"/>
      <point x="382" y="281" type="line"/>
      <point x="375" y="341"/>
      <point x="342" y="378"/>
      <point x="280" y="378" type="curve" smooth="yes"/>
      <point x="213" y="378"/>
      <point x="166" y="333"/>
      <point x="166" y="256" type="curve"/>
      <point x="164" y="230" type="line"/>
      <point x="164" y="133"/>
      <point x="214" y="89"/>
      <point x="282" y="89" type="curve" smooth="yes"/>
      <point x="340" y="89"/>
      <point x="381" y="114"/>
      <point x="406" y="155" type="curve"/>
      <point x="520" y="120" type="line"/>
      <point x="474" y="41"/>
      <point x="409" y="-10"/>
      <point x="281" y="-10" type="curve" smooth="yes"/>
      <point x="126" y="-10"/>
      <point x="33" y="91"/>
      <point x="33" y="230" type="curve" smooth="yes"/>
      <point x="33" y="247"/>
      <point x="34" y="263"/>
      <point x="37" y="279" type="curve" smooth="yes"/>
      <point x="56" y="392"/>
      <point x="141" y="470"/>
      <point x="282" y="470" type="curve" smooth="yes"/>
      <point x="434" y="470"/>
      <point x="521" y="381"/>
      <point x="521" y="236" type="curve" smooth="yes"/>
      <point x="521" y="228"/>
      <point x="521" y="215"/>
      <point x="520" y="201" type="curve"/>
    </contour>
    <contour>
      <point x="451" y="686" type="line"/>
      <point x="271" y="536" type="line"/>
      <point x="198" y="575" type="line"/>
      <point x="348" y="735" type="line"/>
    </contour>
  </outline>
</glyph>
<glyph name="edieresis" format="1">
  <advance width="556"/>
  <unicode hex="00EB"/>
  <outline>
    <contour>
      <point x="108" y="201" type="line"/>
      <point x="108" y="281" type="line"/>
      <point x="382" y="281" type="line"/>
      <point x="375" y="341"/>
      <point x="343" y="378"/>
      <point x="281" y="378" type="curve" smooth="yes"/>
      <point x="214" y="378"/>
      <point x="166" y="333"/>
      <point x="166" y="256" type="curve"/>
      <point x="164" y="230" type="line"/>
      <point x="164" y="133"/>
      <point x="215" y="89"/>
      <point x="283" y="89" type="curve" smooth="yes"/>
      <point x="341" y="89"/>
      <point x="382" y="114"/>
      <point x="406" y="155" type="curve"/>
      <point x="520" y="120" type="line"/>
      <point x="474" y="41"/>
      <point x="410" y="-10"/>
      <point x="282" y="-10" type="curve" smooth="yes"/>
      <point x="126" y="-10"/>
      <point x="33" y="91"/>
      <point x="33" y="230" type="curve" smooth="yes"/>
      <point x="33" y="247"/>
      <point x="34" y="263"/>
      <point x="37" y="279" type="curve" smooth="yes"/>
      <point x="56" y="392"/>
      <point x="142" y="470"/>
      <point x="283" y="470" type="curve" smooth="yes"/>
      <point x="435" y="470"/>
      <point x="522" y="381"/>
      <point x="522" y="236" type="curve" smooth="yes"/>
      <point x="522" y="228"/>
      <point x="521" y="215"/>
      <point x="520" y="201" type="curve"/>
    </contour>
    <contour>
      <point x="320" y="604" type="curve" smooth="yes"/>
      <point x="320" y="647"/>
      <point x="355" y="678"/>
      <point x="398" y="678" type="curve" smooth="yes"/>
      <point x="441" y="678"/>
      <point x="477" y="647"/>
      <point x="477" y="604" type="curve" smooth="yes"/>
      <point x="477" y="561"/>
      <point x="441" y="530"/>
      <point x="398" y="530" type="curve" smooth="yes"/>
      <point x="355" y="530"/>
      <point x="320" y="561"/>
    </contour>
    <contour>
      <point x="89" y="604" type="curve" smooth="yes"/>
      <point x="89" y="647"/>
      <point x="124" y="678"/>
      <point x="167" y="678" type="curve" smooth="yes"/>
      <point x="210" y="678"/>
      <point x="246" y="647"/>
      <point x="246" y="604" type="curve" smooth="yes"/>
      <point x="246" y="561"/>
      <point x="210" y="530"/>
      <point x="167" y="530" type="curve" smooth="yes"/>
      <point x="124" y="530"/>
      <point x="89" y="561"/>
    </contour>
  </outline>
</glyph>
<glyph name="eth" format="1">
  <advance width="642"/>
  <unicode hex="00F0"/>
  <outline>
    <contour>
      <point x="450" y="241" type="curve" smooth="yes"/>
      <point x="450" y="319"/>
      <point x="395" y="374"/>
      <point x="321" y="374" type="curve" smooth="yes"/>
      <point x="247" y="374"/>
      <point x="192" y="319"/>
      <point x="192" y="241" type="curve" smooth="yes"/>
      <point x="192" y="163"/>
      <point x="247" y="110"/>
      <point x="321" y="110" type="curve" smooth="yes"/>
      <point x="395" y="110"/>
      <point x="450" y="163"/>
    </contour>
    <contour>
      <point x="310" y="698" type="line"/>
      <point x="522" y="421" type="line" smooth="yes"/>
      <point x="562" y="370"/>
      <point x="592" y="311"/>
      <point x="592" y="241" type="curve" smooth="yes"/>
      <point x="592" y="77"/>
      <point x="471" y="-14"/>
      <point x="321" y="-14" type="curve" smooth="yes"/>
      <point x="171" y="-14"/>
      <point x="50" y="77"/>
      <point x="50" y="241" type="curve" smooth="yes"/>
      <point x="50" y="379"/>
      <point x="157" y="468"/>
      <point x="264" y="468" type="curve" smooth="yes"/>
      <point x="313" y="468"/>
      <point x="344" y="460"/>
      <point x="378" y="425" type="curve"/>
      <point x="351" y="434" type="line"/>
      <point x="127" y="698" type="line"/>
    </contour>
    <contour>
      <point x="142" y="520" type="line"/>
      <point x="142" y="594" type="line"/>
      <point x="539" y="594" type="line"/>
      <point x="539" y="520" type="line"/>
    </contour>
  </outline>
</glyph>
<glyph name="ntilde" format="1">
  <advance width="560"/>
  <unicode hex="00F1"/>
  <outline>
    <contour>
      <point x="195" y="460" type="line"/>
      <point x="195" y="0" type="line"/>
      <point x="64" y="0" type="line"/>
      <point x="64" y="460" type="line"/>
    </contour>
    <contour>
      <point x="361" y="280" type="line" smooth="yes"/>
      <point x="361" y="341"/>
      <point x="339" y="373"/>
      <point x="285" y="373" type="curve" smooth="yes"/>
      <point x="230" y="373"/>
      <point x="195" y="337"/>
      <point x="195" y="280" type="curve"/>
      <point x="163" y="276" type="line"/>
      <point x="163" y="385"/>
      <point x="226" y="470"/>
      <point x="334" y="470" type="curve" smooth="yes"/>
      <point x="442" y="470"/>
      <point x="496" y="409"/>
      <point x="496" y="294" type="curve" smooth="yes"/>
      <point x="496" y="0" type="line"/>
      <point x="361" y="0" type="line"/>
    </contour>
    <contour>
      <point x="94" y="588" type="line"/>
      <point x="104" y="637"/>
      <point x="150" y="678"/>
      <point x="208" y="678" type="curve" smooth="yes"/>
      <point x="274" y="678"/>
      <point x="285" y="628"/>
      <point x="341" y="628" type="curve" smooth="yes"/>
      <point x="364" y="628"/>
      <point x="384" y="647"/>
      <point x="404" y="679" type="curve"/>
      <point x="468" y="614" type="line"/>
      <point x="452" y="577"/>
      <point x="400" y="533"/>
      <point x="341" y="533" type="curve" smooth="yes"/>
      <point x="286" y="533"/>
      <point x="256" y="584"/>
      <point x="208" y="584" type="curve" smooth="yes"/>
      <point x="169" y="584"/>
      <point x="159" y="548"/>
      <point x="159" y="533" type="curve"/>
    </contour>
  </outline>
</glyph>
<glyph name="odieresis" format="1">
  <advance width="576"/>
  <unicode hex="00F6"/>
  <outline>
    <contour>
      <point x="33" y="230" type="curve" smooth="yes"/>
      <point x="33" y="373"/>
      <point x="142" y="470"/>
      <point x="288" y="470" type="curve" smooth="yes"/>
      <point x="434" y="470"/>
      <point x="544" y="373"/>
      <point x="544" y="230" type="curve" smooth="yes"/>
      <point x="544" y="87"/>
      <point x="434" y="-10"/>
      <point x="288" y="-10" type="curve" smooth="yes"/>
      <point x="142" y="-10"/>
      <point x="33" y="87"/>
    </contour>
    <contour>
      <point x="167" y="230" type="curve" smooth="yes"/>
      <point x="167" y="152"/>
      <point x="220" y="100"/>
      <point x="288" y="100" type="curve" smooth="yes"/>
      <point x="356" y="100"/>
      <point x="410" y="152"/>
      <point x="410" y="230" type="curve" smooth="yes"/>
      <point x="410" y="308"/>
      <point x="356" y="360"/>
      <point x="288" y="360" type="curve" smooth="yes"/>
      <point x="220" y="360"/>
      <point x="167" y="308"/>
    </contour>
    <contour>
      <point x="325" y="621" type="curve" smooth="yes"/>
      <point x="325" y="664"/>
      <point x="361" y="695"/>
      <point x="404" y="695" type="curve" smooth="yes"/>
      <point x="447" y="695"/>
      <point x="482" y="664"/>
      <point x="482" y="621" type="curve" smooth="yes"/>
      <point x="482" y="578"/>
      <point x="447" y="547"/>
      <point x="404" y="547" type="curve" smooth="yes"/>
      <point x="361" y="547"/>
      <point x="325" y="578"/>
    </contour>
    <contour>
      <point x="95" y="621" type="curve" smooth="yes"/>
      <point x="95" y="664"/>
      <point x="130" y="695"/>
      <point x="173" y="695" type="curve" smooth="yes"/>
      <point x="216" y="695"/>
      <point x="251" y="664"/>
      <point x="251" y="621" type="curve" smooth="yes"/>
      <point x="251" y="578"/>
      <point x="216" y="547"/>
      <point x="173" y="547" type="curve" smooth="yes"/>
      <point x="130" y="547"/>
      <point x="95" y="578"/>
    </contour>
  </outline>
</glyph>
<glyph name="divide" format="1">
  <advance width="634"/>
  <unicode hex="00F7"/>
  <outline>
    <contour>
      <point x="234" y="523" type="curve" smooth="yes"/>
      <point x="234" y="568"/>
      <point x="269" y="604"/>
      <point x="317" y="604" type="curve" smooth="yes"/>
      <point x="365" y="604"/>
      <point x="399" y="568"/>
      <point x="399" y="523" type="curve" smooth="yes"/>
      <point x="399" y="478"/>
      <point x="365" y="441"/>
      <point x="317" y="441" type="curve" smooth="yes"/>
      <point x="269" y="441"/>
      <point x="234" y="478"/>
    </contour>
    <contour>
      <point x="234" y="90" type="curve" smooth="yes"/>
      <point x="234" y="135"/>
      <point x="269" y="171"/>
      <point x="317" y="171" type="curve" smooth="yes"/>
      <point x="365" y="171"/>
      <point x="399" y="135"/>
      <point x="399" y="90" type="curve" smooth="yes"/>
      <point x="399" y="45"/>
      <point x="365" y="8"/>
      <point x="317" y="8" type="curve" smooth="yes"/>
      <point x="269" y="8"/>
      <point x="234" y="45"/>
    </contour>
    <contour>
      <point x="36" y="249" type="line"/>
      <point x="36" y="369" type="line"/>
      <point x="597" y="369" type="line"/>
      <point x="597" y="249" type="line"/>
    </contour>
  </outline>
</glyph>
<glyph name="oslash" format="1">
  <advance width="546"/>
  <unicode hex="00F8"/>
  <outline>
    <contour>
      <point x="33" y="230" type="curve" smooth="yes"/>
      <point x="33" y="378"/>
      <point x="144" y="470"/>
      <point x="288" y="470" type="curve" smooth="yes"/>
      <point x="432" y="470"/>
      <point x="544" y="378"/>
      <point x="544" y="230" type="curve" smooth="yes"/>
      <point x="544" y="82"/>
      <point x="432" y="-10"/>
      <point x="288" y="-10" type="curve" smooth="yes"/>
      <point x="144" y="-10"/>
      <point x="33" y="82"/>
    </contour>
    <contour>
      <point x="158" y="230" type="curve" smooth="yes"/>
      <point x="158" y="147"/>
      <point x="216" y="96"/>
      <point x="288" y="96" type="curve" smooth="yes"/>
      <point x="360" y="96"/>
      <point x="419" y="147"/>
      <point x="419" y="230" type="curve" smooth="yes"/>
      <point x="419" y="308"/>
      <point x="360" y="364"/>
      <point x="288" y="364" type="curve" smooth="yes"/>
      <point x="216" y="364"/>
      <point x="158" y="308"/>
    </contour>
    <contour>
      <point x="451" y="504" type="line"/>
      <point x="505" y="476" type="line"/>
      <point x="115" y="-48" type="line"/>
      <point x="61" y="-20" type="line"/>
    </contour>
  </outline>
</glyph>
<glyph name="ucircumflex" format="2">
  <advance width="559"/>
  <unicode hex="00FB"/>
  <outline>
    <contour>
      <point x="366" y="0" type="line"/>
      <point x="366" y="460" type="line"/>
      <point x="495" y="460" type="line"/>
      <point x="495" y="0" type="line"/>
    </contour>
    <contour>
      <point x="198" y="180" type="line" smooth="yes"/>
      <point x="198" y="119"/>
      <point x="221" y="86"/>
      <point x="275" y="86" type="curve" smooth="yes"/>
      <point x="330" y="86"/>
      <point x="366" y="123"/>
      <point x="366" y="180" type="curve"/>
      <point x="397" y="184" type="line"/>
      <point x="397" y="75"/>
      <point x="335" y="-10"/>
      <point x="227" y="-10" type="curve" smooth="yes"/>
      <point x="119" y="-10"/>
      <point x="64" y="51"/>
      <point x="64" y="166" type="curve" smooth="yes"/>
      <point x="64" y="460" type="line"/>
      <point x="198" y="460" type="line"/>
    </contour>
    <contour>
      <point x="279" y="630" type="line"/>
      <point x="182" y="542" type="line"/>
      <point x="93" y="603" type="line"/>
      <point x="279" y="743" type="line"/>
      <point x="465" y="603" type="line"/>
      <point x="376" y="542" type="line"/>
    </contour>
  </outline>
</glyph>
<glyph name="udieresis" format="1">
  <advance width="560"/>
  <unicode hex="00FC"/>
  <outline>
    <contour>
      <point x="366" y="0" type="line"/>
      <point x="366" y="460" type="line"/>
      <point x="496" y="460" type="line"/>
      <point x="496" y="0" type="line"/>
    </contour>
    <contour>
      <point x="199" y="180" type="line" smooth="yes"/>
      <point x="199" y="119"/>
      <point x="221" y="87"/>
      <point x="275" y="87" type="curve" smooth="yes"/>
      <point x="330" y="87"/>
      <point x="366" y="123"/>
      <point x="366" y="180" type="curve"/>
      <point x="397" y="184" type="line"/>
      <point x="397" y="75"/>
      <point x="334" y="-10"/>
      <point x="226" y="-10" type="curve" smooth="yes"/>
      <point x="118" y="-10"/>
      <point x="64" y="51"/>
      <point x="64" y="166" type="curve" smooth="yes"/>
      <point x="64" y="460" type="line"/>
      <point x="199" y="460" type="line"/>
    </contour>
    <contour>
      <point x="318" y="616" type="curve" smooth="yes"/>
      <point x="318" y="659"/>
      <point x="352" y="689"/>
      <point x="395" y="689" type="curve" smooth="yes"/>
      <point x="438" y="689"/>
      <point x="474" y="659"/>
      <point x="474" y="616" type="curve" smooth="yes"/>
      <point x="474" y="573"/>
      <point x="438" y="542"/>
      <point x="395" y="542" type="curve" smooth="yes"/>
      <point x="352" y="542"/>
      <point x="318" y="573"/>
    </contour>
    <contour>
      <point x="87" y="616" type="curve" smooth="yes"/>
      <point x="87" y="659"/>
      <point x="122" y="689"/>
      <point x="165" y="689" type="curve" smooth="yes"/>
      <point x="208" y="689"/>
      <point x="244" y="659"/>
      <point x="244" y="616" type="curve" smooth="yes"/>
      <point x="244" y="573"/>
      <point x="208" y="542"/>
      <point x="165" y="542" type="curve" smooth="yes"/>
      <point x="122" y="542"/>
      <point x="87" y="573"/>
    </contour>
  </outline>
</glyph>
<glyph name="yacute" format="1">
  <advance width="497"/>
  <unicode hex="00FD"/>
  <outline>
    <contour>
      <point x="504" y="460" type="line"/>
      <point x="204" y="-220" type="line"/>
      <point x="70" y="-220" type="line"/>
      <point x="186" y="45" type="line"/>
      <point x="-7" y="460" type="line"/>
      <point x="139" y="460" type="line"/>
      <point x="287" y="93" type="line"/>
      <point x="222" y="96" type="line"/>
      <point x="368" y="460" type="line"/>
    </contour>
    <contour>
      <point x="401" y="692" type="line"/>
      <point x="221" y="542" type="line"/>
      <point x="147" y="580" type="line"/>
      <point x="297" y="740" type="line"/>
    </contour>
  </outline>
</glyph>
<glyph name="thorn" format="1">
  <advance width="603"/>
  <unicode hex="00FE"/>
  <outline>
    <contour>
      <point x="192" y="-220" type="line"/>
      <point x="61" y="-220" type="line"/>
      <point x="61" y="780" type="line"/>
      <point x="192" y="780" type="line"/>
    </contour>
    <contour>
      <point x="570" y="230" type="curve" smooth="yes"/>
      <point x="570" y="77"/>
      <point x="465" y="-10"/>
      <point x="349" y="-10" type="curve" smooth="yes"/>
      <point x="234" y="-10"/>
      <point x="151" y="81"/>
      <point x="151" y="230" type="curve" smooth="yes"/>
      <point x="151" y="379"/>
      <point x="234" y="470"/>
      <point x="349" y="470" type="curve" smooth="yes"/>
      <point x="465" y="470"/>
      <point x="570" y="383"/>
    </contour>
    <contour>
      <point x="434" y="230" type="curve" smooth="yes"/>
      <point x="434" y="312"/>
      <point x="377" y="362"/>
      <point x="310" y="362" type="curve" smooth="yes"/>
      <point x="253" y="362"/>
      <point x="192" y="314"/>
      <point x="192" y="230" type="curve" smooth="yes"/>
      <point x="192" y="146"/>
      <point x="253" y="98"/>
      <point x="310" y="98" type="curve" smooth="yes"/>
      <point x="377" y="98"/>
      <point x="434" y="148"/>
    </contour>
  </outline>
</glyph>
<glyph name="ydieresis" format="1">
  <advance width="497"/>
  <unicode hex="00FF"/>
  <outline>
    <contour>
      <point x="504" y="460" type="line"/>
      <point x="204" y="-220" type="line"/>
      <point x="70" y="-220" type="line"/>
      <point x="186" y="45" type="line"/>
      <point x="-7" y="460" type="line"/>
      <point x="139" y="460" type="line"/>
      <point x="287" y="93" type="line"/>
      <point x="222" y="96" type="line"/>
      <point x="368" y="460" type="line"/>
    </contour>
    <contour>
      <point x="286" y="604" type="curve" smooth="yes"/>
      <point x="286" y="647"/>
      <point x="321" y="678"/>
      <point x="364" y="678" type="curve" smooth="yes"/>
      <point x="407" y="678"/>
      <point x="442" y="647"/>
      <point x="442" y="604" type="curve" smooth="yes"/>
      <point x="442" y="561"/>
      <point x="407" y="530"/>
      <point x="364" y="530" type="curve" smooth="yes"/>
      <point x="321" y="530"/>
      <point x="286" y="561"/>
    </contour>
    <contour>
      <point x="55" y="604" type="curve" smooth="yes"/>
      <point x="55" y="647"/>
      <point x="90" y="678"/>
      <point x="133" y="678" type="curve" smooth="yes"/>
      <point x="176" y="678"/>
      <point x="212" y="647"/>
      <point x="212" y="604" type="curve" smooth="yes"/>
      <point x="212" y="561"/>
      <point x="176" y="530"/>
      <point x="133" y="530" type="curve" smooth="yes"/>
      <point x="90" y="530"/>
      <point x="55" y="561"/>
    </contour>
  </outline>
</glyph>
<glyph name="abreve" format="1">
  <advance width="526"/>
  <unicode hex="0103"/>
  <outline>
    <contour>
      <point x="157" y="137" type="curve" smooth="yes"/>
      <point x="157" y="99"/>
      <point x="185" y="81"/>
      <point x="232" y="81" type="curve" smooth="yes"/>
      <point x="294" y="81"/>
      <point x="345" y="107"/>
      <point x="345" y="184" type="curve"/>
      <point x="361" y="130" type="line"/>
      <point x="361" y="41"/>
      <point x="285" y="-10"/>
      <point x="190" y="-10" type="curve" smooth="yes"/>
      <point x="91" y="-10"/>
      <point x="26" y="41"/>
      <point x="26" y="127" type="curve" smooth="yes"/>
      <point x="26" y="225"/>
      <point x="109" y="281"/>
      <point x="224" y="281" type="curve" smooth="yes"/>
      <point x="299" y="281"/>
      <point x="360" y="249"/>
      <point x="378" y="229" type="curve"/>
      <point x="378" y="164" type="line"/>
      <point x="340" y="192"/>
      <point x="304" y="205"/>
      <point x="250" y="205" type="curve" smooth="yes"/>
      <point x="190" y="205"/>
      <point x="157" y="179"/>
    </contour>
    <contour>
      <point x="115" y="328" type="curve"/>
      <point x="68" y="418" type="line"/>
      <point x="115" y="443"/>
      <point x="185" y="472"/>
      <point x="268" y="472" type="curve" smooth="yes"/>
      <point x="386" y="472"/>
      <point x="471" y="419"/>
      <point x="471" y="326" type="curve" smooth="yes"/>
      <point x="471" y="0" type="line"/>
      <point x="345" y="0" type="line"/>
      <point x="345" y="304" type="line" smooth="yes"/>
      <point x="345" y="345"/>
      <point x="309" y="371"/>
      <point x="259" y="371" type="curve" smooth="yes"/>
      <point x="193" y="371"/>
      <point x="137" y="342"/>
    </contour>
    <contour>
      <point x="105" y="677" type="curve"/>
      <point x="196" y="677" type="line"/>
      <point x="196" y="644"/>
      <point x="220" y="613"/>
      <point x="268" y="613" type="curve" smooth="yes"/>
      <point x="316" y="613"/>
      <point x="339" y="644"/>
      <point x="339" y="677" type="curve"/>
      <point x="430" y="677" type="line"/>
      <point x="430" y="599"/>
      <point x="373" y="532"/>
      <point x="268" y="532" type="curve" smooth="yes"/>
      <point x="163" y="532"/>
      <point x="105" y="599"/>
    </contour>
  </outline>
</glyph>
<glyph name="Aogonek" format="1">
  <advance width="712"/>
  <unicode hex="0104"/>
  <outline>
    <contour>
      <point x="173" y="157" type="line"/>
      <point x="190" y="272" type="line"/>
      <point x="527" y="272" type="line"/>
      <point x="543" y="157" type="line"/>
    </contour>
    <contour>
      <point x="356" y="472" type="line"/>
      <point x="252" y="231" type="line"/>
      <point x="255" y="199" type="line"/>
      <point x="164" y="0" type="line"/>
      <point x="1" y="0" type="line"/>
      <point x="356" y="742" type="line"/>
      <point x="712" y="0" type="line"/>
      <point x="549" y="0" type="line"/>
      <point x="459" y="192" type="line"/>
      <point x="461" y="229" type="line"/>
    </contour>
    <contour>
      <point x="682" y="-117" type="curve"/>
      <point x="715" y="-180" type="line"/>
      <point x="700" y="-200"/>
      <point x="670" y="-220"/>
      <point x="618" y="-220" type="curve" smooth="yes"/>
      <point x="547" y="-220"/>
      <point x="500" y="-183"/>
      <point x="500" y="-120" type="curve" smooth="yes"/>
      <point x="500" y="-57"/>
      <point x="566" y="-11"/>
      <point x="636" y="25" type="curve"/>
      <point x="677" y="0" type="line"/>
      <point x="625" y="-26"/>
      <point x="593" y="-63"/>
      <point x="593" y="-96" type="curve" smooth="yes"/>
      <point x="593" y="-124"/>
      <point x="606" y="-137"/>
      <point x="632" y="-137" type="curve" smooth="yes"/>
      <point x="654" y="-137"/>
      <point x="668" y="-130"/>
    </contour>
  </outline>
</glyph>
<glyph name="aogonek" format="1">
  <advance width="526"/>
  <unicode hex="0105"/>
  <outline>
    <contour>
      <point x="157" y="137" type="curve" smooth="yes"/>
      <point x="157" y="99"/>
      <point x="191" y="81"/>
      <point x="232" y="81" type="curve" smooth="yes"/>
      <point x="294" y="81"/>
      <point x="345" y="107"/>
      <point x="345" y="184" type="curve"/>
      <point x="361" y="130" type="line"/>
      <point x="361" y="41"/>
      <point x="285" y="-10"/>
      <point x="190" y="-10" type="curve" smooth="yes"/>
      <point x="95" y="-10"/>
      <point x="26" y="39"/>
      <point x="26" y="131" type="curve" smooth="yes"/>
      <point x="26" y="224"/>
      <point x="103" y="281"/>
      <point x="224" y="281" type="curve" smooth="yes"/>
      <point x="299" y="281"/>
      <point x="360" y="249"/>
      <point x="378" y="229" type="curve"/>
      <point x="378" y="164" type="line"/>
      <point x="340" y="192"/>
      <point x="304" y="205"/>
      <point x="250" y="205" type="curve" smooth="yes"/>
      <point x="190" y="205"/>
      <point x="157" y="179"/>
    </contour>
    <contour>
      <point x="115" y="328" type="curve"/>
      <point x="68" y="418" type="line"/>
      <point x="115" y="443"/>
      <point x="185" y="472"/>
      <point x="268" y="472" type="curve" smooth="yes"/>
      <point x="386" y="472"/>
      <point x="471" y="419"/>
      <point x="471" y="326" type="curve" smooth="yes"/>
      <point x="471" y="0" type="line"/>
      <point x="345" y="0" type="line"/>
      <point x="345" y="304" type="line" smooth="yes"/>
      <point x="345" y="345"/>
      <point x="309" y="371"/>
      <point x="259" y="371" type="curve" smooth="yes"/>
      <point x="193" y="371"/>
      <point x="137" y="342"/>
    </contour>
    <contour>
      <point x="454" y="-117" type="curve"/>
      <point x="487" y="-180" type="line"/>
      <point x="472" y="-200"/>
      <point x="442" y="-220"/>
      <point x="390" y="-220" type="curve" smooth="yes"/>
      <point x="319" y="-220"/>
      <point x="272" y="-183"/>
      <point x="272" y="-120" type="curve" smooth="yes"/>
      <point x="272" y="-57"/>
      <point x="338" y="-11"/>
      <point x="408" y="25" type="curve"/>
      <point x="449" y="0" type="line"/>
      <point x="397" y="-26"/>
      <point x="365" y="-63"/>
      <point x="365" y="-96" type="curve" smooth="yes"/>
      <point x="365" y="-124"/>
      <point x="378" y="-137"/>
      <point x="404" y="-137" type="curve" smooth="yes"/>
      <point x="426" y="-137"/>
      <point x="440" y="-130"/>
    </contour>
  </outline>
</glyph>
<glyph name="cacute" format="1">
  <advance width="489"/>
  <unicode hex="0107"/>
  <outline>
    <contour>
      <point x="164" y="230" type="curve" smooth="yes"/>
      <point x="164" y="149"/>
      <point x="222" y="97"/>
      <point x="297" y="97" type="curve" smooth="yes"/>
      <point x="358" y="97"/>
      <point x="414" y="126"/>
      <point x="439" y="170" type="curve"/>
      <point x="439" y="37" type="line"/>
      <point x="407" y="8"/>
      <point x="355" y="-10"/>
      <point x="288" y="-10" type="curve" smooth="yes"/>
      <point x="140" y="-10"/>
      <point x="30" y="87"/>
      <point x="30" y="230" type="curve" smooth="yes"/>
      <point x="30" y="373"/>
      <point x="140" y="470"/>
      <point x="288" y="470" type="curve" smooth="yes"/>
      <point x="355" y="470"/>
      <point x="407" y="451"/>
      <point x="439" y="424" type="curve"/>
      <point x="439" y="290" type="line"/>
      <point x="414" y="334"/>
      <point x="353" y="363"/>
      <point x="297" y="363" type="curve" smooth="yes"/>
      <point x="222" y="363"/>
      <point x="164" y="306"/>
    </contour>
    <contour>
      <point x="418" y="680" type="line"/>
      <point x="238" y="530" type="line"/>
      <point x="164" y="569" type="line"/>
      <point x="314" y="729" type="line"/>
    </contour>
  </outline>
</glyph>
<glyph name="ccircumflex" format="1">
  <advance width="489"/>
  <unicode hex="0109"/>
  <outline>
    <contour>
      <point x="164" y="230" type="curve" smooth="yes"/>
      <point x="164" y="149"/>
      <point x="222" y="97"/>
      <point x="297" y="97" type="curve" smooth="yes"/>
      <point x="358" y="97"/>
      <point x="414" y="126"/>
      <point x="439" y="170" type="curve"/>
      <point x="439" y="37" type="line"/>
      <point x="407" y="8"/>
      <point x="355" y="-10"/>
      <point x="288" y="-10" type="curve" smooth="yes"/>
      <point x="140" y="-10"/>
      <point x="30" y="87"/>
      <point x="30" y="230" type="curve" smooth="yes"/>
      <point x="30" y="373"/>
      <point x="140" y="470"/>
      <point x="288" y="470" type="curve" smooth="yes"/>
      <point x="355" y="470"/>
      <point x="407" y="451"/>
      <point x="439" y="424" type="curve"/>
      <point x="439" y="290" type="line"/>
      <point x="414" y="334"/>
      <point x="353" y="363"/>
      <point x="297" y="363" type="curve" smooth="yes"/>
      <point x="222" y="363"/>
      <point x="164" y="306"/>
    </contour>
    <contour>
      <point x="266" y="619" type="line"/>
      <point x="169" y="530" type="line"/>
      <point x="79" y="592" type="line"/>
      <point x="266" y="732" type="line"/>
      <point x="452" y="592" type="line"/>
      <point x="363" y="530" type="line"/>
    </contour>
  </outline>
</glyph>
<glyph name="Cdotaccent" format="1">
  <advance width="696"/>
  <unicode hex="010A"/>
  <outline>
    <contour>
      <point x="192" y="350" type="curve" smooth="yes"/>
      <point x="192" y="211"/>
      <point x="297" y="124"/>
      <point x="417" y="124" type="curve" smooth="yes"/>
      <point x="516" y="124"/>
      <point x="583" y="167"/>
      <point x="630" y="220" type="curve"/>
      <point x="630" y="58" type="line"/>
      <point x="573" y="12"/>
      <point x="512" y="-14"/>
      <point x="410" y="-14" type="curve" smooth="yes"/>
      <point x="194" y="-14"/>
      <point x="36" y="134"/>
      <point x="36" y="350" type="curve" smooth="yes"/>
      <point x="36" y="566"/>
      <point x="194" y="714"/>
      <point x="410" y="714" type="curve" smooth="yes"/>
      <point x="512" y="714"/>
      <point x="573" y="688"/>
      <point x="630" y="642" type="curve"/>
      <point x="630" y="480" type="line"/>
      <point x="583" y="533"/>
      <point x="516" y="576"/>
      <point x="417" y="576" type="curve" smooth="yes"/>
      <point x="297" y="576"/>
      <point x="192" y="489"/>
    </contour>
    <contour>
      <point x="314" y="848" type="curve" smooth="yes"/>
      <point x="314" y="891"/>
      <point x="349" y="922"/>
      <point x="392" y="922" type="curve" smooth="yes"/>
      <point x="435" y="922"/>
      <point x="471" y="891"/>
      <point x="471" y="848" type="curve" smooth="yes"/>
      <point x="471" y="805"/>
      <point x="435" y="774"/>
      <point x="392" y="774" type="curve" smooth="yes"/>
      <point x="349" y="774"/>
      <point x="314" y="805"/>
    </contour>
  </outline>
</glyph>
<glyph name="cdotaccent" format="2">
  <advance width="488"/>
  <unicode hex="010B"/>
  <outline>
    <contour>
      <point x="163" y="230" type="curve" smooth="yes"/>
      <point x="163" y="149"/>
      <point x="221" y="97"/>
      <point x="296" y="97" type="curve" smooth="yes"/>
      <point x="357" y="97"/>
      <point x="414" y="126"/>
      <point x="439" y="170" type="curve"/>
      <point x="439" y="37" type="line"/>
      <point x="407" y="8"/>
      <point x="354" y="-10"/>
      <point x="287" y="-10" type="curve" smooth="yes"/>
      <point x="139" y="-10"/>
      <point x="30" y="87"/>
      <point x="30" y="230" type="curve" smooth="yes"/>
      <point x="30" y="373"/>
      <point x="139" y="470"/>
      <point x="287" y="470" type="curve" smooth="yes"/>
      <point x="354" y="470"/>
      <point x="407" y="451"/>
      <point x="439" y="424" type="curve"/>
      <point x="439" y="291" type="line"/>
      <point x="414" y="335"/>
      <point x="353" y="363"/>
      <point x="296" y="363" type="curve" smooth="yes"/>
      <point x="221" y="363"/>
      <point x="163" y="307"/>
    </contour>
    <contour>
      <point x="192" y="608" type="curve" smooth="yes"/>
      <point x="192" y="651"/>
      <point x="227" y="682"/>
      <point x="270" y="682" type="curve" smooth="yes"/>
      <point x="313" y="682"/>
      <point x="348" y="651"/>
      <point x="348" y="608" type="curve" smooth="yes"/>
      <point x="348" y="565"/>
      <point x="313" y="535"/>
      <point x="270" y="535" type="curve" smooth="yes"/>
      <point x="227" y="535"/>
      <point x="192" y="565"/>
    </contour>
  </outline>
</glyph>
<glyph name="Dcaron" format="1">
  <advance width="717"/>
  <unicode hex="010E"/>
  <outline>
    <contour>
      <point x="76" y="700" type="line"/>
      <point x="224" y="700" type="line"/>
      <point x="224" y="0" type="line"/>
      <point x="76" y="0" type="line"/>
    </contour>
    <contour>
      <point x="314" y="0" type="curve" smooth="yes"/>
      <point x="169" y="0" type="line"/>
      <point x="169" y="131" type="line"/>
      <point x="310" y="131" type="line" smooth="yes"/>
      <point x="433" y="131"/>
      <point x="533" y="196"/>
      <point x="533" y="350" type="curve" smooth="yes"/>
      <point x="533" y="504"/>
      <point x="433" y="569"/>
      <point x="310" y="569" type="curve" smooth="yes"/>
      <point x="169" y="569" type="line"/>
      <point x="169" y="700" type="line"/>
      <point x="314" y="700" type="line" smooth="yes"/>
      <point x="536" y="700"/>
      <point x="682" y="563"/>
      <point x="682" y="350" type="curve" smooth="yes"/>
      <point x="682" y="137"/>
      <point x="536" y="0"/>
    </contour>
    <contour>
      <point x="362" y="888" type="line"/>
      <point x="459" y="976" type="line"/>
      <point x="548" y="914" type="line"/>
      <point x="362" y="774" type="line"/>
      <point x="176" y="914" type="line"/>
      <point x="265" y="976" type="line"/>
    </contour>
  </outline>
</glyph>
<glyph name="dcaron" format="1">
  <advance width="603"/>
  <unicode hex="010F"/>
  <outline>
    <contour>
      <point x="411" y="780" type="line"/>
      <point x="542" y="780" type="line"/>
      <point x="542" y="0" type="line"/>
      <point x="411" y="0" type="line"/>
    </contour>
    <contour>
      <point x="33" y="230" type="curve" smooth="yes"/>
      <point x="33" y="383"/>
      <point x="138" y="470"/>
      <point x="254" y="470" type="curve" smooth="yes"/>
      <point x="369" y="470"/>
      <point x="452" y="379"/>
      <point x="452" y="230" type="curve" smooth="yes"/>
      <point x="452" y="81"/>
      <point x="369" y="-10"/>
      <point x="254" y="-10" type="curve" smooth="yes"/>
      <point x="138" y="-10"/>
      <point x="33" y="77"/>
    </contour>
    <contour>
      <point x="169" y="230" type="curve" smooth="yes"/>
      <point x="169" y="148"/>
      <point x="226" y="98"/>
      <point x="293" y="98" type="curve" smooth="yes"/>
      <point x="350" y="98"/>
      <point x="411" y="146"/>
      <point x="411" y="230" type="curve" smooth="yes"/>
      <point x="411" y="314"/>
      <point x="350" y="362"/>
      <point x="293" y="362" type="curve" smooth="yes"/>
      <point x="226" y="362"/>
      <point x="169" y="312"/>
    </contour>
    <contour>
      <point x="660" y="780" type="line"/>
      <point x="790" y="748" type="line"/>
      <point x="669" y="498" type="line"/>
      <point x="572" y="521" type="line"/>
    </contour>
  </outline>
</glyph>
<glyph name="dcroat" format="1">
  <advance width="603"/>
  <unicode hex="0111"/>
  <outline>
    <contour>
      <point x="295" y="572" type="line"/>
      <point x="295" y="665" type="line"/>
      <point x="635" y="665" type="line"/>
      <point x="635" y="572" type="line"/>
    </contour>
    <contour>
      <point x="411" y="780" type="line"/>
      <point x="542" y="780" type="line"/>
      <point x="542" y="0" type="line"/>
      <point x="411" y="0" type="line"/>
    </contour>
    <contour>
      <point x="33" y="230" type="curve" smooth="yes"/>
      <point x="33" y="383"/>
      <point x="138" y="470"/>
      <point x="254" y="470" type="curve" smooth="yes"/>
      <point x="369" y="470"/>
      <point x="452" y="379"/>
      <point x="452" y="230" type="curve" smooth="yes"/>
      <point x="452" y="81"/>
      <point x="369" y="-10"/>
      <point x="254" y="-10" type="curve" smooth="yes"/>
      <point x="138" y="-10"/>
      <point x="33" y="77"/>
    </contour>
    <contour>
      <point x="169" y="230" type="curve" smooth="yes"/>
      <point x="169" y="148"/>
      <point x="226" y="98"/>
      <point x="293" y="98" type="curve" smooth="yes"/>
      <point x="350" y="98"/>
      <point x="411" y="146"/>
      <point x="411" y="230" type="curve" smooth="yes"/>
      <point x="411" y="314"/>
      <point x="350" y="362"/>
      <point x="293" y="362" type="curve" smooth="yes"/>
      <point x="226" y="362"/>
      <point x="169" y="312"/>
    </contour>
  </outline>
</glyph>
<glyph name="Emacron" format="1">
  <advance width="587"/>
  <unicode hex="0112"/>
  <outline>
    <contour>
      <point x="169" y="0" type="line"/>
      <point x="169" y="122" type="line"/>
      <point x="522" y="122" type="line"/>
      <point x="522" y="0" type="line"/>
    </contour>
    <contour>
      <point x="169" y="578" type="line"/>
      <point x="169" y="700" type="line"/>
      <point x="522" y="700" type="line"/>
      <point x="522" y="578" type="line"/>
    </contour>
    <contour>
      <point x="169" y="311" type="line"/>
      <point x="169" y="431" type="line"/>
      <point x="502" y="431" type="line"/>
      <point x="502" y="311" type="line"/>
    </contour>
    <contour>
      <point x="76" y="700" type="line"/>
      <point x="216" y="700" type="line"/>
      <point x="216" y="0" type="line"/>
      <point x="76" y="0" type="line"/>
    </contour>
    <contour>
      <point x="116" y="774" type="line"/>
      <point x="116" y="889" type="line"/>
      <point x="481" y="889" type="line"/>
      <point x="481" y="774" type="line"/>
    </contour>
  </outline>
</glyph>
<glyph name="Ebreve" format="1">
  <advance width="587"/>
  <unicode hex="0114"/>
  <outline>
    <contour>
      <point x="169" y="0" type="line"/>
      <point x="169" y="122" type="line"/>
      <point x="522" y="122" type="line"/>
      <point x="522" y="0" type="line"/>
    </contour>
    <contour>
      <point x="169" y="578" type="line"/>
      <point x="169" y="700" type="line"/>
      <point x="522" y="700" type="line"/>
      <point x="522" y="578" type="line"/>
    </contour>
    <contour>
      <point x="169" y="311" type="line"/>
      <point x="169" y="431" type="line"/>
      <point x="502" y="431" type="line"/>
      <point x="502" y="311" type="line"/>
    </contour>
    <contour>
      <point x="76" y="700" type="line"/>
      <point x="216" y="700" type="line"/>
      <point x="216" y="0" type="line"/>
      <point x="76" y="0" type="line"/>
    </contour>
    <contour>
      <point x="136" y="919" type="curve"/>
      <point x="227" y="919" type="line"/>
      <point x="227" y="886"/>
      <point x="250" y="855"/>
      <point x="298" y="855" type="curve" smooth="yes"/>
      <point x="346" y="855"/>
      <point x="370" y="886"/>
      <point x="370" y="919" type="curve"/>
      <point x="461" y="919" type="line"/>
      <point x="461" y="841"/>
      <point x="403" y="774"/>
      <point x="298" y="774" type="curve" smooth="yes"/>
      <point x="193" y="774"/>
      <point x="136" y="841"/>
    </contour>
  </outline>
</glyph>
<glyph name="Edotaccent" format="1">
  <advance width="587"/>
  <unicode hex="0116"/>
  <outline>
    <contour>
      <point x="169" y="0" type="line"/>
      <point x="169" y="122" type="line"/>
      <point x="522" y="122" type="line"/>
      <point x="522" y="0" type="line"/>
    </contour>
    <contour>
      <point x="169" y="578" type="line"/>
      <point x="169" y="700" type="line"/>
      <point x="522" y="700" type="line"/>
      <point x="522" y="578" type="line"/>
    </contour>
    <contour>
      <point x="169" y="311" type="line"/>
      <point x="169" y="431" type="line"/>
      <point x="502" y="431" type="line"/>
      <point x="502" y="311" type="line"/>
    </contour>
    <contour>
      <point x="76" y="700" type="line"/>
      <point x="216" y="700" type="line"/>
      <point x="216" y="0" type="line"/>
      <point x="76" y="0" type="line"/>
    </contour>
    <contour>
      <point x="220" y="848" type="curve" smooth="yes"/>
      <point x="220" y="891"/>
      <point x="255" y="922"/>
      <point x="298" y="922" type="curve" smooth="yes"/>
      <point x="341" y="922"/>
      <point x="377" y="891"/>
      <point x="377" y="848" type="curve" smooth="yes"/>
      <point x="377" y="805"/>
      <point x="341" y="774"/>
      <point x="298" y="774" type="curve" smooth="yes"/>
      <point x="255" y="774"/>
      <point x="220" y="805"/>
    </contour>
  </outline>
</glyph>
<glyph name="Eogonek" format="1">
  <advance width="587"/>
  <unicode hex="0118"/>
  <outline>
    <contour>
      <point x="169" y="0" type="line"/>
      <point x="169" y="122" type="line"/>
      <point x="522" y="122" type="line"/>
      <point x="522" y="0" type="line"/>
    </contour>
    <contour>
      <point x="169" y="578" type="line"/>
      <point x="169" y="700" type="line"/>
      <point x="522" y="700" type="line"/>
      <point x="522" y="578" type="line"/>
    </contour>
    <contour>
      <point x="169" y="311" type="line"/>
      <point x="169" y="431" type="line"/>
      <point x="502" y="431" type="line"/>
      <point x="502" y="311" type="line"/>
    </contour>
    <contour>
      <point x="76" y="700" type="line"/>
      <point x="216" y="700" type="line"/>
      <point x="216" y="0" type="line"/>
      <point x="76" y="0" type="line"/>
    </contour>
    <contour>
      <point x="389" y="-117" type="curve"/>
      <point x="422" y="-180" type="line"/>
      <point x="407" y="-200"/>
      <point x="377" y="-220"/>
      <point x="325" y="-220" type="curve" smooth="yes"/>
      <point x="254" y="-220"/>
      <point x="207" y="-183"/>
      <point x="207" y="-120" type="curve" smooth="yes"/>
      <point x="207" y="-57"/>
      <point x="273" y="-11"/>
      <point x="343" y="25" type="curve"/>
      <point x="384" y="0" type="line"/>
      <point x="332" y="-26"/>
      <point x="300" y="-63"/>
      <point x="300" y="-96" type="curve" smooth="yes"/>
      <point x="300" y="-124"/>
      <point x="313" y="-137"/>
      <point x="339" y="-137" type="curve" smooth="yes"/>
      <point x="361" y="-137"/>
      <point x="375" y="-130"/>
    </contour>
  </outline>
</glyph>
<glyph name="eogonek" format="1">
  <advance width="556"/>
  <unicode hex="0119"/>
  <outline>
    <contour>
      <point x="108" y="201" type="line"/>
      <point x="108" y="281" type="line"/>
      <point x="382" y="281" type="line"/>
      <point x="375" y="341"/>
      <point x="343" y="378"/>
      <point x="281" y="378" type="curve" smooth="yes"/>
      <point x="214" y="378"/>
      <point x="166" y="333"/>
      <point x="166" y="256" type="curve"/>
      <point x="164" y="230" type="line"/>
      <point x="164" y="133"/>
      <point x="215" y="89"/>
      <point x="283" y="89" type="curve" smooth="yes"/>
      <point x="341" y="89"/>
      <point x="382" y="114"/>
      <point x="406" y="155" type="curve"/>
      <point x="520" y="120" type="line"/>
      <point x="474" y="41"/>
      <point x="410" y="-10"/>
      <point x="282" y="-10" type="curve" smooth="yes"/>
      <point x="126" y="-10"/>
      <point x="33" y="91"/>
      <point x="33" y="230" type="curve" smooth="yes"/>
      <point x="33" y="247"/>
      <point x="34" y="263"/>
      <point x="37" y="279" type="curve" smooth="yes"/>
      <point x="56" y="392"/>
      <point x="142" y="470"/>
      <point x="283" y="470" type="curve" smooth="yes"/>
      <point x="435" y="470"/>
      <point x="522" y="381"/>
      <point x="522" y="236" type="curve" smooth="yes"/>
      <point x="522" y="228"/>
      <point x="521" y="215"/>
      <point x="520" y="201" type="curve"/>
    </contour>
    <contour>
      <point x="319" y="-112" type="curve"/>
      <point x="352" y="-175" type="line"/>
      <point x="337" y="-195"/>
      <point x="307" y="-215"/>
      <point x="255" y="-215" type="curve" smooth="yes"/>
      <point x="184" y="-215"/>
      <point x="136" y="-178"/>
      <point x="136" y="-115" type="curve" smooth="yes"/>
      <point x="136" y="-52"/>
      <point x="203" y="-6"/>
      <point x="273" y="30" type="curve"/>
      <point x="314" y="5" type="line"/>
      <point x="262" y="-21"/>
      <point x="230" y="-57"/>
      <point x="230" y="-90" type="curve" smooth="yes"/>
      <point x="230" y="-118"/>
      <point x="243" y="-132"/>
      <point x="269" y="-132" type="curve" smooth="yes"/>
      <point x="291" y="-132"/>
      <point x="305" y="-125"/>
    </contour>
  </outline>
</glyph>
<glyph name="Ecaron" format="1">
  <advance width="587"/>
  <unicode hex="011A"/>
  <outline>
    <contour>
      <point x="169" y="0" type="line"/>
      <point x="169" y="122" type="line"/>
      <point x="522" y="122" type="line"/>
      <point x="522" y="0" type="line"/>
    </contour>
    <contour>
      <point x="169" y="578" type="line"/>
      <point x="169" y="700" type="line"/>
      <point x="522" y="700" type="line"/>
      <point x="522" y="578" type="line"/>
    </contour>
    <contour>
      <point x="169" y="311" type="line"/>
      <point x="169" y="431" type="line"/>
      <point x="502" y="431" type="line"/>
      <point x="502" y="311" type="line"/>
    </contour>
    <contour>
      <point x="76" y="700" type="line"/>
      <point x="216" y="700" type="line"/>
      <point x="216" y="0" type="line"/>
      <point x="76" y="0" type="line"/>
    </contour>
    <contour>
      <point x="298" y="888" type="line"/>
      <point x="395" y="976" type="line"/>
      <point x="485" y="914" type="line"/>
      <point x="298" y="774" type="line"/>
      <point x="112" y="914" type="line"/>
      <point x="202" y="976" type="line"/>
    </contour>
  </outline>
</glyph>
<glyph name="Gcircumflex" format="2">
  <advance width="802"/>
  <unicode hex="011C"/>
  <outline>
    <contour>
      <point x="416" y="260" type="line"/>
      <point x="416" y="374" type="line"/>
      <point x="761" y="374" type="line"/>
      <point x="770" y="161"/>
      <point x="641" y="-19"/>
      <point x="410" y="-19" type="curve" smooth="yes"/>
      <point x="193" y="-19"/>
      <point x="36" y="132"/>
      <point x="36" y="350" type="curve" smooth="yes"/>
      <point x="36" y="568"/>
      <point x="197" y="714"/>
      <point x="414" y="714" type="curve" smooth="yes"/>
      <point x="556" y="714"/>
      <point x="659" y="651"/>
      <point x="723" y="554" type="curve"/>
      <point x="600" y="483" type="line"/>
      <point x="565" y="544"/>
      <point x="504" y="586"/>
      <point x="414" y="586" type="curve" smooth="yes"/>
      <point x="288" y="586"/>
      <point x="186" y="496"/>
      <point x="186" y="350" type="curve" smooth="yes"/>
      <point x="186" y="204"/>
      <point x="283" y="110"/>
      <point x="414" y="110" type="curve" smooth="yes"/>
      <point x="528" y="110"/>
      <point x="593" y="176"/>
      <point x="616" y="260" type="curve"/>
    </contour>
    <contour>
      <point x="414" y="863" type="line"/>
      <point x="317" y="774" type="line"/>
      <point x="229" y="836" type="line"/>
      <point x="414" y="976" type="line"/>
      <point x="600" y="836" type="line"/>
      <point x="511" y="774" type="line"/>
    </contour>
  </outline>
</glyph>
<glyph name="gcircumflex" format="1">
  <advance width="598"/>
  <unicode hex="011D"/>
  <outline>
    <contour>
      <point x="42" y="-32" type="curve"/>
      <point x="170" y="-32" type="line"/>
      <point x="174" y="-91"/>
      <point x="219" y="-129"/>
      <point x="287" y="-129" type="curve" smooth="yes"/>
      <point x="353" y="-129"/>
      <point x="411" y="-84"/>
      <point x="411" y="10" type="curve" smooth="yes"/>
      <point x="411" y="460" type="line"/>
      <point x="537" y="460" type="line"/>
      <point x="537" y="10" type="line" smooth="yes"/>
      <point x="537" y="-162"/>
      <point x="424" y="-237"/>
      <point x="291" y="-237" type="curve" smooth="yes"/>
      <point x="130" y="-237"/>
      <point x="50" y="-153"/>
    </contour>
    <contour>
      <point x="33" y="234" type="curve" smooth="yes"/>
      <point x="33" y="387"/>
      <point x="138" y="470"/>
      <point x="254" y="470" type="curve" smooth="yes"/>
      <point x="369" y="470"/>
      <point x="452" y="383"/>
      <point x="452" y="234" type="curve" smooth="yes"/>
      <point x="452" y="85"/>
      <point x="369" y="-1"/>
      <point x="254" y="-1" type="curve" smooth="yes"/>
      <point x="138" y="-1"/>
      <point x="33" y="81"/>
    </contour>
    <contour>
      <point x="169" y="234" type="curve" smooth="yes"/>
      <point x="169" y="152"/>
      <point x="226" y="107"/>
      <point x="293" y="107" type="curve" smooth="yes"/>
      <point x="350" y="107"/>
      <point x="411" y="150"/>
      <point x="411" y="234" type="curve" smooth="yes"/>
      <point x="411" y="318"/>
      <point x="350" y="362"/>
      <point x="293" y="362" type="curve" smooth="yes"/>
      <point x="226" y="362"/>
      <point x="169" y="316"/>
    </contour>
    <contour>
      <point x="303" y="619" type="line"/>
      <point x="206" y="530" type="line"/>
      <point x="116" y="592" type="line"/>
      <point x="303" y="732" type="line"/>
      <point x="489" y="592" type="line"/>
      <point x="399" y="530" type="line"/>
    </contour>
  </outline>
</glyph>
<glyph name="Gbreve" format="1">
  <advance width="802"/>
  <unicode hex="011E"/>
  <outline>
    <contour>
      <point x="416" y="260" type="line"/>
      <point x="416" y="375" type="line"/>
      <point x="762" y="375" type="line"/>
      <point x="771" y="161"/>
      <point x="642" y="-19"/>
      <point x="410" y="-19" type="curve" smooth="yes"/>
      <point x="193" y="-19"/>
      <point x="36" y="132"/>
      <point x="36" y="350" type="curve" smooth="yes"/>
      <point x="36" y="568"/>
      <point x="198" y="714"/>
      <point x="415" y="714" type="curve" smooth="yes"/>
      <point x="557" y="714"/>
      <point x="659" y="651"/>
      <point x="723" y="554" type="curve"/>
      <point x="600" y="482" type="line"/>
      <point x="565" y="543"/>
      <point x="504" y="585"/>
      <point x="415" y="585" type="curve" smooth="yes"/>
      <point x="289" y="585"/>
      <point x="187" y="495"/>
      <point x="187" y="350" type="curve" smooth="yes"/>
      <point x="187" y="205"/>
      <point x="285" y="110"/>
      <point x="415" y="110" type="curve" smooth="yes"/>
      <point x="528" y="110"/>
      <point x="593" y="176"/>
      <point x="616" y="260" type="curve"/>
    </contour>
    <contour>
      <point x="252" y="919" type="curve"/>
      <point x="343" y="919" type="line"/>
      <point x="343" y="886"/>
      <point x="367" y="855"/>
      <point x="415" y="855" type="curve" smooth="yes"/>
      <point x="463" y="855"/>
      <point x="486" y="886"/>
      <point x="486" y="919" type="curve"/>
      <point x="577" y="919" type="line"/>
      <point x="577" y="841"/>
      <point x="520" y="774"/>
      <point x="415" y="774" type="curve" smooth="yes"/>
      <point x="310" y="774"/>
      <point x="252" y="841"/>
    </contour>
  </outline>
</glyph>
<glyph name="Gdotaccent" format="1">
  <advance width="802"/>
  <unicode hex="0120"/>
  <outline>
    <contour>
      <point x="416" y="260" type="line"/>
      <point x="416" y="375" type="line"/>
      <point x="762" y="375" type="line"/>
      <point x="771" y="161"/>
      <point x="642" y="-19"/>
      <point x="410" y="-19" type="curve" smooth="yes"/>
      <point x="193" y="-19"/>
      <point x="36" y="132"/>
      <point x="36" y="350" type="curve" smooth="yes"/>
      <point x="36" y="568"/>
      <point x="198" y="714"/>
      <point x="415" y="714" type="curve" smooth="yes"/>
      <point x="557" y="714"/>
      <point x="659" y="651"/>
      <point x="723" y="554" type="curve"/>
      <point x="600" y="482" type="line"/>
      <point x="565" y="543"/>
      <point x="504" y="585"/>
      <point x="415" y="585" type="curve" smooth="yes"/>
      <point x="289" y="585"/>
      <point x="187" y="495"/>
      <point x="187" y="350" type="curve" smooth="yes"/>
      <point x="187" y="205"/>
      <point x="285" y="110"/>
      <point x="415" y="110" type="curve" smooth="yes"/>
      <point x="528" y="110"/>
      <point x="593" y="176"/>
      <point x="616" y="260" type="curve"/>
    </contour>
    <contour>
      <point x="336" y="848" type="curve" smooth="yes"/>
      <point x="336" y="891"/>
      <point x="372" y="922"/>
      <point x="415" y="922" type="curve" smooth="yes"/>
      <point x="458" y="922"/>
      <point x="493" y="891"/>
      <point x="493" y="848" type="curve" smooth="yes"/>
      <point x="493" y="805"/>
      <point x="458" y="774"/>
      <point x="415" y="774" type="curve" smooth="yes"/>
      <point x="372" y="774"/>
      <point x="336" y="805"/>
    </contour>
  </outline>
</glyph>
<glyph name="gdotaccent" format="1">
  <advance width="598"/>
  <unicode hex="0121"/>
  <outline>
    <contour>
      <point x="42" y="-32" type="curve"/>
      <point x="170" y="-32" type="line"/>
      <point x="174" y="-91"/>
      <point x="219" y="-129"/>
      <point x="287" y="-129" type="curve" smooth="yes"/>
      <point x="353" y="-129"/>
      <point x="411" y="-84"/>
      <point x="411" y="10" type="curve" smooth="yes"/>
      <point x="411" y="460" type="line"/>
      <point x="537" y="460" type="line"/>
      <point x="537" y="10" type="line" smooth="yes"/>
      <point x="537" y="-162"/>
      <point x="424" y="-237"/>
      <point x="291" y="-237" type="curve" smooth="yes"/>
      <point x="130" y="-237"/>
      <point x="50" y="-153"/>
    </contour>
    <contour>
      <point x="33" y="234" type="curve" smooth="yes"/>
      <point x="33" y="387"/>
      <point x="138" y="470"/>
      <point x="254" y="470" type="curve" smooth="yes"/>
      <point x="369" y="470"/>
      <point x="452" y="383"/>
      <point x="452" y="234" type="curve" smooth="yes"/>
      <point x="452" y="85"/>
      <point x="369" y="-1"/>
      <point x="254" y="-1" type="curve" smooth="yes"/>
      <point x="138" y="-1"/>
      <point x="33" y="81"/>
    </contour>
    <contour>
      <point x="169" y="234" type="curve" smooth="yes"/>
      <point x="169" y="152"/>
      <point x="226" y="107"/>
      <point x="293" y="107" type="curve" smooth="yes"/>
      <point x="350" y="107"/>
      <point x="411" y="150"/>
      <point x="411" y="234" type="curve" smooth="yes"/>
      <point x="411" y="318"/>
      <point x="350" y="362"/>
      <point x="293" y="362" type="curve" smooth="yes"/>
      <point x="226" y="362"/>
      <point x="169" y="316"/>
    </contour>
    <contour>
      <point x="222" y="627" type="curve" smooth="yes"/>
      <point x="222" y="670"/>
      <point x="258" y="701"/>
      <point x="301" y="701" type="curve" smooth="yes"/>
      <point x="344" y="701"/>
      <point x="379" y="670"/>
      <point x="379" y="627" type="curve" smooth="yes"/>
      <point x="379" y="584"/>
      <point x="344" y="553"/>
      <point x="301" y="553" type="curve" smooth="yes"/>
      <point x="258" y="553"/>
      <point x="222" y="584"/>
    </contour>
  </outline>
</glyph>
<glyph name="uni0122" format="1">
  <advance width="802"/>
  <unicode hex="0122"/>
  <outline>
    <contour>
      <point x="416" y="260" type="line"/>
      <point x="416" y="375" type="line"/>
      <point x="762" y="375" type="line"/>
      <point x="771" y="161"/>
      <point x="642" y="-19"/>
      <point x="410" y="-19" type="curve" smooth="yes"/>
      <point x="193" y="-19"/>
      <point x="36" y="132"/>
      <point x="36" y="350" type="curve" smooth="yes"/>
      <point x="36" y="568"/>
      <point x="198" y="714"/>
      <point x="415" y="714" type="curve" smooth="yes"/>
      <point x="557" y="714"/>
      <point x="659" y="651"/>
      <point x="723" y="554" type="curve"/>
      <point x="600" y="482" type="line"/>
      <point x="565" y="543"/>
      <point x="504" y="585"/>
      <point x="415" y="585" type="curve" smooth="yes"/>
      <point x="289" y="585"/>
      <point x="187" y="495"/>
      <point x="187" y="350" type="curve" smooth="yes"/>
      <point x="187" y="205"/>
      <point x="285" y="110"/>
      <point x="415" y="110" type="curve" smooth="yes"/>
      <point x="528" y="110"/>
      <point x="593" y="176"/>
      <point x="616" y="260" type="curve"/>
    </contour>
    <contour>
      <point x="367" y="-79" type="line"/>
      <point x="498" y="-111" type="line"/>
      <point x="377" y="-361" type="line"/>
      <point x="279" y="-338" type="line"/>
    </contour>
  </outline>
</glyph>
<glyph name="Hcircumflex" format="2">
  <advance width="764"/>
  <unicode hex="0124"/>
  <outline>
    <contour>
      <point x="123" y="308" type="line"/>
      <point x="123" y="437" type="line"/>
      <point x="637" y="437" type="line"/>
      <point x="637" y="308" type="line"/>
    </contour>
    <contour>
      <point x="546" y="700" type="line"/>
      <point x="689" y="700" type="line"/>
      <point x="689" y="0" type="line"/>
      <point x="546" y="0" type="line"/>
    </contour>
    <contour>
      <point x="76" y="700" type="line"/>
      <point x="219" y="700" type="line"/>
      <point x="219" y="0" type="line"/>
      <point x="76" y="0" type="line"/>
    </contour>
    <contour>
      <point x="383" y="863" type="line"/>
      <point x="286" y="774" type="line"/>
      <point x="197" y="836" type="line"/>
      <point x="383" y="976" type="line"/>
      <point x="569" y="836" type="line"/>
      <point x="480" y="774" type="line"/>
    </contour>
  </outline>
</glyph>
<glyph name="hcircumflex" format="1">
  <advance width="555"/>
  <unicode hex="0125"/>
  <outline>
    <contour>
      <point x="195" y="780" type="line"/>
      <point x="195" y="0" type="line"/>
      <point x="64" y="0" type="line"/>
      <point x="64" y="780" type="line"/>
    </contour>
    <contour>
      <point x="361" y="280" type="line" smooth="yes"/>
      <point x="361" y="341"/>
      <point x="339" y="373"/>
      <point x="285" y="373" type="curve" smooth="yes"/>
      <point x="230" y="373"/>
      <point x="195" y="337"/>
      <point x="195" y="280" type="curve"/>
      <point x="163" y="280" type="line"/>
      <point x="163" y="389"/>
      <point x="226" y="475"/>
      <point x="334" y="475" type="curve" smooth="yes"/>
      <point x="442" y="475"/>
      <point x="492" y="414"/>
      <point x="492" y="299" type="curve" smooth="yes"/>
      <point x="492" y="0" type="line"/>
      <point x="361" y="0" type="line"/>
    </contour>
    <contour>
      <point x="199" y="928" type="line"/>
      <point x="103" y="840" type="line"/>
      <point x="13" y="902" type="line"/>
      <point x="199" y="1042" type="line"/>
      <point x="386" y="902" type="line"/>
      <point x="296" y="840" type="line"/>
    </contour>
  </outline>
</glyph>
<glyph name="Itilde" format="2">
  <advance width="296"/>
  <unicode hex="0128"/>
  <outline>
    <contour>
      <point x="76" y="700" type="line"/>
      <point x="221" y="700" type="line"/>
      <point x="221" y="0" type="line"/>
      <point x="76" y="0" type="line"/>
    </contour>
    <contour>
      <point x="-38" y="831" type="line"/>
      <point x="-28" y="880"/>
      <point x="19" y="922"/>
      <point x="77" y="922" type="curve" smooth="yes"/>
      <point x="143" y="922"/>
      <point x="153" y="871"/>
      <point x="209" y="871" type="curve" smooth="yes"/>
      <point x="232" y="871"/>
      <point x="252" y="891"/>
      <point x="272" y="923" type="curve"/>
      <point x="336" y="858" type="line"/>
      <point x="320" y="821"/>
      <point x="269" y="777"/>
      <point x="210" y="777" type="curve" smooth="yes"/>
      <point x="155" y="777"/>
      <point x="124" y="828"/>
      <point x="76" y="828" type="curve" smooth="yes"/>
      <point x="37" y="828"/>
      <point x="28" y="792"/>
      <point x="28" y="777" type="curve"/>
    </contour>
  </outline>
</glyph>
<glyph name="Imacron" format="2">
  <advance width="296"/>
  <unicode hex="012A"/>
  <outline>
    <contour>
      <point x="76" y="700" type="line"/>
      <point x="221" y="700" type="line"/>
      <point x="221" y="0" type="line"/>
      <point x="76" y="0" type="line"/>
    </contour>
    <contour>
      <point x="-34" y="774" type="line"/>
      <point x="-34" y="888" type="line"/>
      <point x="331" y="888" type="line"/>
      <point x="331" y="774" type="line"/>
    </contour>
  </outline>
</glyph>
<glyph name="imacron" format="1">
  <advance width="271"/>
  <unicode hex="012B"/>
  <outline>
    <contour>
      <point x="72" y="460" type="line"/>
      <point x="199" y="460" type="line"/>
      <point x="199" y="0" type="line"/>
      <point x="72" y="0" type="line"/>
    </contour>
    <contour>
      <point x="-47" y="530" type="line"/>
      <point x="-47" y="645" type="line"/>
      <point x="318" y="645" type="line"/>
      <point x="318" y="530" type="line"/>
    </contour>
  </outline>
</glyph>
<glyph name="Ibreve" format="1">
  <advance width="297"/>
  <unicode hex="012C"/>
  <outline>
    <contour>
      <point x="76" y="700" type="line"/>
      <point x="222" y="700" type="line"/>
      <point x="222" y="0" type="line"/>
      <point x="76" y="0" type="line"/>
    </contour>
    <contour>
      <point x="-13" y="919" type="curve"/>
      <point x="77" y="919" type="line"/>
      <point x="77" y="886"/>
      <point x="101" y="855"/>
      <point x="149" y="855" type="curve" smooth="yes"/>
      <point x="197" y="855"/>
      <point x="221" y="886"/>
      <point x="221" y="919" type="curve"/>
      <point x="311" y="919" type="line"/>
      <point x="311" y="841"/>
      <point x="254" y="774"/>
      <point x="149" y="774" type="curve" smooth="yes"/>
      <point x="44" y="774"/>
      <point x="-13" y="841"/>
    </contour>
  </outline>
</glyph>
<glyph name="ibreve" format="1">
  <advance width="271"/>
  <unicode hex="012D"/>
  <outline>
    <contour>
      <point x="72" y="460" type="line"/>
      <point x="199" y="460" type="line"/>
      <point x="199" y="0" type="line"/>
      <point x="72" y="0" type="line"/>
    </contour>
    <contour>
      <point x="-27" y="675" type="curve"/>
      <point x="64" y="675" type="line"/>
      <point x="64" y="642"/>
      <point x="87" y="611"/>
      <point x="135" y="611" type="curve" smooth="yes"/>
      <point x="183" y="611"/>
      <point x="207" y="642"/>
      <point x="207" y="675" type="curve"/>
      <point x="298" y="675" type="line"/>
      <point x="298" y="597"/>
      <point x="240" y="530"/>
      <point x="135" y="530" type="curve" smooth="yes"/>
      <point x="30" y="530"/>
      <point x="-27" y="597"/>
    </contour>
  </outline>
</glyph>
<glyph name="Iogonek" format="1">
  <advance width="297"/>
  <unicode hex="012E"/>
  <outline>
    <contour>
      <point x="76" y="700" type="line"/>
      <point x="222" y="700" type="line"/>
      <point x="222" y="0" type="line"/>
      <point x="76" y="0" type="line"/>
    </contour>
    <contour>
      <point x="209" y="-115" type="curve"/>
      <point x="242" y="-179" type="line"/>
      <point x="227" y="-199"/>
      <point x="197" y="-219"/>
      <point x="145" y="-219" type="curve" smooth="yes"/>
      <point x="74" y="-219"/>
      <point x="26" y="-182"/>
      <point x="26" y="-119" type="curve" smooth="yes"/>
      <point x="26" y="-56"/>
      <point x="93" y="-10"/>
      <point x="163" y="26" type="curve"/>
      <point x="204" y="1" type="line"/>
      <point x="152" y="-25"/>
      <point x="120" y="-61"/>
      <point x="120" y="-94" type="curve" smooth="yes"/>
      <point x="120" y="-122"/>
      <point x="133" y="-135"/>
      <point x="159" y="-135" type="curve" smooth="yes"/>
      <point x="181" y="-135"/>
      <point x="195" y="-128"/>
    </contour>
  </outline>
</glyph>
<glyph name="iogonek" format="1">
  <advance width="271"/>
  <unicode hex="012F"/>
  <outline>
    <contour>
      <point x="58" y="638" type="curve" smooth="yes"/>
      <point x="58" y="680"/>
      <point x="92" y="712"/>
      <point x="136" y="712" type="curve" smooth="yes"/>
      <point x="180" y="712"/>
      <point x="214" y="680"/>
      <point x="214" y="638" type="curve" smooth="yes"/>
      <point x="214" y="596"/>
      <point x="180" y="564"/>
      <point x="136" y="564" type="curve" smooth="yes"/>
      <point x="92" y="564"/>
      <point x="58" y="596"/>
    </contour>
    <contour>
      <point x="72" y="460" type="line"/>
      <point x="198" y="460" type="line"/>
      <point x="198" y="0" type="line"/>
      <point x="72" y="0" type="line"/>
    </contour>
    <contour>
      <point x="186" y="-117" type="curve"/>
      <point x="219" y="-180" type="line"/>
      <point x="204" y="-200"/>
      <point x="174" y="-220"/>
      <point x="122" y="-220" type="curve" smooth="yes"/>
      <point x="51" y="-220"/>
      <point x="4" y="-183"/>
      <point x="4" y="-120" type="curve" smooth="yes"/>
      <point x="4" y="-57"/>
      <point x="70" y="-11"/>
      <point x="140" y="25" type="curve"/>
      <point x="181" y="0" type="line"/>
      <point x="129" y="-26"/>
      <point x="97" y="-63"/>
      <point x="97" y="-96" type="curve" smooth="yes"/>
      <point x="97" y="-124"/>
      <point x="110" y="-137"/>
      <point x="136" y="-137" type="curve" smooth="yes"/>
      <point x="158" y="-137"/>
      <point x="172" y="-130"/>
    </contour>
  </outline>
</glyph>
<glyph name="Idotaccent" format="2">
  <advance width="296"/>
  <unicode hex="0130"/>
  <outline>
    <contour>
      <point x="76" y="700" type="line"/>
      <point x="221" y="700" type="line"/>
      <point x="221" y="0" type="line"/>
      <point x="76" y="0" type="line"/>
    </contour>
    <contour>
      <point x="70" y="848" type="curve" smooth="yes"/>
      <point x="70" y="891"/>
      <point x="105" y="922"/>
      <point x="148" y="922" type="curve" smooth="yes"/>
      <point x="191" y="922"/>
      <point x="226" y="891"/>
      <point x="226" y="848" type="curve" smooth="yes"/>
      <point x="226" y="805"/>
      <point x="191" y="774"/>
      <point x="148" y="774" type="curve" smooth="yes"/>
      <point x="105" y="774"/>
      <point x="70" y="805"/>
    </contour>
  </outline>
</glyph>
<glyph name="IJ" format="1">
  <advance width="584"/>
  <unicode hex="0132"/>
  <outline>
    <contour>
      <point x="210" y="-75" type="line"/>
      <point x="228" y="-94"/>
      <point x="259" y="-109"/>
      <point x="291" y="-109" type="curve" smooth="yes"/>
      <point x="321" y="-109"/>
      <point x="356" y="-88"/>
      <point x="356" y="-26" type="curve" smooth="yes"/>
      <point x="356" y="700" type="line"/>
      <point x="509" y="700" type="line"/>
      <point x="509" y="-56" type="line" smooth="yes"/>
      <point x="509" y="-183"/>
      <point x="417" y="-233"/>
      <point x="301" y="-233" type="curve" smooth="yes"/>
      <point x="230" y="-233"/>
      <point x="165" y="-203"/>
      <point x="132" y="-179" type="curve"/>
    </contour>
    <contour>
      <point x="76" y="700" type="line"/>
      <point x="222" y="700" type="line"/>
      <point x="222" y="0" type="line"/>
      <point x="76" y="0" type="line"/>
    </contour>
  </outline>
</glyph>
<glyph name="ij" format="2">
  <advance width="534"/>
  <unicode hex="0133"/>
  <outline>
    <contour>
      <point x="321" y="638" type="curve" smooth="yes"/>
      <point x="321" y="681"/>
      <point x="356" y="711"/>
      <point x="399" y="711" type="curve" smooth="yes"/>
      <point x="442" y="711"/>
      <point x="477" y="681"/>
      <point x="477" y="638" type="curve" smooth="yes"/>
      <point x="477" y="595"/>
      <point x="442" y="564"/>
      <point x="399" y="564" type="curve" smooth="yes"/>
      <point x="356" y="564"/>
      <point x="321" y="595"/>
    </contour>
    <contour>
      <point x="240" y="-88" type="line"/>
      <point x="254" y="-108"/>
      <point x="271" y="-114"/>
      <point x="288" y="-114" type="curve" smooth="yes"/>
      <point x="318" y="-114"/>
      <point x="336" y="-92"/>
      <point x="336" y="-39" type="curve" smooth="yes"/>
      <point x="336" y="460" type="line"/>
      <point x="461" y="460" type="line"/>
      <point x="461" y="-69" type="line" smooth="yes"/>
      <point x="461" y="-174"/>
      <point x="406" y="-233"/>
      <point x="300" y="-233" type="curve" smooth="yes"/>
      <point x="240" y="-233"/>
      <point x="204" y="-206"/>
      <point x="185" y="-186" type="curve"/>
    </contour>
    <contour>
      <point x="58" y="638" type="curve" smooth="yes"/>
      <point x="58" y="681"/>
      <point x="93" y="711"/>
      <point x="136" y="711" type="curve" smooth="yes"/>
      <point x="179" y="711"/>
      <point x="214" y="681"/>
      <point x="214" y="638" type="curve" smooth="yes"/>
      <point x="214" y="595"/>
      <point x="179" y="564"/>
      <point x="136" y="564" type="curve" smooth="yes"/>
      <point x="93" y="564"/>
      <point x="58" y="595"/>
    </contour>
    <contour>
      <point x="72" y="460" type="line"/>
      <point x="199" y="460" type="line"/>
      <point x="199" y="0" type="line"/>
      <point x="72" y="0" type="line"/>
    </contour>
  </outline>
</glyph>
<glyph name="uni0136" format="1">
  <advance width="660"/>
  <unicode hex="0136"/>
  <outline>
    <contour>
      <point x="76" y="700" type="line"/>
      <point x="224" y="700" type="line"/>
      <point x="224" y="0" type="line"/>
      <point x="76" y="0" type="line"/>
    </contour>
    <contour>
      <point x="473" y="700" type="line"/>
      <point x="644" y="700" type="line"/>
      <point x="355" y="372" type="line"/>
      <point x="659" y="0" type="line"/>
      <point x="484" y="0" type="line"/>
      <point x="182" y="368" type="line"/>
    </contour>
    <contour>
      <point x="328" y="-60" type="line"/>
      <point x="459" y="-92" type="line"/>
      <point x="338" y="-342" type="line"/>
      <point x="240" y="-319" type="line"/>
    </contour>
  </outline>
</glyph>
<glyph name="uni0137" format="1">
  <advance width="536"/>
  <unicode hex="0137"/>
  <outline>
    <contour>
      <point x="61" y="780" type="line"/>
      <point x="187" y="780" type="line"/>
      <point x="187" y="0" type="line"/>
      <point x="61" y="0" type="line"/>
    </contour>
    <contour>
      <point x="356" y="460" type="line"/>
      <point x="512" y="460" type="line"/>
      <point x="315" y="270" type="line"/>
      <point x="532" y="0" type="line"/>
      <point x="377" y="0" type="line"/>
      <point x="158" y="270" type="line"/>
    </contour>
    <contour>
      <point x="258" y="-60" type="line"/>
      <point x="389" y="-92" type="line"/>
      <point x="267" y="-342" type="line"/>
      <point x="170" y="-319" type="line"/>
    </contour>
  </outline>
</glyph>
<glyph name="kgreenlandic" format="1">
  <advance width="536"/>
  <unicode hex="0138"/>
  <outline>
    <contour>
      <point x="61" y="460" type="line"/>
      <point x="187" y="460" type="line"/>
      <point x="187" y="0" type="line"/>
      <point x="61" y="0" type="line"/>
    </contour>
    <contour>
      <point x="356" y="460" type="line"/>
      <point x="512" y="460" type="line"/>
      <point x="315" y="270" type="line"/>
      <point x="532" y="0" type="line"/>
      <point x="377" y="0" type="line"/>
      <point x="158" y="270" type="line"/>
    </contour>
  </outline>
</glyph>
<glyph name="Lacute" format="1">
  <advance width="505"/>
  <unicode hex="0139"/>
  <outline>
    <contour>
      <point x="76" y="700" type="line"/>
      <point x="220" y="700" type="line"/>
      <point x="220" y="126" type="line"/>
      <point x="499" y="126" type="line"/>
      <point x="499" y="0" type="line"/>
      <point x="76" y="0" type="line"/>
    </contour>
    <contour>
      <point x="440" y="924" type="line"/>
      <point x="260" y="774" type="line"/>
      <point x="186" y="813" type="line"/>
      <point x="336" y="973" type="line"/>
    </contour>
  </outline>
</glyph>
<glyph name="uni013B" format="1">
  <advance width="505"/>
  <unicode hex="013B"/>
  <outline>
    <contour>
      <point x="76" y="700" type="line"/>
      <point x="220" y="700" type="line"/>
      <point x="220" y="126" type="line"/>
      <point x="499" y="126" type="line"/>
      <point x="499" y="0" type="line"/>
      <point x="76" y="0" type="line"/>
    </contour>
    <contour>
      <point x="266" y="-60" type="line"/>
      <point x="397" y="-92" type="line"/>
      <point x="276" y="-342" type="line"/>
      <point x="178" y="-319" type="line"/>
    </contour>
  </outline>
</glyph>
<glyph name="Lcaron" format="1">
  <advance width="505"/>
  <unicode hex="013D"/>
  <outline>
    <contour>
      <point x="76" y="700" type="line"/>
      <point x="220" y="700" type="line"/>
      <point x="220" y="126" type="line"/>
      <point x="499" y="126" type="line"/>
      <point x="499" y="0" type="line"/>
      <point x="76" y="0" type="line"/>
    </contour>
    <contour>
      <point x="387" y="714" type="line"/>
      <point x="518" y="683" type="line"/>
      <point x="397" y="433" type="line"/>
      <point x="299" y="455" type="line"/>
    </contour>
  </outline>
</glyph>
<glyph name="lcaron" format="1">
  <advance width="258"/>
  <unicode hex="013E"/>
  <outline>
    <contour>
      <point x="64" y="780" type="line"/>
      <point x="195" y="780" type="line"/>
      <point x="195" y="0" type="line"/>
      <point x="64" y="0" type="line"/>
    </contour>
    <contour>
      <point x="333" y="780" type="line"/>
      <point x="463" y="748" type="line"/>
      <point x="342" y="498" type="line"/>
      <point x="245" y="521" type="line"/>
    </contour>
  </outline>
</glyph>
<glyph name="Ldot" format="1">
  <advance width="505"/>
  <unicode hex="013F"/>
  <outline>
    <contour>
      <point x="76" y="700" type="line"/>
      <point x="220" y="700" type="line"/>
      <point x="220" y="126" type="line"/>
      <point x="499" y="126" type="line"/>
      <point x="499" y="0" type="line"/>
      <point x="76" y="0" type="line"/>
    </contour>
    <contour>
      <point x="303" y="426" type="curve" smooth="yes"/>
      <point x="303" y="471"/>
      <point x="338" y="507"/>
      <point x="386" y="507" type="curve" smooth="yes"/>
      <point x="434" y="507"/>
      <point x="469" y="471"/>
      <point x="469" y="426" type="curve" smooth="yes"/>
      <point x="469" y="381"/>
      <point x="434" y="345"/>
      <point x="386" y="345" type="curve" smooth="yes"/>
      <point x="338" y="345"/>
      <point x="303" y="381"/>
    </contour>
  </outline>
</glyph>
<glyph name="ldot" format="1">
  <advance width="445"/>
  <unicode hex="0140"/>
  <outline>
    <contour>
      <point x="64" y="780" type="line"/>
      <point x="195" y="780" type="line"/>
      <point x="195" y="0" type="line"/>
      <point x="64" y="0" type="line"/>
    </contour>
    <contour>
      <point x="241" y="411" type="curve" smooth="yes"/>
      <point x="241" y="456"/>
      <point x="276" y="492"/>
      <point x="324" y="492" type="curve" smooth="yes"/>
      <point x="372" y="492"/>
      <point x="407" y="456"/>
      <point x="407" y="411" type="curve" smooth="yes"/>
      <point x="407" y="366"/>
      <point x="372" y="329"/>
      <point x="324" y="329" type="curve" smooth="yes"/>
      <point x="276" y="329"/>
      <point x="241" y="366"/>
    </contour>
  </outline>
</glyph>
<glyph name="Nacute" format="1">
  <advance width="788"/>
  <unicode hex="0143"/>
  <outline>
    <contour>
      <point x="573" y="700" type="line"/>
      <point x="713" y="700" type="line"/>
      <point x="713" y="-35" type="line"/>
      <point x="216" y="431" type="line"/>
      <point x="216" y="0" type="line"/>
      <point x="76" y="0" type="line"/>
      <point x="76" y="735" type="line"/>
      <point x="573" y="269" type="line"/>
    </contour>
    <contour>
      <point x="551" y="909" type="line"/>
      <point x="371" y="759" type="line"/>
      <point x="298" y="798" type="line"/>
      <point x="448" y="958" type="line"/>
    </contour>
  </outline>
</glyph>
<glyph name="nacute" format="1">
  <advance width="560"/>
  <unicode hex="0144"/>
  <outline>
    <contour>
      <point x="195" y="460" type="line"/>
      <point x="195" y="0" type="line"/>
      <point x="64" y="0" type="line"/>
      <point x="64" y="460" type="line"/>
    </contour>
    <contour>
      <point x="361" y="280" type="line" smooth="yes"/>
      <point x="361" y="341"/>
      <point x="339" y="373"/>
      <point x="285" y="373" type="curve" smooth="yes"/>
      <point x="230" y="373"/>
      <point x="195" y="337"/>
      <point x="195" y="280" type="curve"/>
      <point x="169" y="276" type="line"/>
      <point x="169" y="385"/>
      <point x="226" y="470"/>
      <point x="334" y="470" type="curve" smooth="yes"/>
      <point x="442" y="470"/>
      <point x="496" y="409"/>
      <point x="496" y="294" type="curve" smooth="yes"/>
      <point x="496" y="0" type="line"/>
      <point x="361" y="0" type="line"/>
    </contour>
    <contour>
      <point x="437" y="680" type="line"/>
      <point x="257" y="530" type="line"/>
      <point x="184" y="569" type="line"/>
      <point x="334" y="729" type="line"/>
    </contour>
  </outline>
</glyph>
<glyph name="uni0146" format="1">
  <advance width="560"/>
  <unicode hex="0146"/>
  <outline>
    <contour>
      <point x="195" y="460" type="line"/>
      <point x="195" y="0" type="line"/>
      <point x="64" y="0" type="line"/>
      <point x="64" y="460" type="line"/>
    </contour>
    <contour>
      <point x="361" y="280" type="line" smooth="yes"/>
      <point x="361" y="341"/>
      <point x="339" y="373"/>
      <point x="285" y="373" type="curve" smooth="yes"/>
      <point x="230" y="373"/>
      <point x="195" y="337"/>
      <point x="195" y="280" type="curve"/>
      <point x="163" y="276" type="line"/>
      <point x="163" y="385"/>
      <point x="226" y="470"/>
      <point x="334" y="470" type="curve" smooth="yes"/>
      <point x="442" y="470"/>
      <point x="496" y="409"/>
      <point x="496" y="294" type="curve" smooth="yes"/>
      <point x="496" y="0" type="line"/>
      <point x="361" y="0" type="line"/>
    </contour>
    <contour>
      <point x="259" y="-60" type="line"/>
      <point x="389" y="-92" type="line"/>
      <point x="268" y="-342" type="line"/>
      <point x="171" y="-319" type="line"/>
    </contour>
  </outline>
</glyph>
<glyph name="Ncaron" format="1">
  <advance width="788"/>
  <unicode hex="0147"/>
  <outline>
    <contour>
      <point x="382" y="895" type="line"/>
      <point x="479" y="984" type="line"/>
      <point x="569" y="922" type="line"/>
      <point x="382" y="782" type="line"/>
      <point x="196" y="922" type="line"/>
      <point x="286" y="984" type="line"/>
    </contour>
    <contour>
      <point x="573" y="700" type="line"/>
      <point x="713" y="700" type="line"/>
      <point x="713" y="-35" type="line"/>
      <point x="216" y="431" type="line"/>
      <point x="216" y="0" type="line"/>
      <point x="76" y="0" type="line"/>
      <point x="76" y="735" type="line"/>
      <point x="573" y="269" type="line"/>
    </contour>
  </outline>
</glyph>
<glyph name="ncaron" format="1">
  <advance width="560"/>
  <unicode hex="0148"/>
  <outline>
    <contour>
      <point x="195" y="460" type="line"/>
      <point x="195" y="0" type="line"/>
      <point x="64" y="0" type="line"/>
      <point x="64" y="460" type="line"/>
    </contour>
    <contour>
      <point x="361" y="280" type="line" smooth="yes"/>
      <point x="361" y="341"/>
      <point x="339" y="373"/>
      <point x="285" y="373" type="curve" smooth="yes"/>
      <point x="230" y="373"/>
      <point x="195" y="337"/>
      <point x="195" y="280" type="curve"/>
      <point x="163" y="276" type="line"/>
      <point x="163" y="385"/>
      <point x="226" y="470"/>
      <point x="334" y="470" type="curve" smooth="yes"/>
      <point x="442" y="470"/>
      <point x="496" y="409"/>
      <point x="496" y="294" type="curve" smooth="yes"/>
      <point x="496" y="0" type="line"/>
      <point x="361" y="0" type="line"/>
    </contour>
    <contour>
      <point x="280" y="644" type="line"/>
      <point x="376" y="732" type="line"/>
      <point x="466" y="670" type="line"/>
      <point x="280" y="530" type="line"/>
      <point x="93" y="670" type="line"/>
      <point x="183" y="732" type="line"/>
    </contour>
  </outline>
</glyph>
<glyph name="napostrophe" format="1">
  <advance width="714"/>
  <unicode hex="0149"/>
  <outline>
    <contour>
      <point x="349" y="460" type="line"/>
      <point x="349" y="0" type="line"/>
      <point x="218" y="0" type="line"/>
      <point x="218" y="460" type="line"/>
    </contour>
    <contour>
      <point x="515" y="280" type="line" smooth="yes"/>
      <point x="515" y="341"/>
      <point x="493" y="373"/>
      <point x="439" y="373" type="curve" smooth="yes"/>
      <point x="384" y="373"/>
      <point x="349" y="337"/>
      <point x="349" y="280" type="curve"/>
      <point x="317" y="276" type="line"/>
      <point x="317" y="385"/>
      <point x="380" y="470"/>
      <point x="488" y="470" type="curve" smooth="yes"/>
      <point x="596" y="470"/>
      <point x="650" y="409"/>
      <point x="650" y="294" type="curve" smooth="yes"/>
      <point x="650" y="0" type="line"/>
      <point x="515" y="0" type="line"/>
    </contour>
    <contour>
      <point x="117" y="700" type="line"/>
      <point x="256" y="700" type="line"/>
      <point x="154" y="452" type="line"/>
      <point x="61" y="452" type="line"/>
    </contour>
  </outline>
</glyph>
<glyph name="Omacron" format="1">
  <advance width="812"/>
  <unicode hex="014C"/>
  <outline>
    <contour>
      <point x="189" y="350" type="curve" smooth="yes"/>
      <point x="189" y="216"/>
      <point x="277" y="120"/>
      <point x="406" y="120" type="curve" smooth="yes"/>
      <point x="535" y="120"/>
      <point x="623" y="216"/>
      <point x="623" y="350" type="curve" smooth="yes"/>
      <point x="623" y="484"/>
      <point x="537" y="580"/>
      <point x="406" y="580" type="curve" smooth="yes"/>
      <point x="277" y="580"/>
      <point x="189" y="484"/>
    </contour>
    <contour>
      <point x="36" y="350" type="curve" smooth="yes"/>
      <point x="36" y="563"/>
      <point x="195" y="714"/>
      <point x="406" y="714" type="curve" smooth="yes"/>
      <point x="619" y="714"/>
      <point x="776" y="563"/>
      <point x="776" y="350" type="curve" smooth="yes"/>
      <point x="776" y="137"/>
      <point x="621" y="-19"/>
      <point x="406" y="-19" type="curve" smooth="yes"/>
      <point x="191" y="-19"/>
      <point x="36" y="137"/>
    </contour>
    <contour>
      <point x="224" y="774" type="line"/>
      <point x="224" y="889" type="line"/>
      <point x="588" y="889" type="line"/>
      <point x="588" y="774" type="line"/>
    </contour>
  </outline>
</glyph>
<glyph name="Obreve" format="1">
  <advance width="812"/>
  <unicode hex="014E"/>
  <outline>
    <contour>
      <point x="189" y="350" type="curve" smooth="yes"/>
      <point x="189" y="216"/>
      <point x="277" y="120"/>
      <point x="406" y="120" type="curve" smooth="yes"/>
      <point x="535" y="120"/>
      <point x="623" y="216"/>
      <point x="623" y="350" type="curve" smooth="yes"/>
      <point x="623" y="484"/>
      <point x="537" y="580"/>
      <point x="406" y="580" type="curve" smooth="yes"/>
      <point x="277" y="580"/>
      <point x="189" y="484"/>
    </contour>
    <contour>
      <point x="36" y="350" type="curve" smooth="yes"/>
      <point x="36" y="563"/>
      <point x="195" y="714"/>
      <point x="406" y="714" type="curve" smooth="yes"/>
      <point x="619" y="714"/>
      <point x="776" y="563"/>
      <point x="776" y="350" type="curve" smooth="yes"/>
      <point x="776" y="137"/>
      <point x="621" y="-19"/>
      <point x="406" y="-19" type="curve" smooth="yes"/>
      <point x="191" y="-19"/>
      <point x="36" y="137"/>
    </contour>
    <contour>
      <point x="244" y="919" type="curve"/>
      <point x="334" y="919" type="line"/>
      <point x="334" y="886"/>
      <point x="358" y="855"/>
      <point x="406" y="855" type="curve" smooth="yes"/>
      <point x="454" y="855"/>
      <point x="478" y="886"/>
      <point x="478" y="919" type="curve"/>
      <point x="568" y="919" type="line"/>
      <point x="568" y="841"/>
      <point x="511" y="774"/>
      <point x="406" y="774" type="curve" smooth="yes"/>
      <point x="301" y="774"/>
      <point x="244" y="841"/>
    </contour>
  </outline>
</glyph>
<glyph name="OE" format="1">
  <advance width="985"/>
  <unicode hex="0152"/>
  <outline>
    <contour>
      <point x="562" y="311" type="line"/>
      <point x="562" y="431" type="line"/>
      <point x="919" y="431" type="line"/>
      <point x="919" y="311" type="line"/>
    </contour>
    <contour>
      <point x="493" y="670" type="line"/>
      <point x="633" y="670" type="line"/>
      <point x="633" y="30" type="line"/>
      <point x="493" y="30" type="line"/>
    </contour>
    <contour>
      <point x="940" y="122" type="line"/>
      <point x="940" y="0" type="line"/>
      <point x="390" y="0" type="line" smooth="yes"/>
      <point x="187" y="0"/>
      <point x="36" y="141"/>
      <point x="36" y="350" type="curve" smooth="yes"/>
      <point x="36" y="559"/>
      <point x="186" y="700"/>
      <point x="390" y="700" type="curve" smooth="yes"/>
      <point x="939" y="700" type="line"/>
      <point x="939" y="578" type="line"/>
      <point x="568" y="578" type="line"/>
      <point x="551" y="572" type="line"/>
      <point x="412" y="572" type="line" smooth="yes"/>
      <point x="267" y="572"/>
      <point x="184" y="491"/>
      <point x="184" y="350" type="curve" smooth="yes"/>
      <point x="184" y="209"/>
      <point x="268" y="128"/>
      <point x="412" y="128" type="curve" smooth="yes"/>
      <point x="548" y="128" type="line"/>
      <point x="572" y="122" type="line"/>
    </contour>
  </outline>
</glyph>
<glyph name="oe" format="2">
  <advance width="900"/>
  <unicode hex="0153"/>
  <outline>
    <contour>
      <point x="728" y="250" type="line" smooth="yes"/>
      <point x="728" y="327"/>
      <point x="694" y="378"/>
      <point x="626" y="378" type="curve" smooth="yes"/>
      <point x="563" y="378"/>
      <point x="512" y="337"/>
      <point x="512" y="260" type="curve"/>
      <point x="510" y="230" type="line"/>
      <point x="510" y="137"/>
      <point x="555" y="87"/>
      <point x="628" y="87" type="curve" smooth="yes"/>
      <point x="686" y="87"/>
      <point x="722" y="115"/>
      <point x="750" y="156" type="curve"/>
      <point x="863" y="120" type="line"/>
      <point x="821" y="46"/>
      <point x="743" y="-10"/>
      <point x="644" y="-10" type="curve" smooth="yes"/>
      <point x="519" y="-10"/>
      <point x="430" y="91"/>
      <point x="430" y="230" type="curve" smooth="yes"/>
      <point x="430" y="247"/>
      <point x="431" y="263"/>
      <point x="434" y="279" type="curve" smooth="yes"/>
      <point x="453" y="392"/>
      <point x="539" y="470"/>
      <point x="658" y="470" type="curve" smooth="yes"/>
      <point x="768" y="470"/>
      <point x="865" y="379"/>
      <point x="865" y="234" type="curve" smooth="yes"/>
      <point x="865" y="226"/>
      <point x="864" y="209"/>
      <point x="863" y="201" type="curve"/>
      <point x="728" y="230" type="line"/>
    </contour>
    <contour>
      <point x="481" y="201" type="line"/>
      <point x="481" y="280" type="line"/>
      <point x="844" y="280" type="line"/>
      <point x="863" y="201" type="line"/>
    </contour>
    <contour>
      <point x="35" y="230" type="curve" smooth="yes"/>
      <point x="35" y="379"/>
      <point x="138" y="470"/>
      <point x="263" y="470" type="curve" smooth="yes"/>
      <point x="388" y="470"/>
      <point x="466" y="379"/>
      <point x="466" y="230" type="curve" smooth="yes"/>
      <point x="466" y="81"/>
      <point x="388" y="-10"/>
      <point x="263" y="-10" type="curve" smooth="yes"/>
      <point x="138" y="-10"/>
      <point x="35" y="81"/>
    </contour>
    <contour>
      <point x="164" y="230" type="curve" smooth="yes"/>
      <point x="164" y="146"/>
      <point x="218" y="100"/>
      <point x="286" y="100" type="curve" smooth="yes"/>
      <point x="347" y="100"/>
      <point x="397" y="146"/>
      <point x="397" y="230" type="curve" smooth="yes"/>
      <point x="397" y="314"/>
      <point x="347" y="360"/>
      <point x="286" y="360" type="curve" smooth="yes"/>
      <point x="218" y="360"/>
      <point x="164" y="314"/>
    </contour>
  </outline>
</glyph>
<glyph name="racute" format="1">
  <advance width="391"/>
  <unicode hex="0155"/>
  <outline>
    <contour>
      <point x="192" y="460" type="line"/>
      <point x="192" y="0" type="line"/>
      <point x="64" y="0" type="line"/>
      <point x="64" y="460" type="line"/>
    </contour>
    <contour>
      <point x="327" y="324" type="line"/>
      <point x="309" y="340"/>
      <point x="293" y="349"/>
      <point x="267" y="349" type="curve" smooth="yes"/>
      <point x="218" y="349"/>
      <point x="192" y="309"/>
      <point x="192" y="243" type="curve"/>
      <point x="156" y="280" type="line"/>
      <point x="156" y="389"/>
      <point x="229" y="471"/>
      <point x="303" y="471" type="curve" smooth="yes"/>
      <point x="336" y="471"/>
      <point x="367" y="458"/>
      <point x="386" y="434" type="curve"/>
    </contour>
    <contour>
      <point x="377" y="681" type="line"/>
      <point x="197" y="531" type="line"/>
      <point x="124" y="570" type="line"/>
      <point x="274" y="730" type="line"/>
    </contour>
  </outline>
</glyph>
<glyph name="uni0156" format="1">
  <advance width="621"/>
  <unicode hex="0156"/>
  <outline>
    <contour>
      <point x="236" y="325" type="line"/>
      <point x="388" y="325" type="line"/>
      <point x="616" y="0" type="line"/>
      <point x="445" y="0" type="line"/>
    </contour>
    <contour>
      <point x="76" y="700" type="line"/>
      <point x="220" y="700" type="line"/>
      <point x="220" y="0" type="line"/>
      <point x="76" y="0" type="line"/>
    </contour>
    <contour>
      <point x="164" y="577" type="line"/>
      <point x="164" y="700" type="line"/>
      <point x="312" y="700" type="line" smooth="yes"/>
      <point x="478" y="700"/>
      <point x="574" y="610"/>
      <point x="574" y="477" type="curve" smooth="yes"/>
      <point x="574" y="344"/>
      <point x="478" y="254"/>
      <point x="312" y="254" type="curve" smooth="yes"/>
      <point x="164" y="254" type="line"/>
      <point x="164" y="368" type="line"/>
      <point x="303" y="368" type="line" smooth="yes"/>
      <point x="378" y="368"/>
      <point x="425" y="406"/>
      <point x="425" y="472" type="curve" smooth="yes"/>
      <point x="425" y="538"/>
      <point x="378" y="577"/>
      <point x="303" y="577" type="curve" smooth="yes"/>
    </contour>
    <contour>
      <point x="325" y="-60" type="line"/>
      <point x="455" y="-92" type="line"/>
      <point x="334" y="-342" type="line"/>
      <point x="237" y="-319" type="line"/>
    </contour>
  </outline>
</glyph>
<glyph name="Rcaron" format="1">
  <advance width="621"/>
  <unicode hex="0158"/>
  <outline>
    <contour>
      <point x="236" y="325" type="line"/>
      <point x="388" y="325" type="line"/>
      <point x="616" y="0" type="line"/>
      <point x="445" y="0" type="line"/>
    </contour>
    <contour>
      <point x="76" y="700" type="line"/>
      <point x="220" y="700" type="line"/>
      <point x="220" y="0" type="line"/>
      <point x="76" y="0" type="line"/>
    </contour>
    <contour>
      <point x="164" y="577" type="line"/>
      <point x="164" y="700" type="line"/>
      <point x="312" y="700" type="line" smooth="yes"/>
      <point x="478" y="700"/>
      <point x="574" y="610"/>
      <point x="574" y="477" type="curve" smooth="yes"/>
      <point x="574" y="344"/>
      <point x="478" y="254"/>
      <point x="312" y="254" type="curve" smooth="yes"/>
      <point x="164" y="254" type="line"/>
      <point x="164" y="368" type="line"/>
      <point x="303" y="368" type="line" smooth="yes"/>
      <point x="378" y="368"/>
      <point x="425" y="406"/>
      <point x="425" y="472" type="curve" smooth="yes"/>
      <point x="425" y="538"/>
      <point x="378" y="577"/>
      <point x="303" y="577" type="curve" smooth="yes"/>
    </contour>
    <contour>
      <point x="296" y="888" type="line"/>
      <point x="393" y="976" type="line"/>
      <point x="482" y="914" type="line"/>
      <point x="296" y="774" type="line"/>
      <point x="110" y="914" type="line"/>
      <point x="199" y="976" type="line"/>
    </contour>
  </outline>
</glyph>
<glyph name="rcaron" format="1">
  <advance width="391"/>
  <unicode hex="0159"/>
  <outline>
    <contour>
      <point x="192" y="460" type="line"/>
      <point x="192" y="0" type="line"/>
      <point x="64" y="0" type="line"/>
      <point x="64" y="460" type="line"/>
    </contour>
    <contour>
      <point x="327" y="324" type="line"/>
      <point x="309" y="340"/>
      <point x="293" y="349"/>
      <point x="267" y="349" type="curve" smooth="yes"/>
      <point x="218" y="349"/>
      <point x="192" y="309"/>
      <point x="192" y="243" type="curve"/>
      <point x="156" y="280" type="line"/>
      <point x="156" y="389"/>
      <point x="229" y="471"/>
      <point x="303" y="471" type="curve" smooth="yes"/>
      <point x="336" y="471"/>
      <point x="367" y="458"/>
      <point x="386" y="434" type="curve"/>
    </contour>
    <contour>
      <point x="225" y="644" type="line"/>
      <point x="322" y="733" type="line"/>
      <point x="411" y="671" type="line"/>
      <point x="225" y="531" type="line"/>
      <point x="39" y="671" type="line"/>
      <point x="128" y="733" type="line"/>
    </contour>
  </outline>
</glyph>
<glyph name="sacute" format="1">
  <advance width="440"/>
  <unicode hex="015B"/>
  <outline>
    <contour>
      <point x="85" y="171" type="line"/>
      <point x="137" y="112"/>
      <point x="189" y="88"/>
      <point x="228" y="88" type="curve" smooth="yes"/>
      <point x="262" y="88"/>
      <point x="283" y="99"/>
      <point x="283" y="127" type="curve" smooth="yes"/>
      <point x="283" y="166"/>
      <point x="219" y="178"/>
      <point x="166" y="202" type="curve" smooth="yes"/>
      <point x="105" y="229"/>
      <point x="45" y="261"/>
      <point x="45" y="340" type="curve" smooth="yes"/>
      <point x="45" y="425"/>
      <point x="126" y="470"/>
      <point x="218" y="470" type="curve" smooth="yes"/>
      <point x="295" y="470"/>
      <point x="366" y="437"/>
      <point x="406" y="395" type="curve"/>
      <point x="349" y="314" type="line"/>
      <point x="317" y="348"/>
      <point x="263" y="370"/>
      <point x="226" y="370" type="curve" smooth="yes"/>
      <point x="192" y="370"/>
      <point x="171" y="360"/>
      <point x="171" y="335" type="curve" smooth="yes"/>
      <point x="171" y="305"/>
      <point x="232" y="290"/>
      <point x="288" y="268" type="curve" smooth="yes"/>
      <point x="353" y="242"/>
      <point x="415" y="206"/>
      <point x="415" y="130" type="curve" smooth="yes"/>
      <point x="415" y="27"/>
      <point x="348" y="-17"/>
      <point x="240" y="-17" type="curve" smooth="yes"/>
      <point x="146" y="-17"/>
      <point x="66" y="27"/>
      <point x="21" y="89" type="curve"/>
    </contour>
    <contour>
      <point x="398" y="680" type="line"/>
      <point x="218" y="530" type="line"/>
      <point x="145" y="569" type="line"/>
      <point x="295" y="729" type="line"/>
    </contour>
  </outline>
</glyph>
<glyph name="Scircumflex" format="2">
  <advance width="601"/>
  <unicode hex="015C"/>
  <outline>
    <contour>
      <point x="141" y="243" type="line"/>
      <point x="187" y="156"/>
      <point x="236" y="108"/>
      <point x="314" y="108" type="curve" smooth="yes"/>
      <point x="377" y="108"/>
      <point x="410" y="137"/>
      <point x="410" y="190" type="curve" smooth="yes"/>
      <point x="410" y="258"/>
      <point x="340" y="282"/>
      <point x="260" y="313" type="curve" smooth="yes"/>
      <point x="191" y="339"/>
      <point x="75" y="393"/>
      <point x="75" y="524" type="curve" smooth="yes"/>
      <point x="75" y="639"/>
      <point x="172" y="714"/>
      <point x="308" y="714" type="curve" smooth="yes"/>
      <point x="447" y="714"/>
      <point x="524" y="633"/>
      <point x="552" y="562" type="curve"/>
      <point x="442" y="497" type="line"/>
      <point x="412" y="551"/>
      <point x="374" y="590"/>
      <point x="313" y="590" type="curve" smooth="yes"/>
      <point x="258" y="590"/>
      <point x="222" y="562"/>
      <point x="222" y="518" type="curve" smooth="yes"/>
      <point x="222" y="464"/>
      <point x="299" y="439"/>
      <point x="383" y="408" type="curve" smooth="yes"/>
      <point x="473" y="376"/>
      <point x="561" y="317"/>
      <point x="561" y="194" type="curve" smooth="yes"/>
      <point x="561" y="59"/>
      <point x="466" y="-19"/>
      <point x="310" y="-19" type="curve" smooth="yes"/>
      <point x="186" y="-19"/>
      <point x="80" y="57"/>
      <point x="36" y="172" type="curve"/>
    </contour>
    <contour>
      <point x="308" y="863" type="line"/>
      <point x="211" y="774" type="line"/>
      <point x="122" y="836" type="line"/>
      <point x="308" y="976" type="line"/>
      <point x="494" y="836" type="line"/>
      <point x="405" y="774" type="line"/>
    </contour>
  </outline>
</glyph>
<glyph name="Scedilla" format="1">
  <advance width="602"/>
  <unicode hex="015E"/>
  <outline>
    <contour>
      <point x="141" y="244" type="line"/>
      <point x="187" y="157"/>
      <point x="237" y="109"/>
      <point x="315" y="109" type="curve" smooth="yes"/>
      <point x="377" y="109"/>
      <point x="410" y="138"/>
      <point x="410" y="190" type="curve" smooth="yes"/>
      <point x="410" y="258"/>
      <point x="340" y="281"/>
      <point x="260" y="312" type="curve" smooth="yes"/>
      <point x="191" y="338"/>
      <point x="75" y="384"/>
      <point x="75" y="521" type="curve" smooth="yes"/>
      <point x="75" y="636"/>
      <point x="166" y="714"/>
      <point x="308" y="714" type="curve" smooth="yes"/>
      <point x="447" y="714"/>
      <point x="520" y="639"/>
      <point x="553" y="562" type="curve"/>
      <point x="442" y="496" type="line"/>
      <point x="412" y="550"/>
      <point x="369" y="589"/>
      <point x="308" y="589" type="curve" smooth="yes"/>
      <point x="253" y="589"/>
      <point x="223" y="561"/>
      <point x="223" y="518" type="curve" smooth="yes"/>
      <point x="223" y="464"/>
      <point x="300" y="439"/>
      <point x="384" y="408" type="curve" smooth="yes"/>
      <point x="474" y="376"/>
      <point x="562" y="317"/>
      <point x="562" y="194" type="curve" smooth="yes"/>
      <point x="562" y="58"/>
      <point x="461" y="-19"/>
      <point x="310" y="-19" type="curve" smooth="yes"/>
      <point x="186" y="-19"/>
      <point x="80" y="57"/>
      <point x="36" y="172" type="curve"/>
    </contour>
    <contour>
      <point x="294" y="60" type="line"/>
      <point x="389" y="58" type="line"/>
      <point x="310" y="-61" type="line"/>
      <point x="319" y="-59"/>
      <point x="328" y="-59"/>
      <point x="338" y="-59" type="curve" smooth="yes"/>
      <point x="376" y="-59"/>
      <point x="424" y="-88"/>
      <point x="424" y="-149" type="curve" smooth="yes"/>
      <point x="424" y="-218"/>
      <point x="361" y="-254"/>
      <point x="300" y="-254" type="curve" smooth="yes"/>
      <point x="250" y="-254"/>
      <point x="213" y="-244"/>
      <point x="172" y="-215" type="curve"/>
      <point x="214" y="-155" type="line"/>
      <point x="237" y="-173"/>
      <point x="264" y="-180"/>
      <point x="286" y="-180" type="curve" smooth="yes"/>
      <point x="320" y="-180"/>
      <point x="339" y="-167"/>
      <point x="339" y="-143" type="curve" smooth="yes"/>
      <point x="339" y="-117"/>
      <point x="314" y="-110"/>
      <point x="282" y="-110" type="curve" smooth="yes"/>
      <point x="272" y="-110"/>
      <point x="238" y="-113"/>
      <point x="207" y="-127" type="curve"/>
    </contour>
  </outline>
</glyph>
<glyph name="scedilla" format="1">
  <advance width="436"/>
  <unicode hex="015F"/>
  <outline>
    <contour>
      <point x="85" y="170" type="line"/>
      <point x="139" y="122"/>
      <point x="193" y="88"/>
      <point x="230" y="88" type="curve" smooth="yes"/>
      <point x="264" y="88"/>
      <point x="284" y="100"/>
      <point x="284" y="126" type="curve" smooth="yes"/>
      <point x="284" y="160"/>
      <point x="236" y="178"/>
      <point x="184" y="198" type="curve" smooth="yes"/>
      <point x="120" y="222"/>
      <point x="54" y="256"/>
      <point x="54" y="342" type="curve" smooth="yes"/>
      <point x="54" y="418"/>
      <point x="127" y="470"/>
      <point x="217" y="470" type="curve" smooth="yes"/>
      <point x="294" y="470"/>
      <point x="362" y="438"/>
      <point x="402" y="394" type="curve"/>
      <point x="345" y="316" type="line"/>
      <point x="307" y="350"/>
      <point x="263" y="372"/>
      <point x="226" y="372" type="curve" smooth="yes"/>
      <point x="191" y="372"/>
      <point x="172" y="360"/>
      <point x="172" y="338" type="curve" smooth="yes"/>
      <point x="172" y="305"/>
      <point x="229" y="294"/>
      <point x="284" y="272" type="curve" smooth="yes"/>
      <point x="349" y="246"/>
      <point x="411" y="214"/>
      <point x="411" y="130" type="curve" smooth="yes"/>
      <point x="411" y="34"/>
      <point x="344" y="-16"/>
      <point x="240" y="-16" type="curve" smooth="yes"/>
      <point x="148" y="-16"/>
      <point x="69" y="29"/>
      <point x="21" y="92" type="curve"/>
    </contour>
    <contour>
      <point x="222" y="74.4668" type="line"/>
      <point x="318" y="71.4668" type="line"/>
      <point x="238" y="-47.5332" type="line"/>
      <point x="247" y="-45.5332"/>
      <point x="256" y="-44.5332"/>
      <point x="266" y="-44.5332" type="curve" smooth="yes"/>
      <point x="304" y="-44.5332"/>
      <point x="353" y="-74.5332"/>
      <point x="353" y="-135.533" type="curve" smooth="yes"/>
      <point x="353" y="-204.533"/>
      <point x="290" y="-239.533"/>
      <point x="229" y="-239.533" type="curve" smooth="yes"/>
      <point x="179" y="-239.533"/>
      <point x="142" y="-230.533"/>
      <point x="101" y="-201.533" type="curve"/>
      <point x="143" y="-140.533" type="line"/>
      <point x="166" y="-158.533"/>
      <point x="192" y="-165.533"/>
      <point x="214" y="-165.533" type="curve" smooth="yes"/>
      <point x="248" y="-165.533"/>
      <point x="268" y="-153.533"/>
      <point x="268" y="-129.533" type="curve" smooth="yes"/>
      <point x="268" y="-103.533"/>
      <point x="242" y="-95.5332"/>
      <point x="210" y="-95.5332" type="curve" smooth="yes"/>
      <point x="200" y="-95.5332"/>
      <point x="166" y="-98.5332"/>
      <point x="135" y="-112.533" type="curve"/>
    </contour>
  </outline>
</glyph>
<glyph name="utilde" format="2">
  <advance width="559"/>
  <unicode hex="0169"/>
  <outline>
    <contour>
      <point x="366" y="0" type="line"/>
      <point x="366" y="460" type="line"/>
      <point x="495" y="460" type="line"/>
      <point x="495" y="0" type="line"/>
    </contour>
    <contour>
      <point x="198" y="180" type="line" smooth="yes"/>
      <point x="198" y="119"/>
      <point x="221" y="86"/>
      <point x="275" y="86" type="curve" smooth="yes"/>
      <point x="330" y="86"/>
      <point x="366" y="123"/>
      <point x="366" y="180" type="curve"/>
      <point x="392" y="184" type="line"/>
      <point x="392" y="75"/>
      <point x="335" y="-10"/>
      <point x="227" y="-10" type="curve" smooth="yes"/>
      <point x="119" y="-10"/>
      <point x="64" y="51"/>
      <point x="64" y="166" type="curve" smooth="yes"/>
      <point x="64" y="460" type="line"/>
      <point x="198" y="460" type="line"/>
    </contour>
    <contour>
      <point x="93" y="587" type="line"/>
      <point x="103" y="636"/>
      <point x="150" y="678"/>
      <point x="208" y="678" type="curve" smooth="yes"/>
      <point x="274" y="678"/>
      <point x="285" y="628"/>
      <point x="341" y="628" type="curve" smooth="yes"/>
      <point x="364" y="628"/>
      <point x="383" y="647"/>
      <point x="403" y="679" type="curve"/>
      <point x="466" y="614" type="line"/>
      <point x="450" y="577"/>
      <point x="400" y="533"/>
      <point x="341" y="533" type="curve" smooth="yes"/>
      <point x="286" y="533"/>
      <point x="255" y="584"/>
      <point x="207" y="584" type="curve" smooth="yes"/>
      <point x="168" y="584"/>
      <point x="159" y="548"/>
      <point x="159" y="533" type="curve"/>
    </contour>
  </outline>
</glyph>
<glyph name="ubreve" format="2">
  <advance width="559"/>
  <unicode hex="016D"/>
  <outline>
    <contour>
      <point x="366" y="0" type="line"/>
      <point x="366" y="460" type="line"/>
      <point x="495" y="460" type="line"/>
      <point x="495" y="0" type="line"/>
    </contour>
    <contour>
      <point x="198" y="180" type="line" smooth="yes"/>
      <point x="198" y="119"/>
      <point x="221" y="86"/>
      <point x="275" y="86" type="curve" smooth="yes"/>
      <point x="330" y="86"/>
      <point x="366" y="123"/>
      <point x="366" y="180" type="curve"/>
      <point x="392" y="184" type="line"/>
      <point x="392" y="75"/>
      <point x="335" y="-10"/>
      <point x="227" y="-10" type="curve" smooth="yes"/>
      <point x="119" y="-10"/>
      <point x="64" y="51"/>
      <point x="64" y="166" type="curve" smooth="yes"/>
      <point x="64" y="460" type="line"/>
      <point x="198" y="460" type="line"/>
    </contour>
    <contour>
      <point x="117" y="675" type="curve"/>
      <point x="208" y="675" type="line"/>
      <point x="208" y="643"/>
      <point x="232" y="611"/>
      <point x="280" y="611" type="curve" smooth="yes"/>
      <point x="328" y="611"/>
      <point x="352" y="643"/>
      <point x="352" y="675" type="curve"/>
      <point x="442" y="675" type="line"/>
      <point x="442" y="597"/>
      <point x="385" y="530"/>
      <point x="280" y="530" type="curve" smooth="yes"/>
      <point x="175" y="530"/>
      <point x="117" y="597"/>
    </contour>
  </outline>
</glyph>
<glyph name="Uring" format="1">
  <advance width="678"/>
  <unicode hex="016E"/>
  <outline>
    <contour>
      <point x="70" y="700" type="line"/>
      <point x="214" y="700" type="line"/>
      <point x="214" y="238" type="line" smooth="yes"/>
      <point x="214" y="160"/>
      <point x="257" y="107"/>
      <point x="339" y="107" type="curve" smooth="yes"/>
      <point x="421" y="107"/>
      <point x="464" y="160"/>
      <point x="464" y="238" type="curve" smooth="yes"/>
      <point x="464" y="700" type="line"/>
      <point x="608" y="700" type="line"/>
      <point x="608" y="230" type="line" smooth="yes"/>
      <point x="608" y="65"/>
      <point x="493" y="-24"/>
      <point x="339" y="-24" type="curve" smooth="yes"/>
      <point x="185" y="-24"/>
      <point x="70" y="65"/>
      <point x="70" y="230" type="curve" smooth="yes"/>
    </contour>
    <contour>
      <point x="220.5" y="885" type="curve" smooth="yes"/>
      <point x="220.5" y="951"/>
      <point x="274.5" y="996"/>
      <point x="338.5" y="996" type="curve" smooth="yes"/>
      <point x="402.5" y="996"/>
      <point x="457.5" y="951"/>
      <point x="457.5" y="885" type="curve" smooth="yes"/>
      <point x="457.5" y="819"/>
      <point x="402.5" y="774"/>
      <point x="338.5" y="774" type="curve" smooth="yes"/>
      <point x="274.5" y="774"/>
      <point x="220.5" y="819"/>
    </contour>
    <contour>
      <point x="291.5" y="885" type="curve" smooth="yes"/>
      <point x="291.5" y="854"/>
      <point x="313.5" y="836"/>
      <point x="338.5" y="836" type="curve" smooth="yes"/>
      <point x="363.5" y="836"/>
      <point x="386.5" y="854"/>
      <point x="386.5" y="885" type="curve" smooth="yes"/>
      <point x="386.5" y="916"/>
      <point x="363.5" y="934"/>
      <point x="338.5" y="934" type="curve" smooth="yes"/>
      <point x="313.5" y="934"/>
      <point x="291.5" y="916"/>
    </contour>
  </outline>
</glyph>
